<svg width="596" height="169" viewBox="0 0 596 169" version="1.1" xmlns="http://www.w3.org/2000/svg" xmlns:xlink="http://www.w3.org/1999/xlink"><title>noyalib flat</title><g id="banner-noyalib" stroke="none" stroke-width="1" fill="none" fill-rule="evenodd"><g fill="#4A3B8C" fill-rule="nonzero" id="source"><g transform="translate(-279.0002, -119) translate(5, 77)"><g id="Title" transform="translate(261.0593, 7.3784)"><g id="noyalib-flat" transform="translate(0, -4)"><path d="M13.76,52.96 L13.76,172 L40.96,172 L40.96,132.48 C40.96,118.08 38.56,101.76 37.28,88.48 L38.08,88.48 L49.76,114.56 L79.2,172 L108.32,172 L108.32,52.96 L81.12,52.96 L81.12,92.32 C81.12,106.56 83.36,123.68 84.96,136.32 L84.16,136.32 L72.48,109.92 L42.88,52.96 L13.76,52.96 Z" id="Path"/><path d="M172.076992,174.24 C195.116992,174.24 216.556992,156.64 216.556992,126.4 C216.556992,96.32 195.116992,78.72 172.076992,78.72 C148.876992,78.72 127.436992,96.32 127.436992,126.4 C127.436992,156.64 148.876992,174.24 172.076992,174.24 Z M172.076992,151.2 C161.356992,151.2 156.556992,141.6 156.556992,126.4 C156.556992,111.36 161.356992,101.76 172.076992,101.76 C182.636992,101.76 187.436992,111.36 187.436992,126.4 C187.436992,141.6 182.636992,151.2 172.076992,151.2 Z" id="Shape"/><path d="M222.233985,80.96 L257.113985,169.28 L255.833985,173.92 C253.753985,180.32 249.273985,184.64 240.633985,184.64 C238.553985,184.64 236.153985,184 234.553985,183.68 L229.433985,205.28 C233.273985,206.4 236.953985,207.04 242.873985,207.04 C264.473985,207.04 274.233985,195.52 283.193985,172.16 L314.393985,80.96 L287.193985,80.96 L276.793985,118.72 C274.713985,127.36 272.633985,135.84 270.873985,144.48 L270.073985,144.48 C267.673985,135.52 265.753985,127.04 263.033985,118.72 L251.033985,80.96 L222.233985,80.96 Z" id="Path"/><path d="M346.150977,174.24 C356.390977,174.24 364.870977,169.6 372.390977,163.04 L373.030977,163.04 L375.110977,172 L398.310977,172 L398.310977,120.32 C398.310977,91.84 385.030977,78.72 361.510977,78.72 C347.270977,78.72 334.310977,83.52 322.310977,90.72 L332.230977,109.44 C341.350977,104.32 348.870977,101.44 356.070977,101.44 C365.350977,101.44 369.190977,105.76 369.830977,113.12 C334.310977,116.96 319.270977,127.36 319.270977,146.56 C319.270977,161.76 329.510977,174.24 346.150977,174.24 Z M356.070977,152.16 C350.150977,152.16 346.150977,149.6 346.150977,144.32 C346.150977,137.92 352.070977,132.8 369.830977,130.4 L369.830977,144.96 C365.670977,149.44 361.830977,152.16 356.070977,152.16 Z" id="Shape"/><path d="M444.94797,174.24 C451.18797,174.24 455.98797,173.12 459.02797,171.84 L455.66797,150.88 C454.06797,151.2 453.42797,151.2 452.46797,151.2 C450.22797,151.2 447.34797,149.44 447.34797,143.52 L447.34797,44.16 L419.02797,44.16 L419.02797,142.4 C419.02797,161.44 425.42797,174.24 444.94797,174.24 Z" id="Path"/><path d="M470.944962,172 L499.264962,172 L499.264962,80.96 L470.944962,80.96 L470.944962,172 Z M485.184962,68.48 C494.624962,68.48 501.344962,62.24 501.344962,53.92 C501.344962,45.12 494.624962,39.04 485.184962,39.04 C475.584962,39.04 468.864962,45.12 468.864962,53.92 C468.864962,62.24 475.584962,68.48 485.184962,68.48 Z" id="Shape"/><path d="M521.101955,172 L543.341955,172 L545.581955,162.24 L546.221955,162.24 C553.421955,170.08 561.741955,174.24 569.741955,174.24 C589.261955,174.24 607.981955,156.32 607.981955,124.8 C607.981955,96.96 594.061955,78.72 572.301955,78.72 C564.301955,78.72 555.981955,82.24 549.421955,87.84 C549.261955,88.16 548.941955,88.32 548.781955,88.48 L549.421955,74.88 L549.421955,44.16 L521.101955,44.16 L521.101955,172 Z M549.421955,145.6 L549.421955,109.6 C554.381955,104.32 558.541955,101.92 563.981955,101.92 C574.061955,101.92 578.701955,109.44 578.701955,125.44 C578.701955,143.68 571.661955,150.88 563.021955,150.88 C558.541955,150.88 553.901955,149.6 549.421955,145.6 Z" id="Shape"/></g></g></g></g></g></svg>