<svg height="169" viewBox="0 0 596 169" width="596" xmlns="http://www.w3.org/2000/svg"><g fill="#4a3b8c" transform="translate(-12.9409 -38.6216)"><path d="m13.76 52.96v119.04h27.2v-39.52c0-14.4-2.4-30.72-3.68-44h.8l11.68 26.08 29.44 57.44h29.12v-119.04h-27.2v39.36c0 14.24 2.24 31.36 3.84 44h-.8l-11.68-26.4-29.6-56.96z"/><path d="m172.076992 174.24c23.04 0 44.48-17.6 44.48-47.84 0-30.08-21.44-47.68-44.48-47.68-23.2 0-44.64 17.6-44.64 47.68 0 30.24 21.44 47.84 44.64 47.84zm0-23.04c-10.72 0-15.52-9.6-15.52-24.8 0-15.04 4.8-24.64 15.52-24.64 10.56 0 15.36 9.6 15.36 24.64 0 15.2-4.8 24.8-15.36 24.8z"/><path d="m222.233985 80.96 34.88 88.32-1.28 4.64c-2.08 6.4-6.56 10.72-15.2 10.72-2.08 0-4.48-.64-6.08-.96l-5.12 21.6c3.84 1.12 7.52 1.76 13.44 1.76 21.6 0 31.36-11.52 40.32-34.88l31.2-91.2h-27.2l-10.4 37.76c-2.08 8.64-4.16 17.12-5.92 25.76h-.8c-2.4-8.96-4.32-17.44-7.04-25.76l-12-37.76z"/><path d="m346.150977 174.24c10.24 0 18.72-4.64 26.24-11.2h.64l2.08 8.96h23.2v-51.68c0-28.48-13.28-41.6-36.8-41.6-14.24 0-27.2 4.8-39.2 12l9.92 18.72c9.12-5.12 16.64-8 23.84-8 9.28 0 13.12 4.32 13.76 11.68-35.52 3.84-50.56 14.24-50.56 33.44 0 15.2 10.24 27.68 26.88 27.68zm9.92-22.08c-5.92 0-9.92-2.56-9.92-7.84 0-6.4 5.92-11.52 23.68-13.92v14.56c-4.16 4.48-8 7.2-13.76 7.2z"/><path d="m444.94797 174.24c6.24 0 11.04-1.12 14.08-2.4l-3.36-20.96c-1.6.32-2.24.32-3.2.32-2.24 0-5.12-1.76-5.12-7.68v-99.36h-28.32v98.24c0 19.04 6.4 31.84 25.92 31.84z"/><path d="m470.944962 172h28.32v-91.04h-28.32zm14.24-103.52c9.44 0 16.16-6.24 16.16-14.56 0-8.8-6.72-14.88-16.16-14.88-9.6 0-16.32 6.08-16.32 14.88 0 8.32 6.72 14.56 16.32 14.56z"/><path d="m521.101955 172h22.24l2.24-9.76h.64c7.2 7.84 15.52 12 23.52 12 19.52 0 38.24-17.92 38.24-49.44 0-27.84-13.92-46.08-35.68-46.08-8 0-16.32 3.52-22.88 9.12-.16.32-.48.48-.64.64l.64-13.6v-30.72h-28.32zm28.32-26.4v-36c4.96-5.28 9.12-7.68 14.56-7.68 10.08 0 14.72 7.52 14.72 23.52 0 18.24-7.04 25.44-15.68 25.44-4.48 0-9.12-1.28-13.6-5.28z"/></g></svg>