<svg height="254" viewBox="0 0 254 254" width="254" xmlns="http://www.w3.org/2000/svg"><g fill="none" transform="translate(.407 .407)"><g fill="#000"><path d="m126.45 0c-45.05273 0-84.57538 23.58152-106.97108 59.05215 7.66849 5.5357 17.05389 8.83745 27.23733 8.83745h91.04119c47.9948 0 90.26563 24.45824 115.06388 61.58115.02529-1.00879.07868-2.00915.07868-3.02075 0-69.83693-56.61307-126.45-126.45-126.45z"/><path d="m252.9 126.45c0-3.39167-.17422-6.74119-.43555-10.06823-24.84883-38.44642-66.94825-57.69492-114.70701-57.69492h-91.04119c-8.87679 0-17.14381-1.38814-24.20534-4.22624-12.99344 18.72865-21.07781 41.11873-22.33388 65.32688 25.35463 31.26687 64.05114 51.27407 107.44316 51.27407h2.09064c25.39678 0 36.81381 11.07702 37.45449 36.31925.01124-.40183.06182-.79242.06182-1.19706 0 23.65177-9.87996 43.14755-31.39332 46.24136 3.50407.28943 7.03624.47489 10.61618.47489 69.83693 0 126.45-56.61307 126.45-126.45z"/><path d="m115.9687 252.43354c22.44628-3.01232 39.81489-21.92362 40.40218-45.05554-.64068-25.24223-21.26046-45.522-46.65724-45.522h-2.09064c-42.98176 0-81.34107-19.64752-106.70413-50.40578-.58448 4.92312-.91887 9.92211-.91887 14.99978 0 66.30195 51.04084 120.65016 115.9687 125.98354z"/></g><path d="m166.79598 120.29329c-.72498-.34844-1.46401-.68283-2.21147-1.00317-1.30103-23.97773-14.40406-37.70739-36.40355-37.84789-.09835 0-.19951 0-.29786 0-13.15923 0-24.10418 5.61719-30.83975 15.83716l12.09986 8.30074c5.03271-7.63477 12.92881-9.26176 18.74551-9.26176h.20232c7.24418.04496 12.70963 2.15246 16.24742 6.26068 2.57396 2.98984 4.29649 7.12335 5.15073 12.33871-6.42366-1.09028-13.36717-1.42748-20.794-1.00036-20.91764 1.20549-34.36349 13.4037-33.46148 30.35643.45803 8.5986 4.74328 15.99452 12.06052 20.82772 6.18762 4.08574 14.15959 6.08365 22.44347 5.63124 10.93933-.59853 19.52107-4.77419 25.50918-12.40615 4.54658-5.79703 7.42402-13.30535 8.69133-22.76943 5.21255 3.1472 9.0763 7.28633 11.2119 12.26284 3.62771 8.46091 3.84127 22.36479-7.50551 33.69752-9.93897 9.93054-21.88709 14.22703-39.94415 14.3591-20.02968-.14893-35.17839-6.57259-45.02744-19.09114-9.22242-11.72894-13.99099-28.662-14.16802-50.33553.17703-21.67353 4.94279-38.6094 14.16802-50.33272 9.84905-12.52136 24.99776-18.94221 45.02463-19.09114 20.1758.14893 35.58584 6.6035 45.81143 19.18387 5.01304 6.16795 8.7953 13.92917 11.28777 22.97456l14.17926-3.78226c-3.02075-11.13322-7.77527-20.72937-14.24108-28.68729-13.10865-16.1294-32.28128-24.39361-56.9868-24.56502h-.09835c-24.65494.17141-43.6112 8.46653-56.34893 24.65775-11.33273 14.40687-17.18034 34.45341-17.37704 59.58324v.05901.05901c.1967 25.12983 6.0415 45.17637 17.37704 59.58324 12.73492 16.19122 31.69399 24.48634 56.34893 24.65775h.09835c21.918-.15174 37.36738-5.88976 50.09668-18.60782 16.65206-16.6352 16.15188-37.48821 10.66114-50.29057-3.93681-9.17746-11.44513-16.6352-21.71006-21.55832zm-37.84508 35.58022c-9.16903.51704-18.69212-3.59961-19.16139-12.41177-.34844-6.53606 4.65055-13.82801 19.72339-14.6963 1.72534-.09835 3.41977-.14893 5.08329-.14893 5.47388 0 10.59651.53109 15.25268 1.55112-1.73377 21.69039-11.92283 25.21413-20.89797 25.70588z" fill="#fff"/></g></svg>