<svg height="253" viewBox="0 0 253 253" width="253" xmlns="http://www.w3.org/2000/svg"><g fill="none" fill-rule="evenodd"><circle cx="126.45" cy="126.45" fill="#fff" r="126.45"/><path d="m167.20298 120.70029c-.72498-.34844-1.46401-.68283-2.21147-1.00317-1.30103-23.97773-14.40406-37.70739-36.40355-37.84789-.09835 0-.19951 0-.29786 0-13.15923 0-24.10418 5.61719-30.83975 15.83716l12.09986 8.30074c5.03271-7.63477 12.92881-9.26176 18.74551-9.26176h.20232c7.24418.04496 12.70963 2.15246 16.24742 6.26068 2.57396 2.98984 4.29649 7.12335 5.15073 12.33871-6.42366-1.09028-13.36717-1.42748-20.794-1.00036-20.91764 1.20549-34.36349 13.4037-33.46148 30.35643.45803 8.5986 4.74328 15.99452 12.06052 20.82772 6.18762 4.08574 14.15959 6.08365 22.44347 5.63124 10.93933-.59853 19.52107-4.77419 25.50918-12.40615 4.54658-5.79703 7.42402-13.30535 8.69133-22.76943 5.21255 3.1472 9.0763 7.28633 11.2119 12.26284 3.62771 8.46091 3.84127 22.36479-7.50551 33.69752-9.93897 9.93054-21.88709 14.22703-39.94415 14.3591-20.02968-.14893-35.17839-6.57259-45.02744-19.09114-9.22242-11.72894-13.99099-28.662-14.16802-50.33553.17703-21.67353 4.94279-38.6094 14.16802-50.33272 9.84905-12.52136 24.99776-18.94221 45.02463-19.09114 20.1758.14893 35.58584 6.6035 45.81143 19.18387 5.01304 6.16795 8.7953 13.92917 11.28777 22.97456l14.17926-3.78226c-3.02075-11.13322-7.77527-20.72937-14.24108-28.68729-13.10865-16.1294-32.28128-24.39361-56.9868-24.56502h-.09835c-24.65494.17141-43.6112 8.46653-56.34893 24.65775-11.33273 14.40687-17.18034 34.45341-17.37704 59.58324v.05901.05901c.1967 25.12983 6.0415 45.17637 17.37704 59.58324 12.73492 16.19122 31.69399 24.48634 56.34893 24.65775h.09835c21.918-.15174 37.36738-5.88976 50.09668-18.60782 16.65206-16.6352 16.15188-37.48821 10.66114-50.29057-3.93681-9.17746-11.44513-16.6352-21.71006-21.55832zm-37.84508 35.58022c-9.16903.51704-18.69212-3.59961-19.16139-12.41177-.34844-6.53606 4.65055-13.82801 19.72339-14.6963 1.72534-.09835 3.41977-.14893 5.08329-.14893 5.47388 0 10.59651.53109 15.25268 1.55112-1.73377 21.69039-11.92283 25.21413-20.89797 25.70588z" fill="#000" fill-rule="nonzero"/></g></svg>