<svg height="4100" viewBox="0 0 3867 4100" width="3867" xmlns="http://www.w3.org/2000/svg" xmlns:xlink="http://www.w3.org/1999/xlink"><mask id="a" fill="#fff"><path d="m0 0h3863.15048v3998.22283h-3863.15048z" fill="#fff" fill-rule="evenodd"/></mask><mask id="b" fill="#fff"><path d="m0 0h3863.15204v3998.22283h-3863.15204z" fill="#fff" fill-rule="evenodd"/></mask><g fill="#e2725b" fill-rule="evenodd"><path d="m1894.5373 3961.26071c0-1.54592-1.25466-2.80058-2.80058-2.80058-1.54593 0-2.80059 1.25466-2.80059 2.80058 0 1.54593 1.25466 2.80059 2.80059 2.80059 1.54592 0 2.80058-1.25466 2.80058-2.80059m-6.38533-14.00292c0-2.66056-2.15645-4.81701-4.81701-4.81701-2.66055 0-4.817 2.15645-4.817 4.81701s2.15645 4.81701 4.817 4.81701c2.66056 0 4.81701-2.15645 4.81701-4.81701m373.1219.73935c-1.86519-7.29272-4.83381-14.14295-8.57539-15.55444-4.76099-1.78678-13.48202-2.95182-16.44503.66094 10.36216 4.91782 4.69938 16.22098 8.66501 18.41104 3.53993 1.95481 17.38042.4705 16.35541-3.51754m-237.29914 3.18147c11.79606-8.25052 18.11418-7.89205 30.95766-14.41741-13.34759-10.41258-27.68098-10.5414-37.28138-3.22627l16.50104 4.72178c4.02724 1.15384-15.13996 9.52199-10.17732 12.9219m-123.11371.66654c15.51524-5.88123 22.92559-5.70199 31.1257 3.81439 6.82223-3.41671 12.18815-19.74412 1.83158-23.77136-13.78447-5.36032-29.10927-3.56234-39.55545.9578 6.77181 6.86704 13.88529.77856 19.44726 9.54439-6.58698 4.49214-14.3334 1.00261-12.84909 9.45478m-275.98082-65.81374c-3.92082-11.99771-8.1721-23.00961-17.37482-18.14779-4.62097 2.43651-17.93495 7.63439-7.56718 16.10336 5.2931 4.3185 20.64591 7.00706 24.942 2.04443m449.98115-377.95011c-35.23696-49.58715-93.01302-77.43057-158.41787-72.08145-80.72966 6.60378-154.23941 81.23376-154.83873 163.41972-.62173 85.40103 62.32981 152.307 136.83657 168.48317 79.5198 17.26841 156.28943-22.5335 192.00809-95.7968 2.33568-4.8002-6.23411-12.59142-1.93801-15.57685 34.91209-24.23626 18.96556-102.54621-13.65005-148.44779m-1619.068429-361.79074c0-1.96601-1.590732-3.55674-3.556743-3.55674-1.96601 0-3.556742 1.59073-3.556742 3.55674s1.590732 3.55675 3.556742 3.55675c1.966011 0 3.556743-1.59074 3.556743-3.55675m1381.870109 135.41388c32.85086 58.98591 98.76542 78.18112 150.81709 46.54571 49.78319-30.25751 67.91978-94.79979 34.0383-146.82345-31.04728-47.66595-91.67434-62.7611-141.54715-35.76347-45.40308 24.57793-71.00602 86.30282-43.30824 136.04121m-1440.682388-143.81563c0-1.96601-1.590732-3.55674-3.556743-3.55674-1.96601 0-3.556742 1.59073-3.556742 3.55674s1.590732 3.55674 3.556742 3.55674c1.966011 0 3.556743-1.59073 3.556743-3.55674m185.07384-193.17313c70.563532-47.16185 93.942813-145.58 47.4195-217.16294-47.447506-73.00564-138.130439-97.35393-212.452356-59.51243-74.669189 38.00954-104.03052 126.08233-75.593382 206.07823 21.682126 60.98553 138.836186 138.62894 240.626238 70.59714m2908.816108-24.00661c51.40193-58.11774 58.9411-133.29663 19.00476-196.73548-44.29965-70.37869-136.64052-93.25947-209.13646-56.39817-72.3167 36.77167-109.11078 125.29256-78.32675 202.33664 20.83635 52.15249 66.91157 86.82933 112.39866 96.17208 59.82049 12.29457 117.48453-1.75877 156.05979-45.37507m-346.20268-315.88355c-22.32627-45.31346-76.37755-65.29844-122.01028-54.20812-42.19361 10.26134-78.0579 49.18947-79.86707 96.66498-1.80358 47.24586 27.54655 86.60528 63.74691 102.9663 43.49868 19.6545 90.82856 7.71841 120.05546-23.14403 29.49016-31.1369 38.97854-79.85027 18.07498-122.27913m-2279.239065 144.43735c47.301875-24.47711 67.645323-74.7532 56.420579-121.82543-10.636621-44.58531-47.447506-72.75919-99.947267-81.00972-27.641771-4.3465-66.945177 14.92152-87.322231 39.42103-32.996489 39.67869-28.095466 97.52197 2.890203 134.64652 29.568574 35.41619 82.107543 52.49976 127.958716 28.7676m-85.546661-1369.26747c-59.602044 21.15001-82.734873 88.01117-59.848495 142.86902 21.45808 51.43554 82.28678 78.69083 138.925805 55.74284 49.262285-19.96257 78.259539-80.9705 59.361193-134.12-19.217612-54.06249-80.488804-85.05376-138.438503-64.49186m2200.273776 180.66572c42.25522 35.40499 103.57122 35.62343 144.09008-4.14487 37.60065-36.91171 43.5603-99.02868 8.85545-142.56656-33.41098-41.91916-91.29346-51.75481-141.13827-26.00623-47.32428 24.4435-74.87643 119.88182-11.80726 172.71766m546.00759-207.48972c22.72395-67.94219 2.61015-135.08901-44.94938-178.67731-48.94302-44.84856-122.1335-53.60319-183.07422-23.54171-56.47099 27.85461-86.77332 85.42903-87.143 144.30292-.37527 59.22677 28.77881 114.68955 82.01793 144.77903 88.38085 49.95123 200.05697 12.07612 233.14867-86.86293m-2876.698994-21.41888c17.957349-73.47054-17.374828-147.96609-83.283789-180.91217-63.32122-31.65221-141.956037-21.85576-195.413598 35.05212-44.646921 47.53713-57.529611 126.88329-22.326261 189.89645 34.928892 62.51465 97.04026 94.867 168.836049 84.43203 63.954153-9.29795 114.678343-56.81827 132.187599-128.46843m1197.059524 1601.09428c3.16466 35.83628 17.06116 64.96797 42.47927 78.04109 28.2971 14.56305 61.57365 18.37744 88.6441-.5153 27.36172-19.09439 40.99496-50.23689 44.22124-83.93353 11.80726-123.39936 61.89852-238.14492 158.19943-317.68152 106.72468-88.14561 245.60567-113.9838 380.84591-88.40886 94.32369 17.83972 154.05456 72.41752 212.2115 82.06833 40.95576 6.79422 79.85028-17.03315 92.81138-49.87281 15.07275-38.21118 1.65235-82.98132-35.40499-102.22134l-135.86197-70.55793c-12.82667-6.65979-24.81878-12.74266-36.82208-19.77773-97.81322-57.32797-145.74243-162.8596-147.12032-273.4883-1.54592-123.98749 59.78128-235.59079 168.6008-295.0472l136.94299-74.83162c39.35382-21.50289 67.80776-62.31301 56.63903-109.16119-8.34574-35.02412-45.79516-58.99152-81.21136-56.39258-36.51962 2.68296-65.29843 19.1448-93.68516 39.15778-197.03233 138.8978-467.9833 91.11422-601.71682-109.2116-42.75373-64.04377-69.93621-132.97177-74.00826-211.02406l-5.49474-105.3804c-2.47012-47.4083-35.23696-82.89171-81.13854-85.89954-41.45986-2.72217-83.23898 27.7874-87.28303 73.07846l-13.16274 147.41718c-12.21615 136.84217-98.81583 250.70834-206.71116 311.86191-129.23578 73.24089-280.6914 82.92531-401.46382 12.78747l-110.35984-64.08858c-24.9252-14.47902-56.77345-14.05894-81.69306-.59373-21.0716 11.39278-42.087183 33.9879-43.924367 63.62929-2.380497 38.35121 20.780337 71.40931 52.998267 89.51229l136.23724 76.55678c178.41405 100.24973 227.72675 318.07361 117.26609 485.41415-37.69027 57.09832-90.11722 91.13102-149.23196 120.36913l-104.8819 51.87243c-35.99871 17.80611-59.377996 59.45081-45.565512 99.12949 17.990952 51.6988 77.693822 72.34471 125.426982 49.53675 102.08692-48.78619 134.24323-75.38054 252.68556-83.56945 256.27591-17.7165 447.66226 162.3779 470.53184 421.22474m183.80237-2032.653177c16.12017-42.591292 7.69041-88.375251-23.22805-117.579748-47.85079-45.195837-123.47218-37.146956-161.16805 15.319198-36.4356 50.718589-20.47787 124.441181 36.81089 155.068375 52.44375 28.039454 123.75784 10.138117 147.58521-52.807825m61.45043-350.07869c11.10712-31.657809 13.07873-55.894069 7.81363-88.593696-11.31436-70.289075-74.78681-121.478163-143.18829-131.33062-71.03403-10.227735-143.81563 23.502507-176.67209 89.495485-47.55393 95.511141 9.11311 206.475908 109.77732 232.935833 85.58027 22.499897 172.34799-17.251602 202.26943-102.507002m-544.5849 3365.109767c-191.22392-234.76181-64.08298-484.46194 24.71796-734.22369 40.92215-115.10403 34.78887-230.56654-52.64539-320.59413-89.70273-92.35769-226.79135-111.68732-338.41705-45.77276-47.17865 27.86022-82.27558 63.55087-118.2911 105.32439-77.845051 90.29085-154.889137 181.41628-249.291246 252.3999l-68.4911 51.50275c-13.801281-3.88721-33.33816-9.26433-43.711526-10.93908.969002-13.64445-3.668766-21.17803-14.019727-27.91063-11.454391-7.44956-20.349048-13.49882-37.320592-5.2763-3.937622-7.27032-1.691553-11.91369-2.178855-19.92336-15.957731-2.01082-24.852388-14.01973-37.959125-21.82776-16.725092-9.95888-13.8909 25.17166-34.492001 27.87142-5.914835.77296-8.681813-7.89765-12.445798-15.01114-8.390552-2.02202-14.725475 3.65197-25.754177 3.50074 4.794601 12.68664 18.377436 17.04996 30.728015 23.18884-16.865121 9.90286-25.266875-11.0231-37.583847-9.5612l-6.855831 26.42072c-1.417096 5.46114-14.159756 9.16351-24.404295 2.49252 11.263951-12.22175 20.382655-17.10037 30.397546-32.87327-41.728712-12.29456-36.127543 26.96403-59.103539 14.8431-10.681431-5.62917 7.483162-31.44496-11.006298-20.70192-2.481318 1.4395-9.157912 4.35771-9.76844 8.80504-.397683 2.9014 7.981667 5.2707 8.614599 9.45477.700146 4.61537-3.763986 11.87448-7.600787 12.32258-6.396536.74495-16.254594 5.61237-21.581306-4.38572 3.377505-1.84278 8.95627-3.98803 9.656416-7.54477 1.545923-7.84164-12.563423-28.48755-14.350196-29.14289-5.79721-2.11724-9.152311 4.48654-13.106736 8.59219-.532111.55452 35.836282 53.40715-42.031176-16.18177-6.105274 11.45439 14.490226 25.15485 11.706444 30.60479-2.626948 5.14187-3.136654 12.09292-8.099291 15.04474-.274457-14.67507-5.214688-28.84603-16.248992-31.78104-14.680665-3.89841-29.137283-1.59633-33.819861 16.55706-10.591811-5.92044-20.78594-14.3614-25.636552-22.9984 5.489146-12.00331 2.380497-21.64292-6.010055-38.7937-4.156068 4.72178-9.992486 9.32594-20.673916 8.25052 1.529119-5.19228 13.974917-6.54777 11.347969-12.82108-1.025014-2.45331-9.91407-5.37152-11.717647-2.55973-23.76016 37.07414-28.868427 13.30278-53.967267 39.43223-1.204251-13.9077-18.030164-17.29641-20.365852-26.11265-6.105275-23.06562-21.379664-53.55278-43.437069-54.77944 7.892048-6.99026 14.747879-.43689 18.243009-7.83603-9.96448-2.99103-15.464829-4.85062-17.324417-15.38081-10.642222-7.04628-10.222134-1.82038-7.035069 12.58022-13.022719-15.78409-28.661184-31.1313-48.9038099-30.69441-3.836801 13.80689-.4088854 23.99541 2.3020806 20.67392 1.8651893-2.27968 4.5257453-11.76246 10.7374423-12.02571 5.763603 28.45394 36.850093 74.15388 6.178089 69.52732-5.371521-.80657-8.995478-6.54777-14.154155-12.68105-2.8341915-3.36631-14.3501958 2.06123-18.1533898-3.68557-49.9008183-75.36934-79.52540337-159.4933-82.57243953-248.72553-7.66239976-224.37725 141.12146333-420.81026 360.92255333-467.84328 71.801391-15.36401 141.995246-24.98121 216.003498-28.34752 15.420019-.70574 26.409513-2.66055 41.325428-5.15307 98.345332-16.41143 196.276178-24.12984 289.776499-55.94448 97.521962-33.18693 158.714732-106.55665 151.035532-206.14544-4.3017-55.75964-37.02373-105.48122-89.204223-139.8612-60.078143-39.58347-126.099127-65.64571-198.163772-81.4018l-412.313283-90.14522c-238.324158-52.10207-387.3152642-279.18469-356.70487335-522.05699 27.24968925-216.19394 193.75005135-392.479544 417.62879235-421.336769 149.075124-19.212011 290.437438 26.079045 400.013115 128.541237 54.213719 50.701785 104.685857 105.016322 145.944071 167.082882 7.499965 11.28076 12.479405 16.02495 20.74113 25.23327 100.608203 112.14661 200.219403 277.75639 374.684623 266.26279 102.52941-6.74941 191.50399-77.0945 225.62631-173.09854 39.90273-112.26424-14.3726-276.89381-49.3295-385.539693-27.04244-84.034345-54.84665-163.57095-75.73341-248.675118-61.56245-250.859575 80.9425-498.0447823 324.59897-571.8849987 280.56258-85.0201506 573.25728 89.5122887 620.97925 381.9437427 6.27331 38.452028 9.52759 83.255782 4.67137 119.607371-12.74266 95.298297-42.31683 181.293051-70.62514 271.835954-47.4083 151.634859-139.45792 378.157352-21.87817 512.882282 60.45902 69.28646 147.66923 109.92295 239.23715 89.52349 78.5564-17.49805 95.58956-23.72655 157.14641-83.02053 136.79736-131.75071 247.95256-329.264748 395.42575-426.400228 136.10842-89.646717 318.70654-103.526414 464.41537-36.519625 215.59461 99.151901 330.08251 337.537673 269.51146 567.482483-44.43407 168.71282-173.4122 299.61775-345.09364 337.92415l-444.32397 99.1463c-69.4321 15.49283-132.37804 43.56029-186.00924 87.6695-86.94135 71.50453-92.09442 192.85947-11.25275 272.40167 40.49086 39.84112 96.38493 59.64686 153.56167 72.52955 109.99016 24.78517 218.51842 37.8303 331.22515 51.60357 163.47573 19.98497 249.25764 33.07491 375.49119 139.48032 9.52199 8.02648 13.20196 14.29979 21.22844 23.31207 181.11381 203.33925 150.36899 506.02085-58.28577 680.50848-12.78747 10.69263-27.7706-5.67959-32.99089-14.79269-4.33531 11.74005-11.75686 19.50887-12.49061 28.33071 10.46299.42009 11.10712-6.61498 13.54923-8.04328 5.63478-3.29348 11.43759.60493 15.3136 8.85545-16.71389-2.67736-16.91553 9.65082-24.78518 14.91031-163.97423 109.53647-373.04908 109.02677-539.70628 2.40291-64.95116-41.55508-119.36092-91.03581-170.10751-148.9519l-162.13145-185.04023c-43.19062-49.2959-98.27252-86.98617-163.52614-100.43457-123.78025-25.51333-251.40849 41.38704-304.6028 152.8111-21.46368 44.94938-31.19291 89.68032-26.27508 140.46613 16.68588 172.51041 111.08799 318.0456 134.20962 503.52832 19.97377 160.22145-41.87995 317.0654-169.81066 416.46935l-17.29081-56.36456c-21.59811-1.64115-43.15141-6.17249-59.54603-17.31882 5.59557 6.06047-58.80108 31.94907-47.72196 31.23212-8.72102.56572-8.44096-6.39093-9.91967-15.10075-1.26587-7.44396 11.84087-.06722 19.70491-7.83044-13.22436-9.95327-28.87963-3.31029-39.11297 9.23633-9.79644-2.78378-18.215-6.92864-29.2213-12.56342 9.36516 32.86206 36.08834 19.6433 23.73216 48.18686-3.19267 7.37114-9.80205 6.26211-19.47527 5.46674-8.72102-.72255-5.64598 11.86328-13.15154 19.30163-2.21807-13.8741-10.84947-21.5645-24.24747-25.06523 19.1448-31.22092-5.88122.14003-26.3647-28.2355-2.54853-3.53434-6.48615-2.64935-10.27255-3.61835-4.85061-1.24346-3.52313 2.71656-6.7382 8.12169-6.63739 9.71803-23.56972 2.18446-34.24555 5.18669-1.07543 9.23632 7.6736 17.78371-1.05302 13.58283-1.65795-.80097-5.45554-4.64897-9.00108-2.22926 2.10044 7.60078 5.91483 13.9245 18.28222 16.04175-.23525 8.04888-16.51785 11.07911-23.9338 6.43014-5.32111-3.3327-9.64521-11.99771-8.6034-22.93679.90739-5.47794-6.19489-4.43613-8.79943.80657-3.36071 16.12576-32.78925 30.73361-41.41505 20.26503-9.77404-49.60956-64.46946-13.09554-83.78789-31.29373 10.93348-3.3327 29.2157-.80097 32.64921-13.8797 1.14824-4.38012-9.6004-8.69862-12.77626-7.69041-3.17027 1.00821-6.25651 11.71765-10.72624 11.66724-12.429-.14563-22.56151-12.14334-37.86951-2.27408 3.02463 6.18929 10.86067 6.11648 15.21278 12.31697 5.786 8.25613-2.98543 12.69225-7.67921 4.20648-14.09814-20.81954-43.22982 15.24078-74.07546-2.66615.0224-9.62841 8.05448-23.19445.30246-30.1455-13.28037-11.89688-19.97937-23.84978-25.83259-15.75049-1.37789 1.91-8.32334-1.9436-6.39094-4.95143 2.28528-3.56795 10.25014-.27446 15.20158-5.67398-19.16721-21.0324-49.94563-10.18293-66.64272 12.17134-8.1329-7.70721-23.0208-15.46483-38.60886-4.53135-5.90363-6.67099-1.83718-7.79683 4.66578-14.33899-10.62542-6.91185-15.43123.11762-28.26911 21.48608" mask="url(#a)"/><path d="m1991.39608 3987.39073c-.16803 10.81026-4.46413 19.75532-11.82406 20.92597-1.70836-4.59856 1.14824-10.26695 1.42269-14.25498.18484-2.75577-5.54515-3.94322-7.1863-8.90026 1.60754-6.75501 17.6941-4.36331 17.58767 2.22927"/><path d="m1976.61516 3970.61467c-4.97384 4.74979-9.47158 6.36293-11.38158 6.26771-1.82038-.08962-4.03284-1.23226-6.43014-3.95443-.969-1.09783 12.38979-16.24899 17.19559-14.27178 2.8902 1.19305 6.37413 6.45815.61613 11.9585"/><path d="m276.426112 3135.78221c-8.491372 12.55782-18.898345 13.84049-22.449487 8.73222 1.372287-8.51938 17.856528-15.07834 22.449487-8.73222"/><path d="m358.524133 3195.93709c-8.222517-5.97085-12.580227-4.87862-19.58729-5.32111 5.326713-11.92489-2.016421-17.68849-7.197502-28.09547 18.965559 2.27408 21.452479 21.5589 26.784792 33.41658"/><path d="m252.619462 3160.13329c4.833809-5.07466 9.695624-3.62395 11.857676.03921 2.352491 3.98243.436891 9.02349-7.931256 8.87786-3.758385-.06722-12.529816.11762-3.92642-8.91707"/><path d="m494.760816 3191.06687c0 3.42232-2.772578 6.1949-6.194893 6.1949-3.416713 0-6.194893-2.77258-6.194893-6.1949 0-3.42231 2.77818-6.19489 6.194893-6.19489 3.422315 0 6.194893 2.77258 6.194893 6.19489"/><path d="m387.549393 3199.92568c-3.321494 3.85921-13.442807 5.67399-18.573478-3.25428 4.716185-9.19152 6.41894-1.56272 18.573478 3.25428"/><path d="m283.126231 3151.39379c5.853222 3.16466 3.394309 6.15008-3.052637 6.87824-13.011517-.90179-11.359172-7.6456 3.052637-6.87824"/><path d="m1671.24612 3924.85311c0 1.96601-1.59073 3.55675-3.55674 3.55675-1.96041 0-3.55674-1.59074-3.55674-3.55675s1.59633-3.55674 3.55674-3.55674c1.96601 0 3.55674 1.59073 3.55674 3.55674"/><path d="m471.840271 3193.9005c0 1.54593-1.254662 2.80059-2.800585 2.80059-1.545922 0-2.800584-1.25466-2.800584-2.80059 0-1.54592 1.254662-2.80058 2.800584-2.80058 1.545923 0 2.800585 1.25466 2.800585 2.80058"/><path d="m2191.39928 3938.85604c0 1.54592-1.25466 2.80058-2.80058 2.80058-1.54593 0-2.80059-1.25466-2.80059-2.80058 0-1.54593 1.25466-2.80059 2.80059-2.80059 1.54592 0 2.80058 1.25466 2.80058 2.80059"/><path d="m1659.28819 3922.05253c0 1.54592-1.25466 2.80058-2.80059 2.80058-1.54592 0-2.80058-1.25466-2.80058-2.80058s1.25466-2.80059 2.80058-2.80059c1.54593 0 2.80059 1.25467 2.80059 2.80059"/><path d="m1995.35835 3955.65954c0 1.54593-1.25466 2.80059-2.80058 2.80059-1.54593 0-2.80059-1.25466-2.80059-2.80059 0-1.54592 1.25466-2.80058 2.80059-2.80058 1.54592 0 2.80058 1.25466 2.80058 2.80058"/><path d="m1967.3525 4000.4689c0 1.54592-1.25466 2.80058-2.80058 2.80058s-2.80058-1.25466-2.80058-2.80058 1.25466-2.80058 2.80058-2.80058 2.80058 1.25466 2.80058 2.80058"/><path d="m1968.61318 36.962117c0 1.5459227 1.25466 2.8005847 2.80058 2.8005847 1.54593 0 2.80059-1.254662 2.80059-2.8005847 0-1.5459228-1.25466-2.8005847-2.80059-2.8005847-1.54592 0-2.80058 1.2546619-2.80058 2.8005847m6.38533 14.0029235c0 2.6605555 2.15645 4.8170057 4.81701 4.8170057 2.66055 0 4.817-2.1564502 4.817-4.8170057s-2.15645-4.8170057-4.817-4.8170057c-2.66056 0-4.81701 2.1564502-4.81701 4.8170057m-373.1219-.7393544c1.86519 7.2927226 4.83381 14.1429528 8.57539 15.5544475 4.761 1.7867731 13.48202 2.9518163 16.44504-.660938-10.36217-4.9178267-4.69939-16.2209866-8.66501-18.4110438-3.53994-1.9548082-17.38043-.4704983-16.35542 3.5175343m237.29915-3.1814642c-11.79607 8.2505226-18.11419 7.8920477-30.95767 14.4174101 13.34759 10.4125739 27.68098 10.5414008 37.28139 3.2262736l-16.50105-4.7217858c-4.02724-1.1538409 15.13996-9.521988 10.17733-12.9218979m123.1137-.6665391c-15.51524 5.8812278-22.92559 5.7019904-31.1257-3.8143964-6.82222 3.4167133-12.18814 19.7441222-1.83158 23.771363 13.78448 5.3603191 29.10928 3.5623437 39.55546-.9578-6.77182-6.8670337-13.8853-.7785625-19.44726-9.5443927 6.58697-4.4921378 14.33339-1.0026093 12.84908-9.4547739m275.98082 65.8137402c3.92082 11.997705 8.17211 23.009604 17.37483 18.147789 4.62096-2.436508 17.93494-7.634394 7.56718-16.103362-5.29311-4.318501-20.64591-7.007063-24.94201-2.044427m-449.98115 377.950109c35.23696 49.587153 93.01302 77.430566 158.41788 72.081449 80.72965-6.603779 154.2394-81.23376 154.83872-163.419719.62173-85.40103-62.32981-152.306998-136.83657-168.483176-79.5198-17.268405-156.28943 22.533505-192.00808 95.796801-2.33569 4.800202 6.2285 12.591429 1.938 15.576852-34.91209 24.23626-18.96556 102.54621 13.65005 148.447793m1619.06843 361.790735c0 1.96601 1.59073 3.556742 3.55674 3.556742s3.55675-1.590732 3.55675-3.556742c0-1.966011-1.59074-3.556743-3.55675-3.556743s-3.55674 1.590732-3.55674 3.556743m-1381.87011-135.413872c-32.85085-58.985915-98.76542-78.181123-150.81708-46.545718-49.7832 30.257517-67.91978 94.799793-34.03831 146.823454 31.04728 47.665952 91.67434 62.761103 141.54715 35.763467 45.40308-24.577932 71.00603-86.302819 43.30824-136.041203m1440.68239 143.815626c0 1.96601 1.59073 3.556743 3.55674 3.556743s3.55675-1.590733 3.55675-3.556743c0-1.966011-1.59074-3.556743-3.55675-3.556743s-3.55674 1.590732-3.55674 3.556743m-185.07384 193.173129c-70.56353 47.16185-93.94281 145.58-47.4195 217.16294 47.44751 73.00564 138.13044 97.35393 212.45236 59.51243 74.66919-38.00954 104.03052-126.08233 75.59338-206.07823-21.68213-60.98553-138.83619-138.628942-240.62624-70.59714m-2908.816104 24.00661c-51.401931 58.11774-58.941105 133.29663-19.004767 196.73548 44.299649 70.37869 136.640528 93.25947 209.136463 56.39817 72.316699-36.77167 109.11078-125.29256 78.326753-202.33664-20.83635-52.15249-66.911569-86.82933-112.398666-96.17208-59.82049-12.29457-117.484529 1.75877-156.059783 45.37507m346.202681 315.88355c22.326261 45.31346 76.377546 65.29844 122.010273 54.20812 42.193609-10.26134 78.057897-49.18947 79.867075-96.66498 1.803576-47.24586-27.546551-86.60528-63.746909-102.9663-43.498682-19.6545-90.828563-7.71841-120.055465 23.14403-29.490157 31.13691-38.978538 79.85028-18.074974 122.27913m2279.239063-144.43735c-47.30188 24.47711-67.65093 74.75321-56.42058 121.82543 10.63662 44.58531 47.4475 72.75919 99.94727 81.00972 27.64177 4.3465 66.94517-14.92152 87.32223-39.42103 32.99649-39.67869 28.09546-97.52196-2.89581-134.64652-29.56297-35.41619-82.10194-52.49976-127.95311-28.7676m85.54666 1369.26747c59.60204-21.15001 82.73487-88.01117 59.84849-142.86902-21.45808-51.44114-82.28678-78.69083-138.9258-55.74284-49.26229 19.96257-78.25954 80.9705-59.3612 134.12 19.21762 54.06249 80.48881 85.05376 138.43851 64.49186m-2200.273776-180.66571c-42.255222-35.405-103.571224-35.62904-144.090083 4.14486-37.600651 36.91171-43.560295 99.02868-8.855449 142.56657 33.410975 41.91915 91.29346 51.7548 141.138267 26.00623 47.32428-24.44351 74.876432-119.88183 11.807265-172.71766m-546.007596 207.48972c-22.723944 67.94218-2.610145 135.089 44.949385 178.6773 48.943018 44.84856 122.133499 53.60319 183.068621 23.54171 56.476591-27.85461 86.778917-85.42903 87.148595-144.30292.375278-59.22677-28.778809-114.68955-82.017924-144.77903-88.380852-49.95123-200.056968-12.07612-233.148677 86.86294m2876.699002 21.41887c-17.95735 73.47054 17.36922 147.96609 83.28378 180.91217 63.32122 31.65221 141.95604 21.85576 195.4136-35.05212 44.64692-47.53713 57.52961-126.88329 22.32626-189.89645-34.92889-62.51465-97.04026-94.867-168.83605-84.43202-63.95415 9.29794-114.67834 56.81826-132.18759 128.46842m-1197.05953-1601.09428c-3.16466-35.83628-17.06116-64.96796-42.47926-78.046695-28.29711-14.557439-61.57366-18.371836-88.64411.520909-27.36171 19.094386-40.99496 50.236886-44.22123 83.933526-11.80727 123.39936-61.89853 238.14492-158.19943 317.68152-106.72469 88.14561-245.60568 113.9838-380.85152 88.40886-94.31809-17.83972-154.04896-72.41752-212.2059-82.06833-40.95575-6.79422-79.85027 17.03315-92.81138 49.87281-15.072746 38.21118-1.652345 82.98132 35.40499 102.22134l135.86197 70.55793c12.82668 6.65979 24.81878 12.74266 36.82209 19.77773 97.81322 57.32797 145.74242 162.8596 147.12031 273.4883 1.54592 123.98749-59.78128 235.59079-168.6008 295.0472l-136.94299 74.83162c-39.35382 21.50289-67.807757 62.31301-56.639025 109.16119 8.345742 35.02412 45.795165 58.99152 81.211355 56.39258 36.51962-2.68296 65.29843-19.1448 93.68516-39.15778 197.03234-138.8978 467.98331-91.11422 601.71683 109.2116 42.75372 64.04378 69.9362 132.97177 74.00825 211.02406l5.49474 105.3804c2.47012 47.4083 35.23696 82.89171 81.13855 85.89954 41.45985 2.72217 83.23897-27.7874 87.28302-73.07846l13.16275-147.41718c12.21615-136.84217 98.81583-250.70834 206.71115-311.86191 129.23579-73.24089 280.69141-82.92531 401.46382-12.78747l110.35984 64.08858c24.92521 14.47903 56.77346 14.05894 81.69306.59373 21.0716-11.39278 42.08719-33.9879 43.92437-63.62929 2.3805-38.35121-20.78034-71.40931-52.99827-89.51229l-136.23724-76.55678c-178.41405-100.24973-227.72674-318.07361-117.26608-485.41415 37.69027-57.09832 90.11721-91.13102 149.23195-120.36913l104.8819-51.87243c35.99872-17.80611 59.378-59.45081 45.56551-99.12949-17.99095-51.6988-77.69382-72.34471-125.42698-49.53674-102.08692 48.78618-134.24323 75.38053-252.68556 83.56944-256.2759 17.7165-447.66226-162.3779-470.53184-421.22474m-183.80237 2032.65318c-16.12017 42.59129-7.69041 88.37525 23.22805 117.57975 47.85079 45.19583 123.47218 37.14695 161.16805-15.3192 36.4356-50.71859 20.47787-124.44118-36.81089-155.06838-52.44375-28.03945-123.75784-10.13811-147.58521 52.80783m-61.45043 350.07869c-11.10712 31.65781-13.07873 55.89407-7.81363 88.59369 11.31436 70.28908 74.78681 121.47817 143.18829 131.33062 71.03403 10.22774 143.81563-23.5025 176.67209-89.49548 47.55393-95.51114-9.1131-206.47591-109.77732-232.93583-85.58027-22.4999-172.34798 17.2516-202.26943 102.507m544.5849-3365.1097716c191.22392 234.7618136 64.07738 484.4619466-24.71796 734.2236916-40.92215 115.104031-34.78887 230.56654 52.64539 320.59413 89.70273 92.35769 226.79135 111.68732 338.41705 45.77276 47.17865-27.86022 82.27558-63.55087 118.2911-105.32439 77.84505-90.29085 154.88354-181.416276 249.29125-252.399896l68.4911-51.502752c13.80128 3.887211 33.33816 9.264334 43.71152 10.939083-.969 13.644449 3.66877 21.178022 14.01973 27.910628 11.45439 7.449555 20.34905 13.498818 37.32059 5.276301 3.93762 7.270318 1.69156 11.913688 2.17886 19.92336 15.95773 2.01082 24.85239 14.019727 37.95912 21.827757 16.72509 9.958879 13.8909-25.171655 34.492-27.871419 5.91484-.772961 8.68182 7.897649 12.4458 15.011134 8.39055 2.016421 14.72548-3.651962 25.75418-3.500731-4.7946-12.686649-18.37744-17.049959-30.72802-23.188841 16.86513-9.902868 25.26688 11.023101 37.58385 9.561196l6.85583-26.420716c1.4171-5.46114 14.15976-9.163513 24.4043-2.49252-11.26395 12.221751-20.38266 17.10037-30.39755 32.873263 41.72871 12.294567 36.12754-26.96403 59.10354-14.843099 10.68143 5.629175-7.48316 31.444965 11.0063 20.701922 2.48132-1.439501 9.15791-4.35771 9.76844-8.805038.39768-2.901406-7.98167-5.270701-8.6146-9.454774-.70015-4.615364 3.76399-11.874479 7.60079-12.322573 6.39653-.744956 16.25459-5.612372 21.5813 4.385716-3.3775 1.842784-8.95627 3.988032-9.65641 7.544775-1.54593 7.841637 12.56342 28.487548 14.35019 29.142884 5.79721 2.117242 9.15231-4.486536 13.10114-8.592194.53771-.554515-35.83068-53.40715 42.03677 16.181779 6.10528-11.454392-14.49022-25.154852-11.70644-30.60479 2.62695-5.141873 3.13665-12.092925 8.09929-15.044741.27446 14.675064 5.21469 28.846023 16.25459 31.781035 14.67507 3.898414 29.12609 1.596334 33.81426-16.557056 10.59182 5.920436 20.78594 14.361398 25.63656 22.998401-5.48915 12.003306-2.3805 21.642919 6.01005 38.7937 4.15607-4.721786 9.99249-9.325947 20.67392-8.250523-1.52912 5.192284-13.97492 6.547767-11.34797 12.821077 1.02501 2.453312 9.91407 5.371521 11.71764 2.559734 23.76017-37.07414 28.86843-13.302777 53.96727-39.432232 1.20425 13.907703 18.03017 17.296411 20.36585 26.112651 6.10528 23.065616 21.37967 53.552781 43.43707 54.779437-7.89204 6.99026-14.74788.436891-18.24301 7.836036 9.96448 2.991025 15.46483 4.850613 17.32442 15.380812 10.64222 7.046271 10.22214 1.82038 7.03507-12.580227 13.02272 15.784095 28.66118 31.1313 48.90381 30.694408 3.8368-13.806882.40889-23.995409-2.30208-20.673916-1.86519 2.279676-4.52575 11.762456-10.73744 12.025711-5.76361-28.453941-36.8557-74.153882-6.17809-69.527316 5.37152.806568 8.99548 6.547767 14.15415 12.675446 2.83419 3.371904 14.3502-2.055629 18.15339 3.691171 49.90082 75.369336 79.52541 159.493297 82.57244 248.725527 7.6624 224.37725-141.12146 420.81026-360.92255 467.84328-71.80139 15.36401-141.99525 24.98121-216.0035 28.34752-15.42562.70014-26.40951 2.66055-41.32543 5.15307-98.34533 16.41143-196.27617 24.12984-289.7765 55.94448-97.52196 33.18693-158.71473 106.55665-151.03553 206.14544 4.2961 55.75964 37.02373 105.48122 89.20422 139.8612 60.07815 39.58347 126.09913 65.64571 198.16378 81.4018l412.31328 90.13962c238.32416 52.10768 387.31526 279.18469 356.70487 522.06259-27.24969 216.19394-193.75005 392.47955-417.62879 421.33677-149.07512 19.21201-290.43744-26.07904-400.01311-128.54124-54.21372-50.70178-104.68586-105.01632-145.94407-167.08288-7.49997-11.28076-12.47941-16.02495-20.74113-25.23327-100.60821-112.14661-200.21941-277.75639-374.68463-266.26279-102.52941 6.74941-191.50398 77.0945-225.62631 173.09854-39.90273 112.26424 14.3726 276.89381 49.3295 385.53969 27.04245 84.03435 54.84665 163.57095 75.73341 248.67512 61.56246 250.85958-80.9425 498.04478-324.59897 571.885-280.56257 85.02015-573.25728-89.51229-620.97925-381.94374-6.27331-38.45203-9.52758-83.25578-4.67137-119.60737 12.74266-95.2983 42.31683-181.29305 70.62514-271.83596 47.4083-151.63486 139.45792-378.15735 21.87817-512.88228-60.45902-69.28646-147.66923-109.92295-239.24275-89.52349-78.5508 17.49806-95.58395 23.72656-157.14081 83.02054-136.79736 131.7507-247.952563 329.26474-395.425752 426.40022-136.108417 89.64672-318.70654 103.52641-464.415361 36.51962-215.5946121-99.1519-330.082515-337.53767-269.5114689-567.48248 44.4340769-168.71282 173.4122049-299.61775 345.0936489-337.92415l444.323966-99.1463c69.432096-15.49283 132.378038-43.56029 186.009235-87.6695 86.941352-71.50453 92.088822-192.85947 11.252752-272.40167-40.490856-39.84112-96.384926-59.64686-153.561663-72.52955-109.990164-24.78517-218.518423-37.83029-331.225153-51.60357-163.475731-19.98497-249.257641-33.07491-375.491196-139.48032-9.521988-8.02648-13.201956-14.29979-21.228432-23.31207-181.1138128-203.33925-150.3689939-506.020845 58.285769-680.508475 12.78747-10.692632 27.770598 5.679586 32.990888 14.792689 4.335305-11.740051 11.756855-19.508873 12.490608-28.330715-10.462985-.420088-11.107119 6.614981-13.549229 8.043279-5.634776 3.293488-11.437588-.604926-15.313597-8.855449 16.713889 2.677359 16.915531-9.650815 24.785174-14.910313 163.974235-109.536469 373.043485-109.026762 539.706281-2.402901 64.95116 41.555076 119.36092 91.035806 170.107515 148.951898l162.131445 185.040237c43.19062 49.29589 98.27252 86.98616 163.52615 100.43456 123.78024 25.51333 251.40848-41.39264 304.60279-152.8111 21.46368-44.94938 31.19291-89.680323 26.27509-140.466126-16.68589-172.510417-111.088-318.045602-134.20962-503.528327-19.97377-160.221451 41.87994-317.065397 169.81065-416.46935058l17.29081 56.36456778c21.59811 1.6411427 43.15141 6.1724887 59.54603 17.3188159-5.59557-6.0604653 58.80108-31.9490704 47.72196-31.2321207 8.72103-.5657181 8.44097 6.3909343 9.91968 15.1007528 1.26586 7.4439541-11.84088.067214-19.70492 7.8304348 13.22436 9.953278 28.87963 3.3102911 39.11297-9.2363284 9.79644 2.7837812 18.215 6.9286466 29.2213 12.563423-9.36516-32.8620609-36.08834-19.6433011-23.73216-48.1868604 3.19267-7.371139 9.80205-6.2621075 19.47527-5.4667414 8.72102.7225509 5.64598-11.86327682 13.15155-19.3016298 2.21806 13.8740966 10.84946 21.5645022 24.24746 25.0652331-19.1448 31.2209184 5.88123-.1400292 26.3647 28.2354951 2.54853 3.5343379 6.48616 2.6493531 10.27255 3.6183554 4.85061 1.2434596 3.52313-2.7165672 6.7382-8.1216957 6.63739-9.7180289 23.56972-2.184456 34.24555-5.1866828 1.07543-9.2363284-7.6736-17.7837129 1.05302-13.5828359 1.65795.8009673 5.45554 4.6489706 9.00108 2.2292655-2.10044-7.6007869-5.91483-13.9245072-18.28221-16.0417492.23525-8.04888049 16.51784-11.07911315 23.93379-6.43014253 5.32111 3.33269583 9.64522 11.99770493 8.6034 22.93118763-.90739 5.4835448 6.19489 4.4361261 8.79944-.8009673 3.3607-16.1257667 32.78924-30.73361655 41.41504-20.2650309 9.77404 49.6095575 64.46946 13.0955341 83.7879 31.2937335-10.93349 3.3326958-29.2157.8009672-32.64922 13.8796978-1.14824 4.3801145 9.6004 8.6986161 12.77627 7.6904056 3.17026-1.0082105 6.2565-11.7176464 10.72624-11.6672359 12.42899.1456304 22.56151 12.1433353 37.8695 2.2740748-3.02463-6.1892922-10.86066-6.116477-15.21277-12.3169715-5.78601-8.2561237 2.98542-12.6922499 7.6792-4.2064783 14.09814 20.8195468 43.22983-15.2407819 74.07547 2.6661567-.02241 9.6284102-8.05449 23.1944425-.30247 30.1454938 13.28038 11.8968838 19.97937 23.8497793 25.8326 15.7504884 1.37788-1.9099988 8.32333 1.9436058 6.39093 4.9514337-2.28528 3.5679449-10.25014.2744573-15.20157 5.6739846 19.1672 21.0323914 49.94562 10.1829264 66.64271-12.1713411 8.1329 7.7072091 23.02081 15.4648285 38.60886 4.5313461 5.90363 6.6709927 1.83718 7.7968278-4.66577 14.3389934 10.62542 6.911843 15.43122-.117624 28.2691-21.4860856" mask="url(#b)" transform="translate(3.3177 101.7772)"/><path d="m1875.07212 112.609271c.16803-10.810257 4.46413-19.7553249 11.82407-20.9259693 1.70835 4.5985601-1.14824 10.2669433-1.4227 14.2549763-.18484 2.755775 5.54516 3.943223 7.1863 8.900258-1.60754 6.75501-17.69409 4.363311-17.58767-2.229265"/><path d="m1889.85248 129.385333c4.97384-4.749792 9.47158-6.362928 11.38158-6.267708 1.82038.089618 4.03284 1.232257 6.43014 3.948824.96901 1.10343-12.38978 16.254594-17.19559 14.277381-2.8902-1.193049-6.37413-6.458149-.61613-11.958497"/><path d="m3590.04209 964.21723c8.49137-12.557822 18.89835-13.84049 22.44949-8.732223-1.37229 8.519378-17.85653 15.078348-22.44949 8.732223"/><path d="m3507.94407 904.062911c8.22252 5.970846 12.58023 4.878618 19.58729 5.326712-5.32671 11.919288 2.01642 17.682892 7.1975 28.089864-18.96556-2.274074-21.45248-21.558901-26.78479-33.416576"/><path d="m3613.84874 939.866146c-4.83381 5.074659-9.69562 3.623956-11.85767-.039208-2.3525-3.982432-.4369-9.023484 7.93125-8.877854 3.75839.067214 12.52982-.117625 3.92642 8.917062"/><path d="m3371.70683 908.933128c0-3.422315 2.77258-6.194894 6.19489-6.194894 3.41671 0 6.19489 2.772579 6.19489 6.194894 0 3.422314-2.77818 6.194893-6.19489 6.194893-3.42231 0-6.19489-2.772579-6.19489-6.194893"/><path d="m3478.91825 900.074318c3.32149-3.859206 13.44281-5.673985 18.57348 3.254279-4.71619 9.191519-6.41894 1.562727-18.57348-3.254279"/><path d="m3583.34197 948.60621c-5.85322-3.16466-3.39431-6.150084 3.05264-6.878236 13.01152.901789 11.35917 7.645597-3.05264 6.878236"/><path d="m2195.22208 175.146887c0-1.96601 1.59073-3.556742 3.55674-3.556742 1.96041 0 3.55674 1.590732 3.55674 3.556742 0 1.966011-1.59633 3.556743-3.55674 3.556743-1.96601 0-3.55674-1.590732-3.55674-3.556743"/><path d="m3394.62737 906.099496c0-1.545923 1.25466-2.800585 2.80059-2.800585 1.54592 0 2.80058 1.254662 2.80058 2.800585s-1.25466 2.800585-2.80058 2.800585c-1.54593 0-2.80059-1.254662-2.80059-2.800585"/><path d="m1675.06892 161.143964c0-1.545923 1.25466-2.800585 2.80059-2.800585 1.54592 0 2.80058 1.254662 2.80058 2.800585 0 1.545922-1.25466 2.800584-2.80058 2.800584-1.54593 0-2.80059-1.254662-2.80059-2.800584"/><path d="m2207.18002 177.947472c0-1.545923 1.25466-2.800585 2.80058-2.800585s2.80059 1.254662 2.80059 2.800585-1.25467 2.800585-2.80059 2.800585-2.80058-1.254662-2.80058-2.800585"/><path d="m1871.10985 144.340455c0-1.545922 1.25466-2.800584 2.80059-2.800584 1.54592 0 2.80058 1.254662 2.80058 2.800584 0 1.545923-1.25466 2.800585-2.80058 2.800585-1.54593 0-2.80059-1.254662-2.80059-2.800585"/><path d="m1899.1157 99.5311002c0-1.5459228 1.25466-2.8005848 2.80058-2.8005848 1.54593 0 2.80059 1.254662 2.80059 2.8005848s-1.25466 2.8005848-2.80059 2.8005848c-1.54592 0-2.80058-1.254662-2.80058-2.8005848"/></g></svg>