<svg height="1600" viewBox="0 0 2880 1600" width="2880" xmlns="http://www.w3.org/2000/svg" xmlns:xlink="http://www.w3.org/1999/xlink"><linearGradient id="a" x1="50%" x2="50%" y1="0%" y2="100%"><stop offset="0" stop-color="#fff"/><stop offset="1" stop-color="#fff"/></linearGradient><mask id="b" fill="#fff"><path d="m0 0h799.203616v780.14104h-799.203616z" fill="#fff" fill-rule="evenodd"/></mask><mask id="c" fill="#fff"><path d="m0 0h799.203939v800h-799.203939z" fill="#fff" fill-rule="evenodd"/></mask><g fill="none" fill-rule="evenodd"><path d="m0 0h2880v1600h-2880z" fill="url(#a)"/><g fill="#000" fill-rule="nonzero" transform="translate(998 701)"><path d="m28.5708008 182v-52.031738h17.8178711v-8.620117h-45.63330081v8.620117h17.81787111v52.031738z"/><path d="m52.8582699 182h9.8642579v-27.993164c0-6.17627 3.3769531-11.108398 10.3530273-11.108398 5.8652344 0 10.2197266 3.376953 10.2197266 10.930664v28.170898h9.8198242v-30.17041c0-11.463867-6.9316406-17.506836-16.4848633-17.506836-7.6870117 0-11.9526367 4.176758-13.5522461 7.287109h-.3554687v-23.460937h-9.8642579z"/><path d="m122.956774 182.799805c11.597168 0 17.729004-6.709473 19.150879-14.307617h-9.375488c-1.199707 4.043457-4.621094 6.531738-9.64209 6.531738-6.709473 0-10.975098-5.243164-10.975098-13.152344v-1.11084h30.525879v-4.487793c0-13.241211-7.553711-22.039062-20.083984-22.039062-12.352539 0-20.172852 8.486816-20.172852 21.594726v4.754395c0 13.907715 7.998047 22.216797 20.572754 22.216797zm-10.841797-28.92627v-.088867c0-6.665039 4.132325-11.908203 10.486329-11.908203 6.265136 0 10.39746 5.243164 10.39746 11.908203v.088867z"/><path d="m173.131322 182h9.775391v-39.057129h9.020019v-7.90918h-9.15332v-3.865722c0-4.976563 2.35498-6.487305 7.064941-6.487305 1.288574 0 1.999512.088867 2.666016.177734v-7.42041c-.844238-.088867-2.177246-.266601-4.354492-.266601-10.308594 0-15.018555 3.95459-15.018555 13.196777v4.665527h-6.576172v7.90918h6.576172z"/><path d="m213.459318 182.710938c6.931641 0 11.063965-2.888184 13.107911-6.487305h.355468v5.776367h9.375489v-31.992187c0-10.486329-7.775879-15.685059-18.217774-15.685059-12.530273 0-17.862304 6.665039-18.262207 14.663086h9.242188c.355468-4.176758 3.421386-6.976074 8.797851-6.976074 5.509766 0 8.708985 2.97705 8.708985 8.353515v4.487793h-11.908204c-10.797363 0-16.57373 5.287598-16.57373 13.641114 0 8.753417 6.265137 14.21875 15.374023 14.21875zm2.977051-7.509278c-4.354492 0-8.442383-2.35498-8.442383-7.242676 0-3.910156 2.621582-6.620605 8.353516-6.620605h10.219727v5.19873c0 5.109864-4.398926 8.664551-10.13086 8.664551z"/><path d="m246.011436 148.763672c0 8.575683 6.976074 11.508301 15.551758 13.330078 6.265137 1.244141 11.730469 2.043945 11.730469 6.931641 0 3.46582-2.888184 6.442871-9.153321 6.442871-5.554199 0-8.886718-2.577149-9.419922-6.398438h-9.597656c0 8.397949 7.109375 13.729981 18.395508 13.729981 11.819336 0 19.373047-5.509766 19.373047-15.018555 0-8.886719-6.842774-11.597168-15.551758-13.152344-5.332031-.977539-11.863769-1.910644-11.863769-6.842773 0-3.95459 3.421386-6.220703 8.442382-6.220703 6.398438 0 8.442383 3.643554 8.753418 6.93164h8.886719c0-8.309082-6.265137-14.263183-17.373535-14.263183-9.508789 0-18.17334 4.354492-18.17334 14.529785z"/><path d="m295.226151 135.033691h-6.620605v7.90918h6.487305v25.860352c0 9.419922 3.154785 13.507812 14.574218 13.507812 1.999512 0 3.865723-.177734 4.665528-.311035v-7.553711c-.577637.088867-1.377442.088867-2.22168.088867-5.287598 0-7.198242-1.421875-7.198242-6.531738v-25.060547h9.15332v-7.90918h-9.15332v-11.419433h-9.686524z"/><path d="m342.085886 182.799805c11.597168 0 17.729004-6.709473 19.150879-14.307617h-9.375488c-1.199707 4.043457-4.621094 6.531738-9.64209 6.531738-6.709473 0-10.975098-5.243164-10.975098-13.152344v-1.11084h30.525879v-4.487793c0-13.241211-7.553711-22.039062-20.083984-22.039062-12.352539 0-20.172852 8.486816-20.172852 21.594726v4.754395c0 13.907715 7.998047 22.216797 20.572754 22.216797zm-10.841797-28.92627v-.088867c0-6.665039 4.132324-11.908203 10.486328-11.908203 6.265137 0 10.397461 5.243164 10.397461 11.908203v.088867z"/><path d="m369.839176 148.763672c0 8.575683 6.976074 11.508301 15.551757 13.330078 6.265137 1.244141 11.730469 2.043945 11.730469 6.931641 0 3.46582-2.888183 6.442871-9.15332 6.442871-5.554199 0-8.886719-2.577149-9.419922-6.398438h-9.597656c0 8.397949 7.109375 13.729981 18.395508 13.729981 11.819335 0 19.373046-5.509766 19.373046-15.018555 0-8.886719-6.842773-11.597168-15.551757-13.152344-5.332032-.977539-11.86377-1.910644-11.86377-6.842773 0-3.95459 3.421387-6.220703 8.442383-6.220703 6.398437 0 8.442383 3.643554 8.753418 6.93164h8.886719c0-8.309082-6.265137-14.263183-17.373536-14.263183-9.508789 0-18.173339 4.354492-18.173339 14.529785z"/><path d="m419.053891 135.033691h-6.620606v7.90918h6.487305v25.860352c0 9.419922 3.154785 13.507812 14.574219 13.507812 1.999512 0 3.865722-.177734 4.665527-.311035v-7.553711c-.577637.088867-1.377441.088867-2.22168.088867-5.287597 0-7.198242-1.421875-7.198242-6.531738v-25.060547h9.153321v-7.90918h-9.153321v-11.419433h-9.686523z"/><path d="m488.468185 121.348145h-23.194336v60.651855h9.997558v-23.327637h12.574707l10.886231 23.327637h11.330566l-12.263672-25.016113c4.932129-1.821778 11.108399-6.976074 11.108399-16.973633 0-10.130859-6.442871-18.662109-20.439453-18.662109zm-13.196778 29.326171v-21.061523h11.819336c6.79834 0 11.463867 3.599121 11.463867 10.75293 0 6.665039-4.221191 10.308593-11.730468 10.308593z"/><path d="m558.477822 135.033691h-9.864258v28.393067c0 6.976074-4.354492 10.75293-10.26416 10.75293-5.287598 0-9.997559-2.399415-9.997559-10.619629v-28.526368h-9.864258v31.236817c0 10.88623 6.665039 16.44043 16.307129 16.44043 7.642578 0 11.997071-3.554688 13.552246-7.242676h.444336v6.531738h9.686524z"/><path d="m568.590975 148.763672c0 8.575683 6.976074 11.508301 15.551757 13.330078 6.265137 1.244141 11.730469 2.043945 11.730469 6.931641 0 3.46582-2.888184 6.442871-9.15332 6.442871-5.554199 0-8.886719-2.577149-9.419922-6.398438h-9.597656c0 8.397949 7.109375 13.729981 18.395507 13.729981 11.819336 0 19.373047-5.509766 19.373047-15.018555 0-8.886719-6.842773-11.597168-15.551757-13.152344-5.332032-.977539-11.86377-1.910644-11.86377-6.842773 0-3.95459 3.421387-6.220703 8.442383-6.220703 6.398437 0 8.442383 3.643554 8.753418 6.93164h8.886719c0-8.309082-6.265137-14.263183-17.373536-14.263183-9.508789 0-18.173339 4.354492-18.173339 14.529785z"/><path d="m617.80569 135.033691h-6.620606v7.90918h6.487305v25.860352c0 9.419922 3.154785 13.507812 14.574219 13.507812 1.999511 0 3.865722-.177734 4.665527-.311035v-7.553711c-.577637.088867-1.377441.088867-2.22168.088867-5.287597 0-7.198242-1.421875-7.198242-6.531738v-25.060547h9.153321v-7.90918h-9.153321v-11.419433h-9.686523z"/><path d="m667.864643 161.516113v-8.797851h-27.993164v8.797851z"/><path d="m700.861097 182.666504c11.063965 0 18.262207-8.175781 18.262207-21.994629v-4.354492c0-14.21875-7.42041-21.905762-18.217774-21.905762-6.087402 0-11.375 3.065918-13.596679 7.287109h-.399903v-23.549804h-9.864257v63.851074h9.597656v-7.153809h.399902c2.532715 4.798829 7.109375 7.820313 13.818848 7.820313zm-2.443848-8.131348c-7.153808 0-11.597168-4.976562-11.597168-14.352051v-3.376953c0-9.331054 4.44336-14.263183 11.597168-14.263183 6.30957 0 10.664063 4.976562 10.664063 14.263183v3.465821c0 9.242187-4.354493 14.263183-10.664063 14.263183z"/><path d="m741.944464 182.710938c6.931641 0 11.063965-2.888184 13.107911-6.487305h.355468v5.776367h9.375489v-31.992187c0-10.486329-7.775879-15.685059-18.217774-15.685059-12.530273 0-17.862305 6.665039-18.262207 14.663086h9.242188c.355468-4.176758 3.421386-6.976074 8.797851-6.976074 5.509766 0 8.708985 2.97705 8.708985 8.353515v4.487793h-11.908204c-10.797363 0-16.57373 5.287598-16.57373 13.641114 0 8.753417 6.265137 14.21875 15.374023 14.21875zm2.977051-7.509278c-4.354492 0-8.442383-2.35498-8.442383-7.242676 0-3.910156 2.621582-6.620605 8.353516-6.620605h10.219727v5.19873c0 5.109864-4.398926 8.664551-10.13086 8.664551z"/><path d="m774.496582 148.763672c0 8.575683 6.976074 11.508301 15.551758 13.330078 6.265137 1.244141 11.730469 2.043945 11.730469 6.931641 0 3.46582-2.888184 6.442871-9.153321 6.442871-5.554199 0-8.886718-2.577149-9.419922-6.398438h-9.597656c0 8.397949 7.109375 13.729981 18.395508 13.729981 11.819336 0 19.373047-5.509766 19.373047-15.018555 0-8.886719-6.842774-11.597168-15.551758-13.152344-5.332031-.977539-11.863769-1.910644-11.863769-6.842773 0-3.95459 3.421386-6.220703 8.442382-6.220703 6.398438 0 8.442383 3.643554 8.753418 6.93164h8.886719c0-8.309082-6.265137-14.263183-17.373535-14.263183-9.508789 0-18.17334 4.354492-18.17334 14.529785z"/><path d="m839.263055 182.799805c11.597168 0 17.729004-6.709473 19.150879-14.307617h-9.375488c-1.199707 4.043457-4.621094 6.531738-9.64209 6.531738-6.709473 0-10.975098-5.243164-10.975098-13.152344v-1.11084h30.525879v-4.487793c0-13.241211-7.553711-22.039062-20.083984-22.039062-12.352539 0-20.172852 8.486816-20.172852 21.594726v4.754395c0 13.907715 7.998047 22.216797 20.572754 22.216797zm-10.841797-28.92627v-.088867c0-6.665039 4.132324-11.908203 10.486328-11.908203 6.265137 0 10.397461 5.243164 10.397461 11.908203v.088867z"/><path d="m885.234118 134.411621c-11.508301 0-18.351074 8.931152-18.351074 22.039063v4.08789c0 13.374512 6.531738 22.083496 18.351074 22.083496 6.30957 0 11.241699-2.97705 13.641113-7.775879h.355469v7.153809h9.597656v-63.851074h-9.864258v23.594238h-.355468c-2.22168-4.265625-7.109375-7.331543-13.374512-7.331543zm2.488281 8.131348c6.976074 0 11.330567 5.465332 11.330567 14.263183v3.510254c0 9.153321-4.310059 14.21875-11.2417 14.21875-6.30957 0-10.88623-4.709961-10.88623-14.263183v-3.465821c0-9.553222 4.57666-14.263183 10.797363-14.263183z"/><path d="m934.608861 165.159668c.222168 8.175781 5.865234 18.040039 22.75 18.040039 13.72998 0 23.37207-6.709473 23.37207-18.617676 0-10.308593-6.93164-14.618652-16.040527-16.840332l-9.908691-2.443847c-5.643067-1.288575-8.39795-4.132325-8.39795-8.086914 0-5.643067 4.709961-8.931153 11.641602-8.931153 7.864746 0 11.819336 4.265625 12.263672 9.419922h9.686523c-.222168-11.330566-10.041992-17.68457-21.816894-17.68457-11.774903 0-21.905762 6.354004-21.905762 17.951172 0 9.864257 7.020508 14.529785 14.84082 16.351562l9.953125 2.488281c6.487305 1.555176 9.597657 4.043457 9.597657 8.664551 0 5.731934-4.665528 9.419922-12.530274 9.419922-8.575683 0-13.196777-4.487793-13.641113-9.730957z"/><path d="m994.398772 135.033691h-6.620606v7.90918h6.487305v25.860352c0 9.419922 3.154785 13.507812 14.574219 13.507812 1.99951 0 3.86572-.177734 4.66553-.311035v-7.553711c-.57764.088867-1.37744.088867-2.22168.088867-5.2876 0-7.19824-1.421875-7.19824-6.531738v-25.060547h9.15332v-7.90918h-9.15332v-11.419433h-9.686528z"/><path d="m1035.43771 182.710938c6.93164 0 11.06396-2.888184 13.10791-6.487305h.35546v5.776367h9.37549v-31.992187c0-10.486329-7.77588-15.685059-18.21777-15.685059-12.53027 0-17.86231 6.665039-18.26221 14.663086h9.24219c.35547-4.176758 3.42139-6.976074 8.79785-6.976074 5.50977 0 8.70899 2.97705 8.70899 8.353515v4.487793h-11.90821c-10.79736 0-16.57373 5.287598-16.57373 13.641114 0 8.753417 6.26514 14.21875 15.37403 14.21875zm2.97705-7.509278c-4.3545 0-8.44239-2.35498-8.44239-7.242676 0-3.910156 2.62159-6.620605 8.35352-6.620605h10.21973v5.19873c0 5.109864-4.39893 8.664551-10.13086 8.664551z"/><path d="m1072.92195 135.033691h-6.6206v7.90918h6.4873v25.860352c0 9.419922 3.15479 13.507812 14.57422 13.507812 1.99951 0 3.86572-.177734 4.66553-.311035v-7.553711c-.57764.088867-1.37744.088867-2.22168.088867-5.2876 0-7.19824-1.421875-7.19824-6.531738v-25.060547h9.15332v-7.90918h-9.15332v-11.419433h-9.68653z"/><path d="m1101.43061 123.569824c0 3.243653 2.66602 5.554199 5.86524 5.554199s5.8208-2.310546 5.8208-5.554199c0-3.243652-2.62158-5.598633-5.8208-5.598633s-5.86524 2.354981-5.86524 5.598633zm.93311 58.430176h9.86426v-46.966309h-9.86426z"/><path d="m1122.60773 160.405273c0 13.152344 7.50928 22.394532 20.26172 22.394532 10.93066 0 17.729-5.598633 18.97314-14.974121h-9.33105c-.66651 3.643554-3.59912 6.798339-9.06445 6.798339-6.70948 0-10.93067-5.509765-10.93067-14.21875v-3.999023c0-8.664551 4.04346-13.996582 10.88623-13.996582 4.66553 0 8.04248 3.46582 8.84229 7.42041h9.33105c-.35547-8.220215-7.28711-15.596191-18.70654-15.596191-12.70801 0-20.26172 9.108886-20.26172 21.950195z"/><path d="m1184.64605 165.159668c.22217 8.175781 5.86523 18.040039 22.75 18.040039 13.72998 0 23.37207-6.709473 23.37207-18.617676 0-10.308593-6.93164-14.618652-16.04053-16.840332l-9.90869-2.443847c-5.64307-1.288575-8.39795-4.132325-8.39795-8.086914 0-5.643067 4.70996-8.931153 11.6416-8.931153 7.86475 0 11.81934 4.265625 12.26367 9.419922h9.68653c-.22217-11.330566-10.042-17.68457-21.8169-17.68457s-21.90576 6.354004-21.90576 17.951172c0 9.864257 7.02051 14.529785 14.84082 16.351562l9.95313 2.488281c6.4873 1.555176 9.59765 4.043457 9.59765 8.664551 0 5.731934-4.66553 9.419922-12.53027 9.419922-8.57569 0-13.19678-4.487793-13.64111-9.730957z"/><path d="m1239.63713 123.569824c0 3.243653 2.66602 5.554199 5.86523 5.554199 3.19922 0 5.82081-2.310546 5.82081-5.554199 0-3.243652-2.62159-5.598633-5.82081-5.598633-3.19921 0-5.86523 2.354981-5.86523 5.598633zm.93311 58.430176h9.86425v-46.966309h-9.86425z"/><path d="m1265.83524 135.033691h-6.6206v7.90918h6.4873v25.860352c0 9.419922 3.15479 13.507812 14.57422 13.507812 1.99951 0 3.86572-.177734 4.66553-.311035v-7.553711c-.57764.088867-1.37744.088867-2.22168.088867-5.2876 0-7.19824-1.421875-7.19824-6.531738v-25.060547h9.15332v-7.90918h-9.15332v-11.419433h-9.68653z"/><path d="m1312.69498 182.799805c11.59717 0 17.729-6.709473 19.15088-14.307617h-9.37549c-1.19971 4.043457-4.62109 6.531738-9.64209 6.531738-6.70947 0-10.9751-5.243164-10.9751-13.152344v-1.11084h30.52588v-4.487793c0-13.241211-7.55371-22.039062-20.08398-22.039062-12.35254 0-20.17286 8.486816-20.17286 21.594726v4.754395c0 13.907715 7.99805 22.216797 20.57276 22.216797zm-10.8418-28.92627v-.088867c0-6.665039 4.13233-11.908203 10.48633-11.908203 6.26514 0 10.39746 5.243164 10.39746 11.908203v.088867z"/><path d="m1406.05898 140.321289c-.62207-11.508301-9.33106-20.172851-23.37207-20.172851-15.81836 0-25.01611 10.441894-25.01611 26.882324v8.486816c0 16.973633 8.35351 27.682129 25.14941 27.682129 14.44092 0 23.37207-9.464355 23.37207-21.105957v-12.263672h-23.59424v7.953613h13.95215v4.754395c0 6.931641-5.37646 12.041504-13.59668 12.041504-10.26416 0-15.19629-7.28711-15.19629-19.106445v-8.39795c0-11.552734 5.46533-18.30664 14.88526-18.30664 7.77587 0 12.708 4.532226 13.55224 11.552734z"/><path d="m1435.05641 182.799805c11.59717 0 17.729-6.709473 19.15088-14.307617h-9.37549c-1.19971 4.043457-4.62109 6.531738-9.64209 6.531738-6.70947 0-10.9751-5.243164-10.9751-13.152344v-1.11084h30.52588v-4.487793c0-13.241211-7.55371-22.039062-20.08398-22.039062-12.35254 0-20.17285 8.486816-20.17285 21.594726v4.754395c0 13.907715 7.99804 22.216797 20.57275 22.216797zm-10.8418-28.92627v-.088867c0-6.665039 4.13233-11.908203 10.48633-11.908203 6.26514 0 10.39746 5.243164 10.39746 11.908203v.088867z"/><path d="m1464.54261 182h9.81982v-27.993164c0-6.17627 3.37696-11.108398 10.3086-11.108398 5.86523 0 10.21972 3.376953 10.21972 10.930664v28.170898h9.81983v-30.17041c0-11.463867-6.88721-17.506836-16.48487-17.506836-7.73144 0-12.0415 4.176758-13.64111 7.287109h-.35547v-6.576172h-9.68652z"/><path d="m1534.59668 182.799805c11.59717 0 17.729-6.709473 19.15088-14.307617h-9.37549c-1.19971 4.043457-4.62109 6.531738-9.64209 6.531738-6.70947 0-10.9751-5.243164-10.9751-13.152344v-1.11084h30.52588v-4.487793c0-13.241211-7.55371-22.039062-20.08398-22.039062-12.35254 0-20.17285 8.486816-20.17285 21.594726v4.754395c0 13.907715 7.99804 22.216797 20.57275 22.216797zm-10.8418-28.92627v-.088867c0-6.665039 4.13233-11.908203 10.48633-11.908203 6.26514 0 10.39746 5.243164 10.39746 11.908203v.088867z"/><path d="m1564.08288 182h9.99756v-27.81543c0-6.30957 2.66601-11.197265 10.57519-11.197265 1.64405 0 3.37696.1333 4.22119.355468v-8.708984c-.9331-.177734-2.04394-.266601-3.33251-.266601-6.53174 0-10.042 3.910156-11.2417 6.842773h-.35547v-6.17627h-9.86426z"/><path d="m1608.72093 182.710938c6.93165 0 11.06397-2.888184 13.10791-6.487305h.35547v5.776367h9.37549v-31.992187c0-10.486329-7.77588-15.685059-18.21777-15.685059-12.53028 0-17.86231 6.665039-18.26221 14.663086h9.24219c.35547-4.176758 3.42139-6.976074 8.79785-6.976074 5.50977 0 8.70898 2.97705 8.70898 8.353515v4.487793h-11.9082c-10.79736 0-16.57373 5.287598-16.57373 13.641114 0 8.753417 6.26514 14.21875 15.37402 14.21875zm2.97706-7.509278c-4.3545 0-8.44239-2.35498-8.44239-7.242676 0-3.910156 2.62158-6.620605 8.35352-6.620605h10.21972v5.19873c0 5.109864-4.39892 8.664551-10.13085 8.664551z"/><path d="m1646.20518 135.033691h-6.6206v7.90918h6.4873v25.860352c0 9.419922 3.15479 13.507812 14.57422 13.507812 1.99951 0 3.86572-.177734 4.66553-.311035v-7.553711c-.57764.088867-1.37745.088867-2.22168.088867-5.2876 0-7.19825-1.421875-7.19825-6.531738v-25.060547h9.15332v-7.90918h-9.15332v-11.419433h-9.68652z"/><path d="m1693.42038 134.233887c-13.50781 0-20.92822 9.553222-20.92822 22.305664v3.776855c0 13.241211 7.37598 22.483399 20.92822 22.483399 13.55225 0 20.83936-9.242188 20.83936-22.483399v-3.776855c0-12.796875-7.33154-22.305664-20.83936-22.305664zm0 7.909179c7.33155 0 10.93067 5.954102 10.93067 14.529786v3.599121c0 8.442382-3.55469 14.574218-10.93067 14.574218-7.37597 0-10.97509-6.176269-10.97509-14.574218v-3.599121c0-8.53125 3.64355-14.529786 10.97509-14.529786z"/><path d="m1724.23959 182h9.99756v-27.81543c0-6.30957 2.66602-11.197265 10.5752-11.197265 1.64404 0 3.37695.1333 4.22119.355468v-8.708984c-.93311-.177734-2.04395-.266601-3.33252-.266601-6.53174 0-10.04199 3.910156-11.2417 6.842773h-.35547v-6.17627h-9.86426z"/><path d="m7.00390625 288 6.61718755-19.078125h23.5898437l6.6171875 19.078125h4.984375l-21.0117188-58.523438h-4.7265624l-21.0117188 58.523438zm18.51953125-52.722656 10.3125 29.691406h-20.8828125l10.3984375-29.691406z"/><path d="m75.0751292 288h4.640625v-61.703125h-4.640625z"/><path d="m92.8041001 231.925781c0 1.976563 1.5898437 3.566407 3.5664062 3.566407s3.5664063-1.589844 3.5664063-3.566407c0-1.976562-1.5898438-3.566406-3.5664063-3.566406s-3.5664062 1.589844-3.5664062 3.566406zm1.2460937 56.074219h4.640625v-44.6875h-4.640625z"/><path d="m128.79479 299.773438c-6.789063 0-11.558594-3.652344-12.203125-8.292969h-4.769532c.6875 7.261719 6.875 12.375 16.972657 12.375 10.226562 0 17.960937-5.757813 17.960937-15.984375v-44.558594h-4.46875v7.691406h-.171875c-1.976562-4.726562-7.476562-8.421875-13.964844-8.421875-10.355468 0-17.53125 7.476563-17.53125 19.636719v5.113281c0 12.246094 7.21875 19.679688 17.488282 19.679688 6.445312 0 12.289062-3.910157 13.878906-8.550781h.171875v9.496093c0 7.347657-5.328125 11.816407-13.363281 11.816407zm-.128907-53.066407c8.035157 0 13.492188 6.445313 13.492188 16.027344v4.167969c0 9.539062-5.371094 15.941406-13.492188 15.941406-8.207031 0-13.40625-6.273438-13.40625-16.027344v-3.996094c0-9.96875 5.15625-16.113281 13.40625-16.113281z"/><path d="m160.918292 288h4.640625v-27.285156c0-7.089844 4.210937-13.878907 13.148437-13.878907 7.5625 0 12.117188 5.070313 12.117188 12.804688v28.359375h4.640625v-29.003906c0-10.613281-6.746094-16.414063-15.769531-16.414063-7.949219 0-12.417969 4.382813-13.964844 8.121094h-.171875v-24.40625h-4.640625z"/><path d="m210.744919 243.3125h-6.703125v3.996094h6.703125v29.648437c0 8.121094 2.234375 11.472657 11.300781 11.472657 1.804688 0 3.308594-.171876 4.125-.34375v-3.867188c-.859375.171875-1.933594.257812-3.09375.257812-5.671875 0-7.691406-1.460937-7.691406-6.917968v-30.25h10.269531v-3.996094h-10.269531v-11h-4.640625z"/><path d="m236.079359 288h4.597656v-27.285156c0-7.089844 4.167969-13.878906 13.105469-13.878906 7.5625 0 12.117187 5.070312 12.117187 12.804687v28.359375h4.597656v-29.003906c0-10.613282-6.660156-16.414063-15.726562-16.414063-7.949219 0-12.332031 4.382813-13.921875 8.121094h-.171875v-7.390625h-4.597656z"/><path d="m282.597392 231.925781c0 1.976563 1.589844 3.566407 3.566406 3.566407 1.976563 0 3.566406-1.589844 3.566406-3.566407 0-1.976562-1.589843-3.566406-3.566406-3.566406-1.976562 0-3.566406 1.589844-3.566406 3.566406zm1.246094 56.074219h4.640625v-44.6875h-4.640625z"/><path d="m302.388863 288h4.597656v-27.285156c0-7.089844 4.167969-13.878906 13.105469-13.878906 7.5625 0 12.117187 5.070312 12.117187 12.804687v28.359375h4.597657v-29.003906c0-10.613282-6.660157-16.414063-15.726563-16.414063-7.949219 0-12.332031 4.382813-13.921875 8.121094h-.171875v-7.390625h-4.597656z"/><path d="m366.051427 299.773438c-6.789062 0-11.558593-3.652344-12.203125-8.292969h-4.769531c.6875 7.261719 6.875 12.375 16.972656 12.375 10.226563 0 17.960938-5.757813 17.960938-15.984375v-44.558594h-4.46875v7.691406h-.171875c-1.976563-4.726562-7.476563-8.421875-13.964844-8.421875-10.355469 0-17.53125 7.476563-17.53125 19.636719v5.113281c0 12.246094 7.21875 19.679688 17.488281 19.679688 6.445313 0 12.289063-3.910157 13.878907-8.550781h.171875v9.496093c0 7.347657-5.328125 11.816407-13.363282 11.816407zm-.128906-53.066407c8.035156 0 13.492188 6.445313 13.492188 16.027344v4.167969c0 9.539062-5.371094 15.941406-13.492188 15.941406-8.207031 0-13.40625-6.273438-13.40625-16.027344v-3.996094c0-9.96875 5.15625-16.113281 13.40625-16.113281z"/><path d="m420.647586 266v-4.167969h-27.070313v4.167969z"/><path d="m431.974213 288h4.640625v-40.691406h10.269531v-3.996094h-10.269531v-5.113281c0-5.972657 2.578125-7.863281 7.820312-7.863281 1.160157 0 2.234375.128906 2.878907.214843v-3.953125c-.601563-.128906-1.976563-.300781-3.308594-.300781-7.90625 0-12.03125 3.394531-12.03125 11.644531v5.371094h-6.703125v3.996094h6.703125z"/><path d="m467.70709 288.730469c7.90625 0 12.203125-4.210938 13.792969-7.347657h.171875v6.617188h4.511718v-31.582031c0-8.9375-6.359375-13.835938-15.554687-13.835938-9.925781 0-14.953125 5.15625-15.640625 12.460938h4.425781c.816406-5.15625 4.253906-8.378907 11-8.378907 6.832031 0 11.128906 3.4375 11.128906 10.441407v5.714843h-13.0625c-10.097656 0-15.339843 4.984376-15.339843 12.546876 0 8.207031 5.929687 13.363281 14.566406 13.363281zm.902344-4.039063c-5.929688 0-10.613282-3.394531-10.613282-9.453125 0-4.984375 3.222657-8.507812 10.613282-8.507812h12.933593v6.316406c0 6.960937-5.757812 11.644531-12.933593 11.644531z"/><path d="m497.596217 255.257812c0 7.734376 6.316406 10.054688 14.78125 12.160157 7.5625 1.890625 12.332031 3.050781 12.332031 8.59375 0 5.457031-4.855468 8.679687-11.945312 8.679687-8.121094 0-11.515625-4.46875-11.859375-8.335937h-4.554688c0 6.445312 5.414063 12.375 16.113282 12.375 9.496093 0 16.886718-4.339844 16.886718-13.0625 0-8.722657-7.433593-10.527344-15.554687-12.375-6.574219-1.589844-11.601563-3.050781-11.601563-8.421875 0-5.585938 4.769532-8.25 10.785157-8.25 8.292968 0 10.785156 5.027344 10.957031 8.421875h4.425781c0-5.84375-4.425781-12.460938-15.210937-12.460938-8.636719 0-15.554688 4.253907-15.554688 12.675781z"/><path d="m542.567375 243.3125h-6.703125v3.996094h6.703125v29.648437c0 8.121094 2.234375 11.472657 11.300782 11.472657 1.804687 0 3.308593-.171876 4.125-.34375v-3.867188c-.859375.171875-1.933594.257812-3.09375.257812-5.671875 0-7.691407-1.460937-7.691407-6.917968v-30.25h10.269532v-3.996094h-10.269532v-11h-4.640625z"/><path d="m567.944784 299.730469 5.027344-19.679688h-5.027344l-3.78125 19.679688z"/><path d="m597.902726 272.875c.128906 6.960938 5.285156 16.414062 20.28125 16.414062 11.816406 0 20.753906-5.972656 20.753906-16.628906 0-9.28125-5.929688-13.019531-15.683594-15.683594l-8.421875-2.277343c-6.746094-1.804688-10.226562-4.984375-10.226562-10.742188 0-7.132812 5.628906-11.558593 14.308593-11.558593 9.710938 0 14.007813 5.585937 14.351563 11.128906h4.726562c-.128906-9.496094-8.25-15.425782-18.992187-15.425782-10.828125 0-19.207031 6.058594-19.207031 16.070313 0 8.636719 5.84375 12.976563 13.40625 14.996094l8.679687 2.320312c8.078125 2.105469 12.203125 5.027344 12.203125 11.472657 0 7.175781-6.101562 12.03125-15.339844 12.03125-11.171875 0-15.726562-6.574219-16.070312-12.117188z"/><path d="m684.553571 283.703125h-29.175781v-23.546875h27.671875v-4.253906h-27.671875v-22.128906h29.175781v-4.296876h-33.859375v58.523438h33.859375z"/><path d="m739.966136 263.851563v-9.839844c0-15.855469-8.550781-25.824219-22.601562-25.824219-14.09375 0-22.730469 9.925781-22.730469 25.78125v9.882813c0 15.812499 8.550781 25.437499 22.601562 25.437499 14.09375 0 22.730469-9.625 22.730469-25.437499zm-4.683594-10.054688v10.226563c0 13.277343-7.132812 21.011718-18.003906 21.011718-10.785156 0-17.960937-7.734375-17.960937-21.011718v-10.226563c0-13.277344 7.21875-21.355469 17.960937-21.355469 10.785156 0 18.003906 8.078125 18.003906 21.355469z"/><path d="m774.839638 266v-4.167969h-27.070312v4.167969z"/><path d="m800.818609 242.582031c-11.257812 0-18.476562 7.90625-18.476562 20.324219v5.542969c0 12.417969 7.261718 20.28125 18.476562 20.28125s18.519531-7.863281 18.519531-20.28125v-5.542969c0-12.332031-7.347656-20.324219-18.519531-20.324219zm0 4.125c8.292969 0 13.878906 6.015625 13.878906 16.542969v4.855469c0 10.613281-5.585937 16.457031-13.835937 16.457031-8.378906 0-13.878906-5.929688-13.878906-16.457031v-4.855469c0-10.613281 5.542968-16.542969 13.835937-16.542969z"/><path d="m849.571017 288.730469c9.625 0 17.488282-7.003907 17.488282-19.851563v-6.488281c0-12.332031-7.390625-19.808594-17.273438-19.808594-8.207031 0-12.460937 5.199219-14.136719 8.550781h-.171875v-7.820312h-4.46875v59.210938h4.640625v-22.042969h.171875c1.847657 3.738281 6.101563 8.25 13.75 8.25zm-.128906-4.167969c-8.550781 0-13.878906-6.832031-13.878906-16.285156v-5.542969c0-8.808594 5.027344-16.027344 13.75-16.027344 7.691406 0 13.105469 5.886719 13.105469 16.070313v5.457031c0 10.957031-5.886719 16.328125-12.976563 16.328125z"/><path d="m880.964051 243.3125h-6.703125v3.996094h6.703125v29.648437c0 8.121094 2.234375 11.472657 11.300781 11.472657 1.804688 0 3.308594-.171876 4.125-.34375v-3.867188c-.859375.171875-1.933594.257812-3.09375.257812-5.671875 0-7.691406-1.460937-7.691406-6.917968v-30.25h10.269531v-3.996094h-10.269531v-11h-4.640625z"/><path d="m905.353178 231.925781c0 1.976563 1.589844 3.566407 3.566406 3.566407 1.976563 0 3.566406-1.589844 3.566406-3.566407 0-1.976562-1.589843-3.566406-3.566406-3.566406-1.976562 0-3.566406 1.589844-3.566406 3.566406zm1.246094 56.074219h4.640625v-44.6875h-4.640625z"/><path d="m925.144649 288h4.597656v-28.53125c0-7.347656 4.339844-12.632812 11.429687-12.632812 6.789063 0 10.957032 4.339843 10.957032 12.074218v29.089844h4.597656v-28.917969c0-6.53125 3.996094-12.246093 11.515625-12.246093 6.703125 0 10.871094 4.296874 10.871094 11.644531v29.519531h4.640625v-30.507812c0-9.539063-5.929688-14.910157-14.738282-14.910157-8.078125 0-12.417968 4.8125-13.621093 8.421875h-.257813c-1.460937-4.683594-5.671875-8.421875-13.148437-8.421875-7.046875 0-10.785157 4.167969-11.988282 7.347657h-.257812v-6.617188h-4.597656z"/><path d="m996.068932 231.925781c0 1.976563 1.589844 3.566407 3.566406 3.566407s3.566402-1.589844 3.566402-3.566407c0-1.976562-1.58984-3.566406-3.566402-3.566406s-3.566406 1.589844-3.566406 3.566406zm1.246094 56.074219h4.640624v-44.6875h-4.640624z"/><path d="m1014.09868 255.257812c0 7.734376 6.31641 10.054688 14.78125 12.160157 7.5625 1.890625 12.33204 3.050781 12.33204 8.59375 0 5.457031-4.85547 8.679687-11.94532 8.679687-8.12109 0-11.51562-4.46875-11.85937-8.335937h-4.55469c0 6.445312 5.41406 12.375 16.11328 12.375 9.4961 0 16.88672-4.339844 16.88672-13.0625 0-8.722657-7.43359-10.527344-15.55469-12.375-6.57422-1.589844-11.60156-3.050781-11.60156-8.421875 0-5.585938 4.76953-8.25 10.78516-8.25 8.29297 0 10.78515 5.027344 10.95703 8.421875h4.42578c0-5.84375-4.42578-12.460938-15.21094-12.460938-8.63672 0-15.55469 4.253907-15.55469 12.675781z"/><path d="m1072.64797 288.730469c10.14062 0 15.55469-6.058594 16.67187-12.246094h-4.68359c-.98828 4.167969-4.76953 8.207031-11.85938 8.207031-8.3789 0-13.53515-6.230468-13.53515-16.542968v-1.675782h30.72265v-3.007812c0-13.148438-6.78906-20.882813-17.70312-20.882813-10.95703 0-17.66016 7.777344-17.66016 20.625v4.898438c0 12.847656 6.78907 20.625 18.04688 20.625zm-13.40625-26.296875v-.128906c0-9.410157 5.15625-15.640626 13.01953-15.640626s13.01953 6.1875 13.01953 15.640626v.128906z"/><path d="m1116.97459 242.582031c-10.09765 0-17.48828 7.519531-17.48828 19.894531v6.402344c0 11.945313 6.70313 19.851563 17.44532 19.851563 8.20703 0 12.5039-5.15625 14.09375-8.722657h.17187v7.992188h4.46875v-61.703125h-4.64062v24.664062h-.17188c-1.71875-3.738281-6.10156-8.378906-13.87891-8.378906zm.30079 4.167969c8.50781 0 13.83593 6.789063 13.83593 16.113281v5.714844c0 9.109375-5.02734 15.984375-13.79297 15.984375-7.43359 0-13.1914-5.542969-13.1914-16.070312v-5.585938c0-11 6.05859-16.15625 13.14844-16.15625z"/><path d="m1148.92622 299.730469 5.02735-19.679688h-5.02735l-3.78125 19.679688z"/><path d="m1197.14588 288 14.17969-50.617188h.21484l14.17969 50.617188h4.55469l15.76953-58.523438h-5.15625l-12.93359 50.703126h-.17188l-13.83594-50.703126h-5.02734l-13.83594 50.703126h-.17187l-12.89063-50.703126h-5.19922l15.76953 58.523438z"/><path d="m1257.11313 254.011719c0-12.417969 5.71485-21.570313 17.53125-21.570313 9.92579 0 15.89844 7.003906 16.02735 14.308594h4.59765v-.085938c0-9.582031-7.82031-18.476562-20.625-18.476562-14.78125 0-22.21484 10.914062-22.21484 26.082031v9.195313c0 15.082031 7.26172 25.824218 22.34375 25.824218 12.375 0 20.75391-7.992187 20.75391-17.917968v-.085938h-4.59766c-.12891 7.820313-6.53125 13.75-16.15625 13.75-12.07422 0-17.66016-9.109375-17.66016-21.355468z"/><path d="m1306.76789 288 6.61718-19.078125h23.58985l6.61719 19.078125h4.98437l-21.01172-58.523438h-4.72656l-21.01172 58.523438zm18.51953-52.722656 10.3125 29.691406h-20.88281l10.39843-29.691406z"/><path d="m1397.80154 245.761719c-.64453-9.410157-8.07812-17.574219-20.71093-17.574219-14.22266 0-22.30078 9.882812-22.30078 25.351563v9.582031c0 15.769531 7.34765 26.167968 22.60156 26.167968 11.85937 0 20.79687-7.261718 20.79687-18.734374v-11.558594h-21.35547v4.253906h16.84375v7.304688c0 8.980468-6.74609 14.480468-16.24218 14.480468-12.11719 0-17.96094-8.679687-17.96094-21.914062v-9.582031c0-12.933594 6.31641-21.097657 17.61719-21.097657 10.14062 0 15.38281 6.617188 16.11328 13.320313z"/><path d="m1427.3298 288 6.61719-19.078125h23.58984l6.61719 19.078125h4.98437l-21.01172-58.523438h-4.72656l-21.01172 58.523438zm18.51953-52.722656 10.3125 29.691406h-20.88281l10.39844-29.691406z"/><path d="m1478.31658 288 6.61719-19.078125h23.58984l6.61719 19.078125h4.98438l-21.01172-58.523438h-4.72657l-21.01171 58.523438zm18.51953-52.722656 10.3125 29.691406h-20.88281l10.39844-29.691406z"/><path d="m1529.30337 288 6.61718-19.078125h23.58985l6.61718 19.078125h4.98438l-21.01172-58.523438h-4.72656l-21.01172 58.523438zm18.51953-52.722656 10.3125 29.691406h-20.88282l10.39844-29.691406z"/><path d="m1601.08702 266v-4.167969h-27.07031v4.167969z"/><path d="m5.15625 373.40625c0 12.375 6.7460938 20.324219 17.9179688 20.324219 10.7421874 0 15.6835937-6.1875 16.7578124-12.761719h-4.5546874c-.859375 4.296875-4.4257813 8.507812-11.8164063 8.507812-8.3789063 0-13.6640625-5.972656-13.6640625-16.242187v-5.199219c0-10.355468 5.2851562-16.242187 13.4492188-16.242187 6.7460937 0 10.9140624 4.554687 11.8164062 9.28125h4.5976563c-.4296875-6.445313-6.1875-13.492188-16.6718751-13.492188-10.7421874 0-17.8320312 7.648438-17.8320312 19.980469z"/><path d="m67.4008459 347.582031c-11.2578125 0-18.4765625 7.90625-18.4765625 20.324219v5.542969c0 12.417969 7.2617187 20.28125 18.4765625 20.28125 11.2148437 0 18.5195312-7.863281 18.5195312-20.28125v-5.542969c0-12.332031-7.3476562-20.324219-18.5195312-20.324219zm0 4.125c8.2929687 0 13.8789062 6.015625 13.8789062 16.542969v4.855469c0 10.613281-5.5859375 16.457031-13.8359375 16.457031-8.3789062 0-13.8789062-5.929688-13.8789062-16.457031v-4.855469c0-10.613281 5.5429687-16.542969 13.8359375-16.542969z"/><path d="m97.5477855 393h4.5976565v-28.53125c0-7.347656 4.339843-12.632812 11.429687-12.632812 6.789063 0 10.957031 4.339843 10.957031 12.074218v29.089844h4.597657v-28.917969c0-6.53125 3.996093-12.246093 11.515625-12.246093 6.703125 0 10.871093 4.296874 10.871093 11.644531v29.519531h4.640625v-30.507812c0-9.539063-5.929687-14.910157-14.738281-14.910157-8.078125 0-12.417969 4.8125-13.621094 8.421875h-.257812c-1.460938-4.683594-5.671875-8.421875-13.148438-8.421875-7.046875 0-10.785156 4.167969-11.988281 7.347657h-.257812v-6.617188h-4.5976565z"/><path d="m188.02285 393.730469c9.625 0 17.488281-7.003907 17.488281-19.851563v-6.488281c0-12.332031-7.390625-19.808594-17.273437-19.808594-8.207031 0-12.460938 5.199219-14.136719 8.550781h-.171875v-7.820312h-4.46875v59.210938h4.640625v-22.042969h.171875c1.847656 3.738281 6.101563 8.25 13.75 8.25zm-.128906-4.167969c-8.550781 0-13.878906-6.832031-13.878906-16.285156v-5.542969c0-8.808594 5.027343-16.027344 13.75-16.027344 7.691406 0 13.105468 5.886719 13.105468 16.070313v5.457031c0 10.957031-5.886718 16.328125-12.976562 16.328125z"/><path d="m217.568227 393h4.640625v-61.703125h-4.640625z"/><path d="m235.297198 336.925781c0 1.976563 1.589844 3.566407 3.566406 3.566407 1.976563 0 3.566407-1.589844 3.566407-3.566407 0-1.976562-1.589844-3.566406-3.566407-3.566406-1.976562 0-3.566406 1.589844-3.566406 3.566406zm1.246094 56.074219h4.640625v-44.6875h-4.640625z"/><path d="m266.862106 393.730469c7.90625 0 12.203125-4.210938 13.792969-7.347657h.171875v6.617188h4.511719v-31.582031c0-8.9375-6.359375-13.835938-15.554688-13.835938-9.925781 0-14.953125 5.15625-15.640625 12.460938h4.425782c.816406-5.15625 4.253906-8.378907 11-8.378907 6.832031 0 11.128906 3.4375 11.128906 10.441407v5.714843h-13.0625c-10.097656 0-15.339844 4.984376-15.339844 12.546876 0 8.207031 5.929688 13.363281 14.566406 13.363281zm.902344-4.039063c-5.929687 0-10.613281-3.394531-10.613281-9.453125 0-4.984375 3.222656-8.507812 10.613281-8.507812h12.933594v6.316406c0 6.960937-5.757813 11.644531-12.933594 11.644531z"/><path d="m298.512952 393h4.597657v-27.285156c0-7.089844 4.167968-13.878906 13.105468-13.878906 7.5625 0 12.117188 5.070312 12.117188 12.804687v28.359375h4.597656v-29.003906c0-10.613282-6.660156-16.414063-15.726562-16.414063-7.949219 0-12.332032 4.382813-13.921875 8.121094h-.171875v-7.390625h-4.597657z"/><path d="m348.253642 348.3125h-6.703125v3.996094h6.703125v29.648437c0 8.121094 2.234375 11.472657 11.300781 11.472657 1.804688 0 3.308594-.171876 4.125-.34375v-3.867188c-.859375.171875-1.933594.257812-3.09375.257812-5.671875 0-7.691406-1.460937-7.691406-6.917968v-30.25h10.269531v-3.996094h-10.269531v-11h-4.640625z"/><path d="m388.695959 360.257812c0 7.734376 6.316406 10.054688 14.78125 12.160157 7.5625 1.890625 12.332031 3.050781 12.332031 8.59375 0 5.457031-4.855469 8.679687-11.945313 8.679687-8.121093 0-11.515625-4.46875-11.859375-8.335937h-4.554687c0 6.445312 5.414062 12.375 16.113281 12.375 9.496094 0 16.886719-4.339844 16.886719-13.0625 0-8.722657-7.433594-10.527344-15.554688-12.375-6.574218-1.589844-11.601562-3.050781-11.601562-8.421875 0-5.585938 4.769531-8.25 10.785156-8.25 8.292969 0 10.785156 5.027344 10.957031 8.421875h4.425782c0-5.84375-4.425782-12.460938-15.210938-12.460938-8.636719 0-15.554687 4.253907-15.554687 12.675781z"/><path d="m433.667117 348.3125h-6.703125v3.996094h6.703125v29.648437c0 8.121094 2.234375 11.472657 11.300781 11.472657 1.804688 0 3.308594-.171876 4.125-.34375v-3.867188c-.859375.171875-1.933593.257812-3.09375.257812-5.671875 0-7.691406-1.460937-7.691406-6.917968v-30.25h10.269531v-3.996094h-10.269531v-11h-4.640625z"/><path d="m470.345307 393.730469c7.90625 0 12.203125-4.210938 13.792968-7.347657h.171875v6.617188h4.511719v-31.582031c0-8.9375-6.359375-13.835938-15.554687-13.835938-9.925782 0-14.953125 5.15625-15.640625 12.460938h4.425781c.816406-5.15625 4.253906-8.378907 11-8.378907 6.832031 0 11.128906 3.4375 11.128906 10.441407v5.714843h-13.0625c-10.097656 0-15.339844 4.984376-15.339844 12.546876 0 8.207031 5.929688 13.363281 14.566407 13.363281zm.902343-4.039063c-5.929687 0-10.613281-3.394531-10.613281-9.453125 0-4.984375 3.222656-8.507812 10.613281-8.507812h12.933594v6.316406c0 6.960937-5.757812 11.644531-12.933594 11.644531z"/><path d="m504.273496 348.3125h-6.703125v3.996094h6.703125v29.648437c0 8.121094 2.234375 11.472657 11.300781 11.472657 1.804688 0 3.308594-.171876 4.125-.34375v-3.867188c-.859375.171875-1.933593.257812-3.09375.257812-5.671875 0-7.691406-1.460937-7.691406-6.917968v-30.25h10.269531v-3.996094h-10.269531v-11h-4.640625z"/><path d="m528.662623 336.925781c0 1.976563 1.589844 3.566407 3.566407 3.566407 1.976562 0 3.566406-1.589844 3.566406-3.566407 0-1.976562-1.589844-3.566406-3.566406-3.566406-1.976563 0-3.566407 1.589844-3.566407 3.566406zm1.246094 56.074219h4.640625v-44.6875h-4.640625z"/><path d="m546.477532 373.40625c0 12.375 6.746093 20.324219 17.917968 20.324219 10.742188 0 15.683594-6.1875 16.757813-12.761719h-4.554688c-.859375 4.296875-4.425781 8.507812-11.816406 8.507812-8.378906 0-13.664062-5.972656-13.664062-16.242187v-5.199219c0-10.355468 5.285156-16.242187 13.449218-16.242187 6.746094 0 10.914063 4.554687 11.816407 9.28125h4.597656c-.429688-6.445313-6.1875-13.492188-16.671875-13.492188-10.742188 0-17.832031 7.648438-17.832031 19.980469z"/><path d="m607.759692 360.257812c0 7.734376 6.316406 10.054688 14.78125 12.160157 7.5625 1.890625 12.332031 3.050781 12.332031 8.59375 0 5.457031-4.855468 8.679687-11.945312 8.679687-8.121094 0-11.515625-4.46875-11.859375-8.335937h-4.554688c0 6.445312 5.414063 12.375 16.113282 12.375 9.496093 0 16.886718-4.339844 16.886718-13.0625 0-8.722657-7.433593-10.527344-15.554687-12.375-6.574219-1.589844-11.601563-3.050781-11.601563-8.421875 0-5.585938 4.769532-8.25 10.785157-8.25 8.292968 0 10.785156 5.027344 10.957031 8.421875h4.425781c0-5.84375-4.425781-12.460938-15.210937-12.460938-8.636719 0-15.554688 4.253907-15.554688 12.675781z"/><path d="m649.508194 336.925781c0 1.976563 1.589844 3.566407 3.566407 3.566407 1.976562 0 3.566406-1.589844 3.566406-3.566407 0-1.976562-1.589844-3.566406-3.566406-3.566406-1.976563 0-3.566407 1.589844-3.566407 3.566406zm1.246094 56.074219h4.640625v-44.6875h-4.640625z"/><path d="m671.577009 348.3125h-6.703125v3.996094h6.703125v29.648437c0 8.121094 2.234375 11.472657 11.300781 11.472657 1.804688 0 3.308594-.171876 4.125-.34375v-3.867188c-.859375.171875-1.933594.257812-3.09375.257812-5.671875 0-7.691406-1.460937-7.691406-6.917968v-30.25h10.269531v-3.996094h-10.269531v-11h-4.640625z"/><path d="m712.33723 393.730469c10.140625 0 15.554687-6.058594 16.671875-12.246094h-4.683594c-.988281 4.167969-4.769531 8.207031-11.859375 8.207031-8.378906 0-13.535156-6.230468-13.535156-16.542968v-1.675782h30.722656v-3.007812c0-13.148438-6.789062-20.882813-17.703125-20.882813-10.957031 0-17.660156 7.777344-17.660156 20.625v4.898438c0 12.847656 6.789062 20.625 18.046875 20.625zm-13.40625-26.296875v-.128906c0-9.410157 5.15625-15.640626 13.019531-15.640626s13.019531 6.1875 13.019531 15.640626v.128906z"/><path d="m774.65064 404.773438c-6.789062 0-11.558593-3.652344-12.203125-8.292969h-4.769531c.6875 7.261719 6.875 12.375 16.972656 12.375 10.226563 0 17.960938-5.757813 17.960938-15.984375v-44.558594h-4.46875v7.691406h-.171875c-1.976563-4.726562-7.476563-8.421875-13.964844-8.421875-10.355469 0-17.53125 7.476563-17.53125 19.636719v5.113281c0 12.246094 7.21875 19.679688 17.488281 19.679688 6.445313 0 12.289063-3.910157 13.878907-8.550781h.171875v9.496093c0 7.347657-5.328125 11.816407-13.363282 11.816407zm-.128906-53.066407c8.035156 0 13.492188 6.445313 13.492188 16.027344v4.167969c0 9.539062-5.371094 15.941406-13.492188 15.941406-8.207031 0-13.40625-6.273438-13.40625-16.027344v-3.996094c0-9.96875 5.15625-16.113281 13.40625-16.113281z"/><path d="m822.371799 393.730469c10.140625 0 15.554687-6.058594 16.671875-12.246094h-4.683594c-.988281 4.167969-4.769531 8.207031-11.859375 8.207031-8.378906 0-13.535156-6.230468-13.535156-16.542968v-1.675782h30.722656v-3.007812c0-13.148438-6.789063-20.882813-17.703125-20.882813-10.957031 0-17.660156 7.777344-17.660156 20.625v4.898438c0 12.847656 6.789062 20.625 18.046875 20.625zm-13.40625-26.296875v-.128906c0-9.410157 5.15625-15.640626 13.019531-15.640626s13.019531 6.1875 13.019531 15.640626v.128906z"/><path d="m851.186707 393h4.597656v-27.285156c0-7.089844 4.167969-13.878906 13.105469-13.878906 7.5625 0 12.117188 5.070312 12.117188 12.804687v28.359375h4.597656v-29.003906c0-10.613282-6.660156-16.414063-15.726563-16.414063-7.949218 0-12.332031 4.382813-13.921875 8.121094h-.171875v-7.390625h-4.597656z"/><path d="m914.720365 393.730469c10.140625 0 15.554688-6.058594 16.671875-12.246094h-4.683593c-.988282 4.167969-4.769532 8.207031-11.859375 8.207031-8.378907 0-13.535157-6.230468-13.535157-16.542968v-1.675782h30.722657v-3.007812c0-13.148438-6.789063-20.882813-17.703125-20.882813-10.957032 0-17.660157 7.777344-17.660157 20.625v4.898438c0 12.847656 6.789063 20.625 18.046875 20.625zm-13.40625-26.296875v-.128906c0-9.410157 5.15625-15.640626 13.019532-15.640626 7.863281 0 13.019531 6.1875 13.019531 15.640626v.128906z"/><path d="m943.535274 393h4.597656v-26.8125c0-8.335938 3.523437-14.222656 11.644531-14.222656 1.503906 0 3.050781.171875 3.609375.257812v-4.339844c-.6875-.085937-1.675781-.257812-3.050781-.257812-7.390625 0-10.699219 4.167969-12.03125 7.949219h-.171875v-7.261719h-4.597656z"/><path d="m983.135338 393.730469c7.90625 0 12.203125-4.210938 13.792969-7.347657h.171875v6.617188h4.511718v-31.582031c0-8.9375-6.359374-13.835938-15.554687-13.835938-9.925781 0-14.953125 5.15625-15.640625 12.460938h4.425782c.816406-5.15625 4.253906-8.378907 11-8.378907 6.832031 0 11.128906 3.4375 11.128906 10.441407v5.714843h-13.0625c-10.097656 0-15.339844 4.984376-15.339844 12.546876 0 8.207031 5.929688 13.363281 14.566406 13.363281zm.902344-4.039063c-5.929687 0-10.613281-3.394531-10.613281-9.453125 0-4.984375 3.222656-8.507812 10.613281-8.507812h12.933594v6.316406c0 6.960937-5.757813 11.644531-12.933594 11.644531z"/><path d="m1017.06353 348.3125h-6.70313v3.996094h6.70313v29.648437c0 8.121094 2.23437 11.472657 11.30078 11.472657 1.80469 0 3.30859-.171876 4.125-.34375v-3.867188c-.85938.171875-1.93359.257812-3.09375.257812-5.67188 0-7.69141-1.460937-7.69141-6.917968v-30.25h10.26953v-3.996094h-10.26953v-11h-4.64062z"/><path d="m1058.25344 347.582031c-11.25782 0-18.47657 7.90625-18.47657 20.324219v5.542969c0 12.417969 7.26172 20.28125 18.47657 20.28125 11.21484 0 18.51953-7.863281 18.51953-20.28125v-5.542969c0-12.332031-7.34766-20.324219-18.51953-20.324219zm0 4.125c8.29297 0 13.8789 6.015625 13.8789 16.542969v4.855469c0 10.613281-5.58593 16.457031-13.83593 16.457031-8.37891 0-13.87891-5.929688-13.87891-16.457031v-4.855469c0-10.613281 5.54297-16.542969 13.83594-16.542969z"/><path d="m1088.40038 393h4.59765v-26.8125c0-8.335938 3.52344-14.222656 11.64453-14.222656 1.50391 0 3.05078.171875 3.60938.257812v-4.339844c-.6875-.085937-1.67578-.257812-3.05078-.257812-7.39063 0-10.69922 4.167969-12.03125 7.949219h-.17188v-7.261719h-4.59765z"/><path d="m1152.81926 393.730469c9.79687 0 17.44531-7.046875 17.44531-19.808594v-6.574219c0-12.460937-7.30469-19.765625-17.35938-19.765625-8.03515 0-12.58984 5.242188-14.09375 8.378907h-.17187v-24.664063h-4.64063v61.703125h4.46875v-7.90625h.17188c1.93359 4.039062 6.14453 8.636719 14.17969 8.636719zm-.25782-4.167969c-8.63672 0-14.00781-6.402344-14.00781-16.15625v-5.671875c0-9.238281 5.11328-15.984375 14.00781-15.984375 7.4336 0 13.0625 5.714844 13.0625 16.070312v5.585938c0 10.785156-5.92968 16.15625-13.0625 16.15625z"/><path d="m1215.62244 348.3125h-4.64062v27.199219c0 7.734375-4.85547 13.964843-13.19141 13.964843-6.96093 0-11.85937-3.996093-11.85937-12.160156v-29.003906h-4.64063v30.121094c0 10.226562 6.70313 15.296875 15.55469 15.296875 7.94922 0 12.375-4.167969 13.92188-8.121094h.21484v7.390625h4.64062z"/><path d="m1228.23813 336.925781c0 1.976563 1.58985 3.566407 3.56641 3.566407s3.56641-1.589844 3.56641-3.566407c0-1.976562-1.58985-3.566406-3.56641-3.566406s-3.56641 1.589844-3.56641 3.566406zm1.2461 56.074219h4.64062v-44.6875h-4.64062z"/><path d="m1248.45929 393h4.64063v-61.703125h-4.64063z"/><path d="m1269.41092 348.3125h-6.70313v3.996094h6.70313v29.648437c0 8.121094 2.23437 11.472657 11.30078 11.472657 1.80469 0 3.30859-.171876 4.125-.34375v-3.867188c-.85937.171875-1.93359.257812-3.09375.257812-5.67187 0-7.69141-1.460937-7.69141-6.917968v-30.25h10.26954v-3.996094h-10.26954v-11h-4.64062z"/><path d="m1310.66964 336.925781c0 1.976563 1.58985 3.566407 3.56641 3.566407s3.56641-1.589844 3.56641-3.566407c0-1.976562-1.58985-3.566406-3.56641-3.566406s-3.56641 1.589844-3.56641 3.566406zm1.2461 56.074219h4.64062v-44.6875h-4.64062z"/><path d="m1330.46111 393h4.59766v-27.285156c0-7.089844 4.16797-13.878906 13.10547-13.878906 7.5625 0 12.11719 5.070312 12.11719 12.804687v28.359375h4.59765v-29.003906c0-10.613282-6.66015-16.414063-15.72656-16.414063-7.94922 0-12.33203 4.382813-13.92188 8.121094h-.17187v-7.390625h-4.59766z"/><path d="m1415.67687 334.476562h-19.76563v58.523438h4.6836v-24.835938h16.41406l12.24609 24.835938h5.41407l-12.89063-25.78125c6.31641-1.761719 11.90234-6.703125 11.90234-15.984375 0-9.410156-6.23046-16.757813-18.0039-16.757813zm-15.08203 29.433594v-25.179687h14.48047c8.42187 0 13.79296 4.640625 13.79296 12.71875 0 7.820312-5.15625 12.460937-13.96484 12.460937z"/><path d="m1479.33943 348.3125h-4.64062v27.199219c0 7.734375-4.85547 13.964843-13.19141 13.964843-6.96094 0-11.85937-3.996093-11.85937-12.160156v-29.003906h-4.64063v30.121094c0 10.226562 6.70313 15.296875 15.55469 15.296875 7.94922 0 12.375-4.167969 13.92187-8.121094h.21485v7.390625h4.64062z"/><path d="m1491.13872 360.257812c0 7.734376 6.3164 10.054688 14.78125 12.160157 7.5625 1.890625 12.33203 3.050781 12.33203 8.59375 0 5.457031-4.85547 8.679687-11.94532 8.679687-8.12109 0-11.51562-4.46875-11.85937-8.335937h-4.55469c0 6.445312 5.41406 12.375 16.11328 12.375 9.4961 0 16.88672-4.339844 16.88672-13.0625 0-8.722657-7.43359-10.527344-15.55469-12.375-6.57421-1.589844-11.60156-3.050781-11.60156-8.421875 0-5.585938 4.76953-8.25 10.78516-8.25 8.29297 0 10.78515 5.027344 10.95703 8.421875h4.42578c0-5.84375-4.42578-12.460938-15.21094-12.460938-8.63672 0-15.55468 4.253907-15.55468 12.675781z"/><path d="m1536.10987 348.3125h-6.70312v3.996094h6.70312v29.648437c0 8.121094 2.23438 11.472657 11.30079 11.472657 1.80468 0 3.30859-.171876 4.125-.34375v-3.867188c-.85938.171875-1.9336.257812-3.09375.257812-5.67188 0-7.69141-1.460937-7.69141-6.917968v-30.25h10.26953v-3.996094h-10.26953v-11h-4.64063z"/><path d="m1560.499 389.90625c0 2.105469 1.71875 3.824219 3.82422 3.824219s3.82422-1.71875 3.82422-3.824219-1.71875-3.824219-3.82422-3.824219-3.82422 1.71875-3.82422 3.824219z"/></g><g fill="#3fb9c9" transform="translate(976 449)"><path d="m45.0975 136.0508c28.8 0 45.44-17.44 45.44-37.28 0-16.8-8.8-26.72-23.52-32.64l-14.88-5.92c-10.56-4.16-18.08-6.72-18.08-13.28 0-6.4 5.44-9.92 14.24-9.92 9.28 0 16.64 3.2 24.48 9.12l14.24-17.92c-10.4-10.4-24.96-15.68-38.72-15.68-25.28 0-43.2 16-43.2 36 0 17.28 11.68 27.68 24.16 32.64l15.2 6.4c10.24 4.32 16.8 6.56 16.8 13.44 0 6.4-4.96 10.4-15.52 10.4-9.44 0-20.32-4.8-28.96-12l-16.16 19.52c12.32 11.36 28.96 17.12 44.48 17.12z"/><path d="m93.0144925 65.0108h12.3199995v35.04c0 21.6 9.28 36 32.16 36 9.28 0 15.84-1.92 20.64-3.36l-4.48-20.48c-2.24.64-5.44 1.44-8.32 1.44-6.72 0-11.52-3.84-11.52-13.92v-34.72h21.44v-22.24h-21.44v-24h-23.52l-3.36 24-13.9199995 1.12z"/><path d="m190.851485 136.0508c10.24 0 18.72-4.64 26.24-11.2h.64l2.08 8.96h23.2v-51.68c0-28.48-13.28-41.6-36.8-41.6-14.24 0-27.2 4.8-39.2 12l9.92 18.72c9.12-5.12 16.64-8 23.84-8 9.28 0 13.12 4.32 13.76 11.68-35.52 3.84-50.56 14.24-50.56 33.44 0 15.2 10.24 27.68 26.88 27.68zm9.92-22.08c-5.92 0-9.92-2.56-9.92-7.84 0-6.4 5.92-11.52 23.68-13.92v14.56c-4.16 4.48-8 7.2-13.76 7.2z" fill-rule="nonzero"/><path d="m251.568477 65.0108h12.32v35.04c0 21.6 9.28 36 32.16 36 9.28 0 15.84-1.92 20.64-3.36l-4.48-20.48c-2.24.64-5.44 1.44-8.32 1.44-6.72 0-11.52-3.84-11.52-13.92v-34.72h21.44v-22.24h-21.44v-24h-23.52l-3.36 24-13.92 1.12z"/><path d="m330.20547 133.8108h28.32v-91.04h-28.32zm14.24-103.52c9.44 0 16.16-6.24 16.16-14.56 0-8.8-6.72-14.88-16.16-14.88-9.6 0-16.32 6.08-16.32 14.88 0 8.32 6.72 14.56 16.32 14.56z" fill-rule="nonzero"/><path d="m420.522462 136.0508c9.6 0 21.12-2.88 29.92-10.72l-10.88-18.72c-4.64 3.68-10.08 6.4-15.84 6.4-11.2 0-19.36-9.6-19.36-24.8 0-15.04 7.84-24.64 20.32-24.64 4 0 7.52 1.44 11.68 4.96l13.28-18.24c-6.88-5.92-15.52-9.76-26.56-9.76-25.44 0-47.84 17.6-47.84 47.68 0 30.24 19.68 47.84 45.28 47.84z"/><path d="m539.716447 136.0508c28.8 0 45.44-17.44 45.44-37.28 0-16.8-8.8-26.72-23.52-32.64l-14.88-5.92c-10.56-4.16-18.08-6.72-18.08-13.28 0-6.4 5.44-9.92 14.24-9.92 9.28 0 16.64 3.2 24.48 9.12l14.24-17.92c-10.4-10.4-24.96-15.68-38.72-15.68-25.28 0-43.2 16-43.2 36 0 17.28 11.68 27.68 24.16 32.64l15.2 6.4c10.24 4.32 16.8 6.56 16.8 13.44 0 6.4-4.96 10.4-15.52 10.4-9.44 0-20.32-4.8-28.96-12l-16.16 19.52c12.32 11.36 28.96 17.12 44.48 17.12z"/><path d="m601.55344 133.8108h28.32v-91.04h-28.32zm14.24-103.52c9.44 0 16.16-6.24 16.16-14.56 0-8.8-6.72-14.88-16.16-14.88-9.6 0-16.32 6.08-16.32 14.88 0 8.32 6.72 14.56 16.32 14.56z" fill-rule="nonzero"/><path d="m643.070432 65.0108h12.32v35.04c0 21.6 9.28 36 32.16 36 9.28 0 15.84-1.92 20.64-3.36l-4.48-20.48c-2.24.64-5.44 1.44-8.32 1.44-6.72 0-11.52-3.84-11.52-13.92v-34.72h21.44v-22.24h-21.44v-24h-23.52l-3.36 24-13.92 1.12z"/><path d="m759.307425 136.0508c10.72 0 23.2-3.68 32.64-10.4l-9.44-17.12c-6.56 3.84-12.64 5.76-19.2 5.76-11.52 0-20.16-5.12-22.72-17.6h53.44c.64-2.08 1.28-7.2 1.28-12.16 0-24.96-12.8-44-39.04-44-22.08 0-43.2 18.24-43.2 47.68 0 30.24 20.16 47.84 46.24 47.84zm-19.2-57.92c1.92-10.88 8.8-15.84 16.64-15.84 10.4 0 14.4 6.72 14.4 15.84z" fill-rule="nonzero"/><path d="m903.46141 136.0508c16.8 0 31.52-6.56 39.84-14.56v-55.68h-44.32v23.36h18.88v19.2c-2.56 1.92-7.2 3.04-11.36 3.04-22.08 0-32.64-13.76-32.64-37.44 0-23.2 12.64-36.96 30.24-36.96 9.92 0 16.16 4.16 21.92 9.28l15.2-18.24c-8.16-8.16-20.64-15.52-38.08-15.52-31.84 0-58.56 22.72-58.56 62.4 0 40.32 25.92 61.12 58.88 61.12z"/><path d="m1004.9784 136.0508c10.72 0 23.2-3.68 32.64-10.4l-9.44-17.12c-6.56 3.84-12.64 5.76-19.2 5.76-11.52 0-20.159998-5.12-22.719998-17.6h53.439998c.64-2.08 1.28-7.2 1.28-12.16 0-24.96-12.8-44-39.04-44-22.079998 0-43.199998 18.24-43.199998 47.68 0 30.24 20.16 47.84 46.239998 47.84zm-19.199998-57.92c1.92-10.88 8.799998-15.84 16.639998-15.84 10.4 0 14.4 6.72 14.4 15.84z" fill-rule="nonzero"/><path d="m1058.01539 42.7708v91.04h28.32v-60.8c5.76-5.28 9.44-8.16 15.84-8.16 7.2 0 10.56 3.68 10.56 16.32v52.64h28.48v-56.48c0-22.56-8.48-36.8-28.32-36.8-12.32 0-21.6 6.24-29.12 13.6h-.64l-1.92-11.36z"/><path d="m1203.21239 136.0508c10.72 0 23.2-3.68 32.64-10.4l-9.44-17.12c-6.56 3.84-12.64 5.76-19.2 5.76-11.52 0-20.16-5.12-22.72-17.6h53.44c.64-2.08 1.28-7.2 1.28-12.16 0-24.96-12.8-44-39.04-44-22.08 0-43.2 18.24-43.2 47.68 0 30.24 20.16 47.84 46.24 47.84zm-19.2-57.92c1.92-10.88 8.8-15.84 16.64-15.84 10.4 0 14.4 6.72 14.4 15.84z" fill-rule="nonzero"/><path d="m1256.24938 133.8108h28.32v-52c4.8-12 12.8-16.32 19.68-16.32 4 0 6.72.64 9.92 1.44l4.8-24.48c-2.56-1.12-5.6-1.92-11.04-1.92-9.12 0-19.2 5.92-25.92 18.08h-.64l-1.92-15.84h-23.2z"/><path d="m1346.88637 136.0508c10.24 0 18.72-4.64 26.24-11.2h.64l2.08 8.96h23.2v-51.68c0-28.48-13.28-41.6-36.8-41.6-14.24 0-27.2 4.8-39.2 12l9.92 18.72c9.12-5.12 16.64-8 23.84-8 9.28 0 13.12 4.32 13.76 11.68-35.52 3.84-50.56 14.24-50.56 33.44 0 15.2 10.24 27.68 26.88 27.68zm9.92-22.08c-5.92 0-9.92-2.56-9.92-7.84 0-6.4 5.92-11.52 23.68-13.92v14.56c-4.16 4.48-8 7.2-13.76 7.2z" fill-rule="nonzero"/><path d="m1407.60336 65.0108h12.32v35.04c0 21.6 9.28 36 32.16 36 9.28 0 15.84-1.92 20.64-3.36l-4.48-20.48c-2.24.64-5.44 1.44-8.32 1.44-6.72 0-11.52-3.84-11.52-13.92v-34.72h21.44v-22.24h-21.44v-24h-23.52l-3.36 24-13.92 1.12z"/><path d="m1522.24036 136.0508c23.04 0 44.48-17.6 44.48-47.84 0-30.08-21.44-47.68-44.48-47.68-23.2 0-44.64 17.6-44.64 47.68 0 30.24 21.44 47.84 44.64 47.84zm0-23.04c-10.72 0-15.52-9.6-15.52-24.8 0-15.04 4.8-24.64 15.52-24.64 10.56 0 15.36 9.6 15.36 24.64 0 15.2-4.8 24.8-15.36 24.8z" fill-rule="nonzero"/><path d="m1583.43735 133.8108h28.32v-52c4.8-12 12.8-16.32 19.68-16.32 4 0 6.72.64 9.92 1.44l4.8-24.48c-2.56-1.12-5.6-1.92-11.04-1.92-9.12 0-19.2 5.92-25.92 18.08h-.64l-1.92-15.84h-23.2z"/></g><g fill="#e2725b" transform="translate(141 401)"><path d="m391.939447 772.928919c0-.301643-.259563-.546455-.579381-.546455-.31982 0-.579382.244812-.579382.546455 0 .301645.259562.546457.579382.546457.319818 0 .579381-.244812.579381-.546457m-1.320989-2.732277c0-.519134-.446124-.939904-.996537-.939904-.550411 0-.996535.42077-.996535.939904s.446124.939904.996535.939904c.550413 0 .996537-.42077.996537-.939904m77.19098.144263c-.385868-1.422969-1.000013-2.7596-1.774066-3.035012-.984947-.34864-2.789143-.575965-3.402127.128964 2.143711.959574.972202 3.165069 1.792607 3.592398.732336.381426 3.595639.091805 3.383586-.68635m-49.092142.620775c2.440354-1.609858 3.747438-1.539912 6.404481-2.813153-2.761332-2.031723-5.726606-2.056859-7.712724-.629516l3.413714.921323c.83315.225139-3.132136 1.857949-2.105471 2.521346m-25.469606.130057c3.209773-1.147557 4.742816-1.112584 6.439245.744271 1.411374-.666675 2.521468-3.852511.378914-4.638314-2.851713-1.045916-6.022088-.695091-8.18318.186887 1.400943 1.339911 2.872571.151915 4.023224 1.86232-1.362706.876516-2.965275.195632-2.658203 1.844836m-57.094558-12.841706c-.811135-2.341016-1.690634-4.48968-3.594481-3.541032-.95598.475417-3.710359 1.489637-1.565488 3.142119 1.095029.842634 4.271199 1.367231 5.159969.398913m93.091523-73.746363c-7.289777-9.675541-19.242415-15.108404-32.773286-14.064673-16.701248 1.288543-31.908851 15.85049-32.032838 31.886775-.128623 16.663615 12.894711 29.718439 28.308574 32.874765 16.450954 3.369445 32.332957-4.396781 39.722388-18.692059.483202-.936624-1.289705-2.456862-.400933-3.039385 7.222568-4.729027 3.92357-20.009017-2.823905-28.965423m-334.9508001-70.593315c0-.383612-.3290886-.693998-.7358145-.693998-.4067256 0-.7358142.310386-.7358142.693998s.3290886.694.7358142.694c.4067259 0 .7358145-.310388.7358145-.694m285.8795161 26.422221c6.796143 11.509446 20.432463 15.254852 31.200846 9.082089 10.299082-5.903904 14.051157-18.49752 7.0418-28.648478-6.423022-9.300673-18.96547-12.246068-29.283093-6.978238-9.392931 4.795694-14.689635 16.839575-8.959553 26.544627m-298.046525-28.061587c0-.383611-.3290886-.693998-.7358144-.693998-.4067256 0-.7358142.310387-.7358142.693998 0 .383612.3290886.693998.7358142.693998.4067258 0 .7358144-.310386.7358144-.693998m38.287839-37.692318c14.598093-9.202312 19.434768-28.405853 9.810085-42.373256-9.815879-14.245003-28.576248-18.995889-43.9518709-11.612182-15.4474661 7.416496-21.5217005 24.60143-15.6386619 40.210387 4.4855704 11.899615 28.7222521 27.049549 49.7804478 13.775051m601.772145-4.684216c10.633965-11.340047 12.193659-26.009099 3.93168-38.387411-9.164654-13.732427-28.268015-18.19697-43.265882-11.004521-14.960786 7.17496-22.572698 24.447329-16.204138 39.48032 4.310598 10.176096 13.84258 16.942308 23.252891 18.765284 12.375586 2.39894 24.305049-.343175 32.285449-8.853672m-71.621966-61.635815c-4.61883-8.841651-15.80089-12.741159-25.241331-10.577194-8.728959 2.002213-16.148518 9.597945-16.522797 18.861459-.373122 9.218705 5.698795 16.898592 13.187879 20.090986 8.998952 3.835024 18.790496 1.506031 24.83692-4.515909 6.100887-6.075492 8.06383-15.58054 3.739329-23.859342m-471.526055 28.182898c9.785752-4.776022 13.994378-14.585991 11.672217-23.770816-2.20049-8.699573-9.815879-14.196915-20.676962-15.806775-5.718494-.848097-13.849532 2.911516-18.065111 7.691909-6.826271 7.742183-5.812354 19.028677.597921 26.272491 6.117109 6.910476 16.986304 10.243856 26.471935 5.613191m-17.697783-267.174141c-12.330395 4.126831-17.116084 17.172911-12.38138 27.876882 4.43922 10.036203 17.023384 15.354308 28.740792 10.876652 10.191319-3.895136 16.190233-15.799122 12.280568-26.169756-3.975715-10.548779-16.651421-16.595856-28.63998-12.583778m455.189817 35.251848c8.741705 6.908291 21.426681 6.950913 29.80917-.808755 7.778775-7.202285 9.011699-19.322669 1.832005-27.817866-6.912021-8.179348-18.886674-10.098499-29.198505-5.074386-9.790386 4.769464-15.490339 23.391575-2.44267 33.701007m112.957349-40.485799c4.701102-13.257013.539985-26.358831-9.29907-34.863865-10.125269-8.750939-25.266822-10.459159-37.874159-4.593505-11.682646 5.435046-17.951554 16.669079-18.028033 28.156667-.077635 11.556443 5.953724 22.378449 16.967765 28.249567 18.284116 9.746582 41.387529 2.356316 48.233497-16.948864m-595.127798-4.179294c3.714994-14.335715-3.594482-28.871432-17.229643-35.299935-13.099813-6.176041-29.367683-4.264539-40.4269146 6.839438-9.2364978 9.275537-11.9016522 24.757715-4.6188283 37.052966 7.2260444 12.19798 20.0755645 18.510634 34.9285849 16.474542 13.230754-1.814234 23.724509-11.086492 27.346801-25.067011m247.646139 312.40864c.654701 6.992445 3.529591 12.676677 8.788057 15.22753 5.854068 2.841571 12.738278 3.585842 18.338578-.100546 5.660557-3.725735 8.480985-9.80232 9.148433-16.377274 2.442671-24.077924 12.805487-46.467302 32.728095-61.986639 22.079065-17.199143 50.810586-22.240741 78.788914-17.250509 19.513564 3.480921 31.87061 14.130248 43.902043 16.013333 8.472875 1.325701 16.519323-3.323542 19.200699-9.73128 3.118231-7.45584.341836-16.191477-7.324539-19.945627l-28.10695-13.767401c-2.653565-1.299472-5.134477-2.486373-7.617705-3.85907-20.235473-11.185945-30.151007-31.777483-30.436063-53.36357-.319818-24.192681 12.367475-45.968935 34.879917-57.570186l28.330591-14.601291c8.141467-4.195686 14.027982-12.158637 11.717409-21.299745-1.726556-6.833975-9.474044-11.51054-16.800902-11.00343-7.555132.523504-13.508855 3.735571-19.381465 7.640542-40.761796 27.10201-96.815785 17.778385-124.482404-21.30958-8.844837-12.496346-14.468314-25.945711-15.310734-41.175427l-1.136745-20.562029c-.511015-9.2504-7.289777-16.173992-16.785837-16.760886-8.577163-.531155-17.220373 5.421932-18.057001 14.259212l-2.723091 28.764328c-2.527261 26.700911-20.442892 48.9187-42.76414 60.851104-26.736132 14.290906-58.069077 16.180549-83.05432 2.495116l-22.831102-12.505088c-5.156493-2.825175-11.745219-2.743208-16.900555-.11585-4.359266 2.222981-8.706943 6.631785-9.087017 12.415471-.492474 7.483163 4.299009 13.933524 10.964213 17.465813l28.184586 14.937908c36.91007 19.560923 47.111818 62.063143 24.259858 94.714956-7.797315 11.141136-18.643335 17.781663-30.872916 23.48666l-21.697833 10.121449c-7.447367 3.474363-12.284044 11.600158-9.426535 19.34234 3.721945 10.087571 16.073198 14.116041 25.948173 9.665707 21.119611-9.519256 27.772067-14.708398 52.275265-16.306234 53.018031-3.456878 92.611794 31.683493 97.343023 82.190193m38.024799-396.615254c3.33492-8.310496 1.590982-17.243951-4.805389-22.94239-9.89931-8.8187-25.543767-7.248186-33.34224 2.989112-7.53775 9.89631-4.236435 24.281206 7.61539 30.257244 10.849496 5.471113 25.602863 1.978169 30.532239-10.303966m12.712786-68.308037c2.297827-6.177133 2.705711-10.9061597 1.616474-17.2865747-2.340701-13.7149415-15.4718-23.7030562-29.62261-25.6254868-14.695429-1.9956556-29.752393 4.585855-36.549695 17.4625336-9.837897 18.6363199 1.885308 40.2879819 22.710591 45.4508939 17.704736 4.390224 35.655131-3.366166 41.84524-20.001366m-112.663026 656.606784c-39.560159-45.807183-13.257404-94.529159 5.11362-143.263159 8.465922-22.459323 7.197077-44.988593-10.891211-62.554952-18.557585-18.021013-46.918303-21.792648-70.011285-8.931271-9.760258 5.436141-17.021066 12.40017-24.471911 20.551101-16.104484 17.617727-32.043266 35.398298-51.573053 49.248761l-14.169351 10.049317c-2.855191-.75848-6.896956-1.807674-9.042984-2.134455.200465-2.662331-.75899-4.132298-2.900384-5.445976-2.369669-1.453573-4.209785-2.633916-7.720836-1.029522-.81461-1.418599-.349946-2.324623-.450758-3.887485-3.301315-.392355-5.141431-2.735557-7.852936-4.259075-3.460065-1.943196-2.873731 4.911543-7.135661 5.438326-1.223653.150821-1.796082-1.541005-2.57477-2.929003-1.735827-.394541-3.046388.712579-5.327991.683071.991901 2.475442 3.8019 3.326821 6.356972 4.524652-3.489035 1.932265-5.227179-2.150849-7.775298-1.8656l-1.418326 5.155262c-.293167 1.065588-2.929352 1.788002-5.048729.486345 2.330272-2.384731 4.216738-3.336657 6.288605-6.414296-8.632782-2.398939-7.474019 5.261274-12.2272639 2.896215-2.2097607-1.098375 1.548107-6.135602-2.2769688-4.039399-.5133319.280878-1.8945771.850284-2.0208823 1.718056-.0822722.566127 1.651237 1.028429 1.7821772 1.844833.1448453.90056-.7786886 2.316972-1.5724411 2.404406-1.3233071.145356-3.3627295 1.095097-4.4647129-.85575.6987339-.359567 1.8528617-.778152 1.997707-1.47215.3198185-1.530076-2.5991049-5.558547-2.9687502-5.686418-1.1993193-.41312-1.8934183.875423-2.7115047 1.676525-.1100824.108199 7.4137641 10.420907-8.6953558-3.157419-1.2630512 2.235003 2.9977194 4.908264 2.4218141 5.971667-.5434596 1.003291-.6489069 2.359594-1.6755709 2.935559-.0567793-2.863429-1.078808-5.628494-3.3615706-6.201179-3.0371172-.760665-6.0278838-.311479-6.9966095 3.230646-2.1912203-1.155208-4.3001686-2.802224-5.303657-4.487493 1.1355875-2.342109.4924742-4.223008-1.2433525-7.569502-.859802.921323-2.0672326 1.819696-4.2769932 1.609858.3163422-1.013128 2.8911129-1.277614 2.3476533-2.501675-.2120536-.478694-2.0510101-1.048101-2.4241318-.499459-4.9154714 7.233978-5.9722631 2.595664-11.164679 7.694094-.2491339-2.713698-3.7300572-3.37491-4.2132613-5.095152-1.2630515-4.500608-4.4229975-10.449323-8.9862051-10.688671 1.6326967-1.363953 3.0510223-.085247 3.7740903-1.528981-2.0614389-.583616-3.199344-.946463-3.5840532-3.001134-2.2016492-1.374884-2.114742-.355196-1.455406 2.454677-2.6941234-3.079822-5.929389-6.0744-10.1171575-5.989153-.7937525 2.694027-.0845897 4.682031.4762515 4.033935.3858679-.444815.9362804-2.295114 2.2213483-2.34648 1.1923668 5.551989 7.6234999 14.46905 1.2781151 13.566307-1.1112534-.15738-1.860973-1.277614-2.9281934-2.474351-.5863339-.656841-2.9687501.402191-3.75555-.719136-10.32341732-14.706213-16.45211348-31.120644-17.08248041-48.531811-1.58518743-43.780927 29.19502731-82.109319 74.66719491-91.286493 14.8541797-2.997856 29.3757944-4.874383 44.6865264-5.531224 3.190074-.137705 5.463566-.519132 8.549352-1.005477 20.345556-3.20223 40.605364-4.708261 59.94859-10.915996 20.175219-6.475499 32.8347-20.791541 31.246037-40.2235-.88993-10.87993-7.659421-20.581702-18.454455-27.289991-12.428889-7.723604-26.087226-12.808919-40.995867-15.883278l-85.298843-17.589311c-49.3041962-10.166258-80.12728512-54.475061-73.79464672-101.864779 5.63738076-42.184183 40.08276212-76.581374 86.39850892-82.212052 30.8404708-3.748685 60.0853248 5.088594 82.7541998 25.081217 11.215665 9.893031 21.657276 20.49099 30.192723 32.601538 1.551583 2.201124 2.581723 3.126819 4.290898 4.923565 20.813696 21.882265 41.421133 54.196369 77.514274 51.953715 21.211153-1.316958 39.6181-15.042829 46.677282-33.775325 8.255025-21.905218-2.973385-54.02806-10.205224-75.227257-5.594505-16.396945-11.346605-31.916283-15.667631-48.521974-12.73596-48.9482101 16.745281-97.1794701 67.152619-111.58731719 58.042427-16.58929771 118.594731 17.46581239 128.467391 74.52560829 1.297814 7.5028348 1.971055 16.2450307.966407 23.3380239-2.636185 18.594789-8.754452 35.374254-14.610839 53.041162-9.807768 29.587289-28.850875 73.7868-4.526127 100.074591 12.507684 13.519309 30.54962 21.448381 49.493074 17.467998 16.251648-3.414253 19.775446-4.629571 32.510248-16.199128 28.300462-25.707455 51.296108-64.24678 81.805172-83.200044 28.157935-17.492042 65.9336-20.200276 96.077656-7.125781 44.601936 19.346713 68.287046 65.86101 55.756185 110.72829-9.192463 32.919574-35.875293 58.462-71.392529 65.936419l-91.921173 19.34562c-14.364024 3.022991-27.3862 8.499569-38.481353 17.106244-17.986315 13.952103-19.052376 37.631116-2.327955 53.151545 8.376697 7.773877 19.939991 11.638412 31.768641 14.152107 22.754624 4.836131 45.206811 7.381522 68.523435 10.06899 33.819649 3.899506 51.5661 6.453641 77.681135 27.215672 1.969897 1.566142 2.731205 2.790203 4.391713 4.548696 37.468593 39.675952 31.108144 98.735776-12.058085 132.782143-2.645456 2.086367-5.745147-1.108213-6.825114-2.886379-.896883 2.290742-2.432244 3.806609-2.584041 5.527944 2.16457.081969 2.297827-1.290728 2.803047-1.569421 1.165717-.64263 2.366194.118035 3.168058 1.727893-3.457748-.522412-3.499463 1.883087-5.127526 2.909329-33.922778 21.372969-77.175915 21.273516-111.653743.46886-13.437013-8.108308-24.693234-17.763085-35.191623-29.063785l-33.541547-36.105411c-8.93522-9.618712-20.330493-16.972911-33.830078-19.596989-25.607499-4.978211-52.011066 8.07552-63.015836 29.8168-4.440379 8.770611-6.45315 17.498599-5.435755 27.408025 3.451953 33.660568 22.981741 62.057678 27.765114 98.249428 4.132148 31.262722-8.664071 61.86642-35.130212 81.262313l-3.5771-10.997963c-4.46819-.320225-8.927109-1.204389-12.318807-3.379282 1.157605 1.182531-12.164692 6.233965-9.872658 6.094072-1.804193.110384-1.746254-1.247011-2.052168-2.946488-.261882-1.45248 2.449624-.013116 4.076526-1.527891-2.735838-1.942101-5.97458-.64591-8.091641 1.802211-2.026675-.543176-3.768296-1.35193-6.045265-2.451399 1.937453 6.412109 7.46591 3.832839 4.909679 9.402314-.660495 1.438272-2.027835 1.221875-4.029019 1.066681-1.804193-.140985-1.168033 2.314787-2.720774 3.766172-.458871-2.707141-2.244524-4.207707-5.016285-4.890777 3.960652-6.091886-1.216699.027323-5.454295-5.509365-.527237-.689628-1.341847-.516947-2.125172-.70602-1.003488-.242626-.728861.530061-1.39399 1.58472-1.373135 1.896201-4.876074.426236-7.084676 1.012037-.222484 1.802209 1.587505 3.469992-.217847 2.650308-.342995-.156286-1.128635-.907116-1.862132-.434977.434536 1.483079 1.223652 2.716975 3.782202 3.130097-.048668 1.570514-3.417192 2.161778-4.951394 1.254662-1.100824-.650283-1.995389-2.341017-1.77986-4.475471.187719-1.068867-1.281591-.865587-1.820415.157379-.695259 3.14649-6.783398 5.996802-8.567892 3.954152-2.022041-9.679914-13.33736-2.555227-17.333932-6.106093 2.261905-.650283 6.044107-.156287 6.754427-2.708234.237546-.854658-1.986118-1.697292-2.643136-1.500568-.655862.196724-1.294339 2.28637-2.219031 2.276534-2.571296-.028415-4.667496-2.369432-7.834396-.443723.625732 1.207667 2.246842 1.19346 3.147201 2.403312 1.197 1.610952-.617622 2.476536-1.588665.820776-2.916605-4.062349-8.94333 2.973811-15.324637-.520224.004635-1.878714 1.666301-4.525746.062573-5.882049-2.747426-2.321342-4.133306-4.653616-5.344213-3.073266-.285056.372683-1.721922-.379239-1.32215-.966133.472776-.696185 2.120536-.053553 3.144884-1.107118-3.965288-4.103883-10.332688-1.986913-13.786961 2.374896-1.682524-1.503846-4.762513-3.017528-7.987351-.884166-1.221335-1.301657-.380073-1.521333.965251-2.797852-2.198174-1.348654-3.192394.02295-5.848278 4.192406" mask="url(#b)"/><path d="m411.977467 778.02746c-.034762 2.109319-.923534 3.854696-2.446147 4.083116-.353423-.89728.237547-2.003308.294325-2.78146.038239-.537711-1.147174-.769409-1.486693-1.736636.332566-1.318051 3.660533-.851378 3.638515.43498"/><path d="m408.919609 774.754082c-1.028982.926788-1.959468 1.241547-2.354607 1.222968-.376598-.017487-.834308-.240441-1.330259-.771596-.200465-.214211 2.563184-3.170535 3.557402-2.784738.597921.23279 1.318672 1.260127.127464 2.333366"/><path d="m57.1866795 611.859943c-1.7566842 2.450307-3.9096654 2.700584-4.6443211 1.703848.283897-1.662318 3.6941356-2.942115 4.6443211-1.703848"/><path d="m74.1710128 623.597481c-1.7010638-1.165044-2.6025813-.951926-4.0521935-1.038265 1.1019836-2.326808-.4171545-3.451413-1.4890099-5.482043 3.9235705.443723 4.4380613 4.206614 5.5412034 6.520308"/><path d="m52.2615903 616.611374c1.0000122-.990178 2.0058182-.707113 2.4531008.00765.4866803.77706.0903834 1.760681-1.6408081 1.732266-.7775299-.013116-2.5921523.02295-.8122927-1.739916"/><path d="m102.355483 622.647194c0 .66777-.573587 1.208761-1.281592 1.208761-.706845 0-1.281591-.540991-1.281591-1.208761 0-.667768.574746-1.208759 1.281591-1.208759.708005 0 1.281592.540991 1.281592 1.208759"/><path d="m80.1757213 624.375742c-.6871464.753017-2.7810306 1.10712-3.8424573-.634981.9756783-1.793467 1.3279421-.304921 3.8424573.634981"/><path d="m58.5727915 614.906105c1.2109071.617495.7022103 1.200016-.6315256 1.342096-2.691806-.175959-2.3499709-1.491824.6315256-1.342096"/><path d="m345.745254 765.824997c0 .383612-.329088.694-.735814.694-.405567 0-.735814-.310388-.735814-.694s.330247-.693998.735814-.693998c.406726 0 .735814.310386.735814.693998"/><path d="m97.6137101 623.200098c0 .301644-.2595629.546456-.5793815.546456-.3198183 0-.5793812-.244812-.5793812-.546456 0-.301643.2595629-.546455.5793812-.546455.3198186 0 .5793815.244812.5793815.546455"/><path d="m453.353872 768.557276c0 .301643-.259562.546455-.57938.546455-.31982 0-.579383-.244812-.579383-.546455 0-.301645.259563-.546456.579383-.546456.319818 0 .57938.244811.57938.546456"/><path d="m343.271412 765.278542c0 .301643-.259562.546455-.579382.546455-.319818 0-.57938-.244812-.57938-.546455 0-.301642.259562-.546456.57938-.546456.31982 0 .579382.244814.579382.546456"/><path d="m412.797176 771.836008c0 .301645-.259562.546456-.57938.546456-.31982 0-.579383-.244811-.579383-.546456 0-.301643.259563-.546455.579383-.546455.319818 0 .57938.244812.57938.546455"/><path d="m407.003362 780.579298c0 .301642-.259563.546454-.579381.546454s-.57938-.244812-.57938-.546454c0-.301643.259562-.546455.57938-.546455s.579381.244812.579381.546455"/><path d="m407.950531 27.0710862c0 .3016435.259563.5464556.579381.5464556.31982 0 .579382-.2448121.579382-.5464556 0-.3016434-.259562-.5464555-.579382-.5464555-.319818 0-.579381.2448121-.579381.5464555m1.320989 2.7322778c0 .5191328.446124.9399036.996537.9399036.550411 0 .996535-.4207708.996535-.9399036s-.446124-.9399036-.996535-.9399036c-.550413 0-.996537.4207708-.996537.9399036m-77.19098-.1442643c.385868 1.4229703 1.000012 2.7596006 1.774066 3.0350142.984949.3486386 2.789143.5759641 3.402128-.1289635-2.143712-.959576-.972203-3.1650706-1.792606-3.5923988-.732338-.381426-3.595641-.0918046-3.383588.6863481m49.092144-.6207735c-2.440356 1.6098581-3.747441 1.5399118-6.404483 2.8131532 2.761332 2.0317218 5.726605 2.0568587 7.712726.6295168l-3.413716-.921324c-.83315-.2251397 3.132135-1.8579489 2.105473-2.521346m25.469604-.1300564c-3.209773 1.1475567-4.742817 1.1125835-6.439245-.7442725-1.411372.6666758-2.521467 3.8525117-.378915 4.6383148 2.851716 1.0459159 6.022091.6950914 8.183183-.1868878-1.400945-1.339909-2.872573-.1519147-4.023224-1.8623206 1.362704-.8765146 2.965273-.195631 2.658201-1.8448339m57.094558 12.8417054c.811134 2.3410156 1.690636 4.4896788 3.594483 3.541032.955978-.4754162 3.710357-1.4896378 1.565488-3.1421194-1.095032-.8426343-4.271199-1.3672318-5.159971-.3989126m-93.091523 73.7463628c7.289777 9.675542 19.242414 15.108403 32.773288 14.064673 16.701246-1.288542 31.908849-15.85049 32.032836-31.8867745.128622-16.6636156-12.894712-29.7184386-28.308574-32.8747661-16.450955-3.3694448-32.332957 4.3967815-39.722386 18.6920588-.483204.9366248 1.288544 2.4568642.400931 3.0393857-7.222568 4.7290264-3.923571 20.0090171 2.823905 28.9654231m334.9508 70.593314c0 .383612.329088.693999.735814.693999s.735816-.310387.735816-.693999-.32909-.693999-.735816-.693999-.735814.310387-.735814.693999m-285.879516-26.422219c-6.796142-11.509447-20.432463-15.254853-31.200844-9.082091-10.299084 5.903906-14.051157 18.49752-7.041802 28.648479 6.423022 9.300673 18.96547 12.246069 29.283093 6.978237 9.392931-4.795694 14.689636-16.839574 8.959553-26.544625m298.046525 28.061586c0 .383611.329088.693998.735814.693998s.735816-.310387.735816-.693998c0-.383612-.32909-.693999-.735816-.693999s-.735814.310387-.735814.693999m-38.287838 37.692318c-14.598093 9.202312-19.434769 28.405853-9.810086 42.373256 9.81588 14.245003 28.576248 18.995889 43.951872 11.612182 15.447466-7.416496 21.5217-24.601431 15.638661-40.210387-4.485571-11.899615-28.722253-27.049549-49.780447-13.775051m-601.7721451 4.684216c-10.6339656 11.340047-12.1936602 26.009099-3.9316818 38.387411 9.1646545 13.732427 28.2680169 18.19697 43.2658829 11.004521 14.960786-7.17496 22.572699-24.447329 16.204138-39.48032-4.310597-10.176096-13.842579-16.942308-23.252891-18.765284-12.3755866-2.398941-24.305049.343175-32.2854481 8.853672m71.6219661 61.635815c4.618829 8.841651 15.800889 12.741159 25.241329 10.577194 8.72896-2.002213 16.148518-9.597945 16.522798-18.86146.373122-9.218704-5.698795-16.898591-13.187878-20.090985-8.998952-3.835024-18.790497-1.506031-24.836921 4.515908-6.100886 6.075495-8.06383 15.580543-3.739328 23.859343m471.526054-28.182898c-9.785752 4.776022-13.995537 14.585992-11.672217 23.770816 2.20049 8.699573 9.815878 14.196915 20.676963 15.806774 5.718494.848098 13.849531-2.911516 18.065111-7.691908 6.826272-7.742183 5.812353-19.028675-.599081-26.272492-6.11595-6.910476-16.985144-10.243855-26.470776-5.61319m17.697784 267.174141c12.330393-4.126831 17.116083-17.172911 12.381379-27.876882-4.439221-10.037296-17.023384-15.354309-28.740792-10.876652-10.191319 3.895136-16.190233 15.799122-12.280569 26.169756 3.975717 10.548779 16.651422 16.595856 28.639982 12.583778m-455.189817-35.251846c-8.741706-6.908293-21.426682-6.952008-29.809171.808753-7.778775 7.202285-9.011698 19.322669-1.832004 27.817867 6.912019 8.179347 18.886673 10.098498 29.198503 5.074387 9.790387-4.769466 15.49034-23.391577 2.442672-33.701007m-112.9573511 40.485799c-4.7011003 13.257011-.5399834 26.358829 9.2990712 34.863863 10.1252688 8.750939 25.2668219 10.459159 37.8730019 4.593505 11.683804-5.435046 17.952711-16.669079 18.029189-28.156668.077637-11.556443-5.953723-22.378448-16.967763-28.249566-18.284117-9.746582-41.3875287-2.356317-48.2334991 16.948866m595.1278001 4.179292c-3.714994 14.335715 3.593322 28.871432 17.229641 35.299935 13.099813 6.176041 29.367684 4.264539 40.426915-6.839438 9.236498-9.275537 11.901652-24.757715 4.618828-37.052966-7.226044-12.19798-20.075564-18.510634-34.928585-16.47454-13.230753 1.814232-23.724508 11.08649-27.346799 25.067009m-247.64614-312.40864c-.654701-6.992445-3.529591-12.676676-8.788055-15.228624-5.85407-2.840476-12.73828-3.584748-18.33858.101641-5.660556 3.725734-8.480985 9.802319-9.148431 16.377273-2.442673 24.077924-12.805489 46.467302-32.728096 61.986638-22.079067 17.199144-50.810588 22.240742-78.790074 17.25051-19.512405-3.480921-31.869451-14.130248-43.900884-16.013333-8.472873-1.325701-16.519321 3.323541-19.200699 9.73128-3.118231 7.45584-.341835 16.191477 7.324539 19.945627l28.10695 13.767401c2.653567 1.299471 5.134477 2.486373 7.617707 3.85907 20.235473 11.185945 30.151004 31.777482 30.436061 53.36357.319818 24.192681-12.367475 45.968935-34.879918 57.570186l-28.33059 14.601291c-8.141468 4.195686-14.027982 12.158636-11.717409 21.299745 1.726557 6.833974 9.474045 11.51054 16.800901 11.00343 7.555132-.523504 13.508856-3.735571 19.381466-7.640542 40.761798-27.10201 96.815787-17.778385 124.482406 21.30958 8.844835 12.496347 14.468311 25.945711 15.310732 41.175426l1.136745 20.56203c.511015 9.2504 7.289777 16.173992 16.785839 16.760885 8.57716.531156 17.220371-5.421931 18.056999-14.259211l2.723093-28.764328c2.527261-26.700911 20.442892-48.918701 42.764137-60.851104 26.736135-14.290906 58.069079-16.180549 83.054321-2.495117l22.831102 12.505089c5.156495 2.825177 11.74522 2.743208 16.900555.11585 4.359266-2.222981 8.706944-6.631785 9.087018-12.415471.492474-7.483163-4.299011-13.933524-10.964215-17.465813l-28.184585-14.937908c-36.91007-19.560923-47.111816-62.063144-24.259856-94.714956 7.797314-11.141136 18.643333-17.781663 30.872914-23.48666l21.697833-10.12145c7.447369-3.474362 12.284045-11.600158 9.426534-19.342339-3.721944-10.087571-16.073197-14.116041-25.948172-9.665705-21.119611 9.519254-27.772068 14.708396-52.275265 16.306232-53.018029 3.456878-92.611794-31.683493-97.343023-82.190193m-38.024799 396.615254c-3.33492 8.310496-1.590982 17.243951 4.805389 22.94239 9.89931 8.818699 25.543766 7.248186 33.34224-2.989112 7.53775-9.89631 4.236435-24.281206-7.61539-30.257245-10.849496-5.471112-25.602863-1.978167-30.532239 10.303967m-12.712786 68.308037c-2.297827 6.177134-2.705711 10.90616-1.616474 17.286574 2.3407 13.714942 15.471799 23.703058 29.62261 25.625487 14.695429 1.995656 29.752393-4.585854 36.549695-17.462533 9.837896-18.63632-1.885306-40.287982-22.710591-45.450894-17.704736-4.390224-35.655129 3.366166-41.84524 20.001366m112.663025-656.6067844c39.56016 45.8071832 13.256247 94.5291604-5.113619 143.2631594-8.465922 22.459323-7.197077 44.988593 10.89121 62.554952 18.557586 18.021013 46.918304 21.792648 70.011286 8.93127 9.760258-5.43614 17.021066-12.400169 24.471911-20.5511 16.104484-17.617727 32.042108-35.398298 51.573054-49.24876l14.169351-10.049318c2.855191.75848 6.896955 1.807675 9.042983 2.134455-.200466 2.662332.75899 4.132297 2.900384 5.445977 2.369669 1.453571 4.209785 2.633915 7.720835 1.029522.81461 1.418598.349948 2.324622.45076 3.887485 3.301315.392355 5.141431 2.735556 7.852934 4.259074 3.460065 1.943196 2.873732-4.911542 7.135661-5.438325 1.223654-.150822 1.796084 1.541004 2.574771 2.929001 1.735826.393448 3.046388-.712578 5.327992-.683069-.991901-2.475444-3.801901-3.326821-6.356974-4.524652 3.489037-1.932267 5.22718 2.150849 7.775299 1.865599l1.418325-5.155261c.293168-1.065589 2.929353-1.788003 5.048731-.486346-2.330272 2.384732-4.216739 3.336658-6.288607 6.414295 8.632782 2.39894 7.47402-5.261274 12.227265-2.896214 2.209761 1.098376-1.548107 6.135603 2.276969 4.039399.513333-.280878 1.894577-.850285 2.020883-1.718056.082271-.566128-1.651238-1.028429-1.782178-1.844834-.144846-.900559.77869-2.316971 1.572442-2.404404 1.323306-.145358 3.362729-1.095097 4.464712.855749-.698733.359568-1.852862.778153-1.997706 1.472151-.31982 1.530076 2.599104 5.558546 2.968749 5.686417 1.199319.41312 1.893418-.875422 2.710347-1.676526.111241-.108198-7.412605-10.420907 8.696513 3.15742 1.263052-2.235003-2.997718-4.908263-2.421813-5.971666.54346-1.003292.648906-2.359595 1.67557-2.935559.05678 2.863427 1.078809 5.628492 3.362729 6.201177 3.03596.760667 6.025568.31148 6.995451-3.230645 2.191222 1.155207 4.300168 2.802224 5.303658 4.487493-1.135588 2.342109-.492474 4.223009 1.243352 7.569503.859802-.921324 2.067233-1.819697 4.276994-1.609858-.316343 1.013128-2.891114 1.277613-2.347654 2.501673.212053.478695 2.05101 1.048102 2.424131.49946 4.915473-7.233978 5.972263-2.595663 11.164679-7.694094.249134 2.713698 3.730059 3.37491 4.213261 5.095152 1.263053 4.500608 4.422999 10.449323 8.986206 10.68867-1.632696 1.363954-3.051023.085247-3.774091 1.528983 2.061439.583615 3.199344.946461 3.584054 3.001134 2.201649 1.374882 2.114743.355196 1.455406-2.454678 2.694124 3.079823 5.929388 6.0744 10.117158 5.989152.793752-2.694025.08459-4.682031-.476252-4.033934-.385868.444814-.936281 2.295113-2.221348 2.34648-1.192368-5.551989-7.62466-14.46905-1.278115-13.566306 1.111253.157379 1.860973 1.277613 2.928192 2.473258.586334.657932 2.968751-.401098 3.755551.720228 10.323417 14.706212 16.452114 31.120644 17.08248 48.531811 1.585187 43.780926-29.195027 82.109319-74.667194 91.286493-14.85418 2.997856-29.375795 4.874383-44.686527 5.531224-3.191233.136612-5.463566.519131-8.549352 1.005477-20.345556 3.20223-40.605362 4.708261-59.948591 10.915996-20.175218 6.475498-32.8347 20.791541-31.246037 40.2235.888772 10.87993 7.659422 20.581702 18.454455 27.289991 12.428891 7.723603 26.087226 12.808919 40.995869 15.883278l85.298842 17.588218c49.304197 10.167352 80.127284 54.475062 73.794646 101.865871-5.637381 42.184184-40.082762 76.581376-86.398508 82.212053-30.84047 3.748685-60.085325-5.088593-82.754199-25.081218-11.215665-9.89303-21.657277-20.490989-30.192722-32.601537-1.551585-2.201124-2.581725-3.12682-4.290899-4.923565-20.813697-21.882265-41.421134-54.196369-77.514275-51.953715-21.211153 1.316958-39.618098 15.042829-46.677282 33.775325-8.255026 21.905217 2.973385 54.02806 10.205224 75.227256 5.594507 16.396947 11.346604 31.916283 15.66763 48.521975 12.735963 48.948211-16.74528 97.179469-67.152618 111.587317-58.042425 16.589298-118.594731-17.465813-128.467391-74.525608-1.297814-7.502835-1.971053-16.24503-.966407-23.338023 2.636185-18.59479 8.754452-35.374254 14.610838-53.041163 9.807769-29.58729 28.850876-73.7868 4.526128-100.074591-12.507684-13.51931-30.549621-21.448381-49.494233-17.467998-16.250489 3.414255-19.774285 4.629572-32.509089 16.199129-28.300463 25.707454-51.296108 64.246779-81.805173 83.200043-28.157934 17.492043-65.9335999 20.200275-96.0776538 7.12578-44.6019369-19.346712-68.28704737-65.861009-55.75618705-110.728289 9.19246485-32.919575 35.87529455-58.462 71.39253145-65.936419l91.9211724-19.34562c14.364023-3.022991 27.386198-8.499569 38.481352-17.106244 17.986315-13.952103 19.051217-37.631116 2.327955-53.151545-8.376697-7.773877-19.93999-11.638412-31.76864-14.152108-22.754624-4.83613-45.206811-7.38152-68.523435-10.068989-33.8196496-3.899506-51.5661011-6.453641-77.6811371-27.215672-1.9698966-1.566142-2.7312037-2.790203-4.3917107-4.548697-37.4685933-39.675951-31.10814463-98.735774 12.0580851-132.782141 2.6454554-2.086367 5.7451457 1.108212 6.8251126 2.886378.8968823-2.290741 2.4322431-3.806609 2.5840409-5.527944-2.1645689-.081968-2.2978265 1.290728-2.8030471 1.56942-1.1657152.642632-2.3661935-.118034-3.1680573-1.727892 3.4577479.522411 3.4994634-1.883086 5.127525-2.90933 33.9227794-21.372969 77.1747576-21.273514 111.6537436-.468858 13.437012 8.108307 24.693234 17.763084 35.191624 29.063785l33.541545 36.105412c8.935221 9.61871 20.330493 16.972909 33.830081 19.596987 25.607497 4.978211 52.011064-8.076613 63.015834-29.8168 4.440379-8.770611 6.453149-17.4986 5.435757-27.408025-3.451955-33.660569-22.981743-62.057678-27.765114-98.249429-4.132148-31.2627224 8.664068-61.8664191 35.130209-81.2623125l3.577101 10.9979644c4.468189.320223 8.927108 1.2043881 12.318806 3.3792812-1.157604-1.1825298 12.164692-6.233965 9.872658-6.0940724 1.804196-.110384 1.746257 1.2470116 2.052171 2.9464884.261879 1.4524788-2.449626.0131149-4.076529 1.5278897 2.735839 1.942103 5.974581.6459105 8.091641-1.8022104 2.026675.5431768 3.768296 1.351931 6.045265 2.4513996-1.937452-6.4121094-7.465909-3.8328392-4.909678-9.4023142.660495-1.4382711 2.027835-1.2218747 4.029019-1.0666813 1.804193.1409856 1.168033-2.3147857 2.720775-3.7661716.45887 2.7071408 2.244523 4.2077077 5.016284 4.8907771-3.960652 6.0918866 1.216701-.0273227 5.454295 5.5093649.527237.6896269 1.341849.516947 2.125172.7060206 1.003488.2426263.728861-.5300619 1.39399-1.5847211 1.373135-1.8962008 4.876074-.4262353 7.084676-1.0120357.222483-1.8022104-1.587505-3.4699927.217847-2.6503094.342995.1562863 1.128635.9071162 1.862132.4349786-.434536-1.4830804-1.223652-2.716977-3.7822-3.1300974.048668-1.5705133 3.417189-2.1617782 4.951392-1.2546619 1.100824.6502821 1.99539 2.3410156 1.77986 4.474378-.18772 1.06996 1.281591.8655856 1.820417-.1562863.695257-3.146491 6.783396-5.9968032 8.56789-3.9541523 2.022041 9.6799136 13.337359 2.5552261 17.333933 6.1060943-2.261906.6502821-6.044106.1562863-6.754428 2.7082337-.237547.8546565 1.986118 1.697291 2.643138 1.500567.655859-.196724 1.294337-2.2863701 2.219031-2.2765339 2.571293.0284157 4.667496 2.3694313 7.834393.4437219-.625731-1.2076667-2.246839-1.1934589-3.147198-2.4033115-1.197002-1.6109509.61762-2.4765365 1.588663-.8207762 2.916605 4.0623506 8.943332-2.9738111 15.324638.5202257-.004636 1.8787142-1.666302 4.5257448-.062574 5.8820475 2.747428 2.3213432 4.133306 4.6536155 5.344215 3.0732661.285054-.3726827 1.72192.3792401 1.322147.9661334-.472775.6961843-2.120536.0535526-3.144881 1.1071189 3.965286 4.1038813 10.332686 1.9869125 13.786958-2.3748958 1.682524 1.5038457 4.762516 3.0175275 7.987352.8841651 1.221335 1.3016571.380073 1.5213322-.965249 2.7978524 2.198174 1.3486523 3.192391-.0229511 5.848275-4.192407" mask="url(#c)"/><path d="m387.912515 21.9725407c.034762-2.1093185.923534-3.8546976 2.446149-4.083116.353421.89728-.237547 2.003306-.294327 2.7814588-.038239.5377122 1.147176.7694094 1.486693 1.7366357-.332566 1.3180508-3.660531.8513778-3.638515-.4349785"/><path d="m390.970257 25.2459186c1.028982-.9267886 1.959468-1.2415469 2.354607-1.2229674.376598.0174865.834308.2404404 1.330259.7705023.200467.2153034-2.563182 3.1716281-3.557402 2.7858304-.597921-.23279-1.318672-1.2601266-.127464-2.3333653"/><path d="m742.703303 188.139947c1.756684-2.450306 3.909666-2.700583 4.644322-1.703848-.283898 1.662318-3.694137 2.942117-4.644322 1.703848"/><path d="m725.71897 176.402519c1.701064 1.165043 2.602582.951926 4.052193 1.039359-1.101983 2.325714.417155 3.45032 1.48901 5.480949-3.923571-.443722-4.438062-4.206615-5.541203-6.520308"/><path d="m747.628392 183.388516c-1.000012.990178-2.005817.707114-2.4531-.00765-.486682-.77706-.090385-1.76068 1.640807-1.732264.777531.013115 2.592153-.022951.812293 1.739914"/><path d="m697.534384 177.352805c0-.667768.573588-1.208759 1.281591-1.208759.706845 0 1.281591.540991 1.281591 1.208759 0 .667769-.574746 1.20876-1.281591 1.20876-.708003 0-1.281591-.540991-1.281591-1.20876"/><path d="m719.714145 175.624257c.687146-.753016 2.781032-1.107119 3.842458.634981-.975679 1.793468-1.327942.304923-3.842458-.634981"/><path d="m741.317191 185.093895c-1.210907-.617495-.702211-1.200017.631526-1.342095 2.691806.175959 2.34997 1.491824-.631526 1.342095"/><path d="m454.144728 34.1750023c0-.3836117.329088-.6939984.735814-.6939984.405567 0 .735814.3103867.735814.6939984 0 .3836119-.330247.6939987-.735814.6939987-.406726 0-.735814-.3103868-.735814-.6939987"/><path d="m702.276156 176.799902c0-.301644.259563-.546456.579383-.546456.319818 0 .57938.244812.57938.546456 0 .301643-.259562.546455-.57938.546455-.31982 0-.579383-.244812-.579383-.546455"/><path d="m346.53611 31.4427247c0-.3016435.259562-.5464556.579382-.5464556.319818 0 .579381.2448121.579381.5464556 0 .3016433-.259563.5464554-.579381.5464554-.31982 0-.579382-.2448121-.579382-.5464554"/><path d="m456.618572 34.721458c0-.3016436.259562-.5464557.57938-.5464557s.579382.2448121.579382.5464557c0 .3016435-.259564.5464556-.579382.5464556s-.57938-.2448121-.57938-.5464556"/><path d="m387.092806 28.1639912c0-.3016433.259562-.5464554.579382-.5464554.319818 0 .579381.2448121.579381.5464554 0 .3016435-.259563.5464556-.579381.5464556-.31982 0-.579382-.2448121-.579382-.5464556"/><path d="m392.88662 19.4207025c0-.3016435.259563-.5464556.579381-.5464556.31982 0 .579382.2448121.579382.5464556s-.259562.5464555-.579382.5464555c-.319818 0-.579381-.244812-.579381-.5464555"/></g></g></svg>