<svg height="137" viewBox="0 0 1647 137" width="1647" xmlns="http://www.w3.org/2000/svg"><g fill="#3fb9c9" transform="translate(-5.6225 -38.1892)"><path d="m50.72 174.24c28.8 0 45.44-17.44 45.44-37.28 0-16.8-8.8-26.72-23.52-32.64l-14.88-5.92c-10.56-4.16-18.08-6.72-18.08-13.28 0-6.4 5.44-9.92 14.24-9.92 9.28 0 16.64 3.2 24.48 9.12l14.24-17.92c-10.4-10.4-24.96-15.68-38.72-15.68-25.28 0-43.2 16-43.2 36 0 17.28 11.68 27.68 24.16 32.64l15.2 6.4c10.24 4.32 16.8 6.56 16.8 13.44 0 6.4-4.96 10.4-15.52 10.4-9.44 0-20.32-4.8-28.96-12l-16.16 19.52c12.32 11.36 28.96 17.12 44.48 17.12z"/><path d="m98.6369925 103.2h12.3199995v35.04c0 21.6 9.28 36 32.16 36 9.28 0 15.84-1.92 20.64-3.36l-4.48-20.48c-2.24.64-5.44 1.44-8.32 1.44-6.72 0-11.52-3.84-11.52-13.92v-34.72h21.44v-22.24h-21.44v-24h-23.52l-3.36 24-13.9199995 1.12z"/><path d="m196.473985 174.24c10.24 0 18.72-4.64 26.24-11.2h.64l2.08 8.96h23.2v-51.68c0-28.48-13.28-41.6-36.8-41.6-14.24 0-27.2 4.8-39.2 12l9.92 18.72c9.12-5.12 16.64-8 23.84-8 9.28 0 13.12 4.32 13.76 11.68-35.52 3.84-50.56 14.24-50.56 33.44 0 15.2 10.24 27.68 26.88 27.68zm9.92-22.08c-5.92 0-9.92-2.56-9.92-7.84 0-6.4 5.92-11.52 23.68-13.92v14.56c-4.16 4.48-8 7.2-13.76 7.2z"/><path d="m257.190977 103.2h12.32v35.04c0 21.6 9.28 36 32.16 36 9.28 0 15.84-1.92 20.64-3.36l-4.48-20.48c-2.24.64-5.44 1.44-8.32 1.44-6.72 0-11.52-3.84-11.52-13.92v-34.72h21.44v-22.24h-21.44v-24h-23.52l-3.36 24-13.92 1.12z"/><path d="m335.82797 172h28.32v-91.04h-28.32zm14.24-103.52c9.44 0 16.16-6.24 16.16-14.56 0-8.8-6.72-14.88-16.16-14.88-9.6 0-16.32 6.08-16.32 14.88 0 8.32 6.72 14.56 16.32 14.56z"/><path d="m426.144962 174.24c9.6 0 21.12-2.88 29.92-10.72l-10.88-18.72c-4.64 3.68-10.08 6.4-15.84 6.4-11.2 0-19.36-9.6-19.36-24.8 0-15.04 7.84-24.64 20.32-24.64 4 0 7.52 1.44 11.68 4.96l13.28-18.24c-6.88-5.92-15.52-9.76-26.56-9.76-25.44 0-47.84 17.6-47.84 47.68 0 30.24 19.68 47.84 45.28 47.84z"/><path d="m545.338947 174.24c28.8 0 45.44-17.44 45.44-37.28 0-16.8-8.8-26.72-23.52-32.64l-14.88-5.92c-10.56-4.16-18.08-6.72-18.08-13.28 0-6.4 5.44-9.92 14.24-9.92 9.28 0 16.64 3.2 24.48 9.12l14.24-17.92c-10.4-10.4-24.96-15.68-38.72-15.68-25.28 0-43.2 16-43.2 36 0 17.28 11.68 27.68 24.16 32.64l15.2 6.4c10.24 4.32 16.8 6.56 16.8 13.44 0 6.4-4.96 10.4-15.52 10.4-9.44 0-20.32-4.8-28.96-12l-16.16 19.52c12.32 11.36 28.96 17.12 44.48 17.12z"/><path d="m607.17594 172h28.32v-91.04h-28.32zm14.24-103.52c9.44 0 16.16-6.24 16.16-14.56 0-8.8-6.72-14.88-16.16-14.88-9.6 0-16.32 6.08-16.32 14.88 0 8.32 6.72 14.56 16.32 14.56z"/><path d="m648.692932 103.2h12.32v35.04c0 21.6 9.28 36 32.16 36 9.28 0 15.84-1.92 20.64-3.36l-4.48-20.48c-2.24.64-5.44 1.44-8.32 1.44-6.72 0-11.52-3.84-11.52-13.92v-34.72h21.44v-22.24h-21.44v-24h-23.52l-3.36 24-13.92 1.12z"/><path d="m764.929925 174.24c10.72 0 23.2-3.68 32.64-10.4l-9.44-17.12c-6.56 3.84-12.64 5.76-19.2 5.76-11.52 0-20.16-5.12-22.72-17.6h53.44c.64-2.08 1.28-7.2 1.28-12.16 0-24.96-12.8-44-39.04-44-22.08 0-43.2 18.24-43.2 47.68 0 30.24 20.16 47.84 46.24 47.84zm-19.2-57.92c1.92-10.88 8.8-15.84 16.64-15.84 10.4 0 14.4 6.72 14.4 15.84z"/><path d="m909.08391 174.24c16.8 0 31.52-6.56 39.84-14.56v-55.68h-44.32v23.36h18.88v19.2c-2.56 1.92-7.2 3.04-11.36 3.04-22.08 0-32.64-13.76-32.64-37.44 0-23.2 12.64-36.96 30.24-36.96 9.92 0 16.16 4.16 21.92 9.28l15.2-18.24c-8.16-8.16-20.64-15.52-38.08-15.52-31.84 0-58.56 22.72-58.56 62.4 0 40.32 25.92 61.12 58.88 61.12z"/><path d="m1010.6009 174.24c10.72 0 23.2-3.68 32.64-10.4l-9.44-17.12c-6.56 3.84-12.64 5.76-19.2 5.76-11.52 0-20.159998-5.12-22.719998-17.6h53.439998c.64-2.08 1.28-7.2 1.28-12.16 0-24.96-12.8-44-39.04-44-22.079998 0-43.199998 18.24-43.199998 47.68 0 30.24 20.16 47.84 46.239998 47.84zm-19.199998-57.92c1.92-10.88 8.799998-15.84 16.639998-15.84 10.4 0 14.4 6.72 14.4 15.84z"/><path d="m1063.63789 80.96v91.04h28.32v-60.8c5.76-5.28 9.44-8.16 15.84-8.16 7.2 0 10.56 3.68 10.56 16.32v52.64h28.48v-56.48c0-22.56-8.48-36.8-28.32-36.8-12.32 0-21.6 6.24-29.12 13.6h-.64l-1.92-11.36z"/><path d="m1208.83489 174.24c10.72 0 23.2-3.68 32.64-10.4l-9.44-17.12c-6.56 3.84-12.64 5.76-19.2 5.76-11.52 0-20.16-5.12-22.72-17.6h53.44c.64-2.08 1.28-7.2 1.28-12.16 0-24.96-12.8-44-39.04-44-22.08 0-43.2 18.24-43.2 47.68 0 30.24 20.16 47.84 46.24 47.84zm-19.2-57.92c1.92-10.88 8.8-15.84 16.64-15.84 10.4 0 14.4 6.72 14.4 15.84z"/><path d="m1261.87188 172h28.32v-52c4.8-12 12.8-16.32 19.68-16.32 4 0 6.72.64 9.92 1.44l4.8-24.48c-2.56-1.12-5.6-1.92-11.04-1.92-9.12 0-19.2 5.92-25.92 18.08h-.64l-1.92-15.84h-23.2z"/><path d="m1352.50887 174.24c10.24 0 18.72-4.64 26.24-11.2h.64l2.08 8.96h23.2v-51.68c0-28.48-13.28-41.6-36.8-41.6-14.24 0-27.2 4.8-39.2 12l9.92 18.72c9.12-5.12 16.64-8 23.84-8 9.28 0 13.12 4.32 13.76 11.68-35.52 3.84-50.56 14.24-50.56 33.44 0 15.2 10.24 27.68 26.88 27.68zm9.92-22.08c-5.92 0-9.92-2.56-9.92-7.84 0-6.4 5.92-11.52 23.68-13.92v14.56c-4.16 4.48-8 7.2-13.76 7.2z"/><path d="m1413.22586 103.2h12.32v35.04c0 21.6 9.28 36 32.16 36 9.28 0 15.84-1.92 20.64-3.36l-4.48-20.48c-2.24.64-5.44 1.44-8.32 1.44-6.72 0-11.52-3.84-11.52-13.92v-34.72h21.44v-22.24h-21.44v-24h-23.52l-3.36 24-13.92 1.12z"/><path d="m1527.86286 174.24c23.04 0 44.48-17.6 44.48-47.84 0-30.08-21.44-47.68-44.48-47.68-23.2 0-44.64 17.6-44.64 47.68 0 30.24 21.44 47.84 44.64 47.84zm0-23.04c-10.72 0-15.52-9.6-15.52-24.8 0-15.04 4.8-24.64 15.52-24.64 10.56 0 15.36 9.6 15.36 24.64 0 15.2-4.8 24.8-15.36 24.8z"/><path d="m1589.05985 172h28.32v-52c4.8-12 12.8-16.32 19.68-16.32 4 0 6.72.64 9.92 1.44l4.8-24.48c-2.56-1.12-5.6-1.92-11.04-1.92-9.12 0-19.2 5.92-25.92 18.08h-.64l-1.92-15.84h-23.2z"/></g></svg>