<svg height="628" viewBox="0 0 2128 628" width="2128" xmlns="http://www.w3.org/2000/svg" xmlns:xlink="http://www.w3.org/1999/xlink"><defs><path id="a" d="m25.296 60-2.496-8.16h-12.48l-2.496 8.16h-7.824l12.096-34.416h8.88l12.144 34.416zm-4.224-14.256-2.496-7.968c-.16-.544-.368-1.232-.624-2.064s-.512-1.68-.768-2.544-.464-1.616-.624-2.256c-.16.64-.376 1.432-.648 2.376s-.528 1.84-.768 2.688-.424 1.448-.552 1.8l-2.448 7.968z"/><path id="b" d="m55.7741955 60h-7.152v-36.48h7.152z"/><path id="c" d="m66.5012932 23.52c1.056 0 1.968.248 2.736.744s1.152 1.416 1.152 2.76c0 1.312-.384 2.224-1.152 2.736s-1.68.768-2.736.768c-1.088 0-2.008-.256-2.76-.768s-1.128-1.424-1.128-2.736c0-1.344.376-2.264 1.128-2.76s1.672-.744 2.76-.744zm3.552 10.272v26.208h-7.152v-26.208z"/><path id="d" d="m85.676391 33.312c3.232 0 5.76 1.28 7.584 3.84h.192l.576-3.36h6.048v26.256c0 3.744-1.104 6.592-3.312 8.544s-5.472 2.928-9.792 2.928c-1.856 0-3.576-.112-5.16-.336s-3.128-.624-4.632-1.2v-5.712c3.2 1.344 6.608 2.016 10.224 2.016 3.68 0 5.52-1.984 5.52-5.952v-.528c0-.512.016-1.064.048-1.656s.08-1.112.144-1.56h-.192c-.896 1.376-1.968 2.368-3.216 2.976s-2.656.912-4.224.912c-3.104 0-5.528-1.192-7.272-3.576s-2.616-5.704-2.616-9.96c0-4.288.896-7.632 2.688-10.032s4.256-3.6 7.392-3.6zm2.256 5.808c-3.36 0-5.04 2.64-5.04 7.92 0 5.216 1.712 7.824 5.136 7.824 1.824 0 3.176-.52 4.056-1.56s1.32-2.856 1.32-5.448v-.864c0-2.816-.432-4.832-1.296-6.048s-2.256-1.824-4.176-1.824z"/><path id="e" d="m114.355489 23.52v7.44c0 1.312-.04 2.552-.12 3.72s-.152 1.992-.216 2.472h.384c.832-1.344 1.904-2.32 3.216-2.928s2.768-.912 4.368-.912c2.816 0 5.088.76 6.816 2.28s2.592 3.96 2.592 7.32v17.088h-7.152v-15.312c0-3.776-1.408-5.664-4.224-5.664-2.144 0-3.624.744-4.44 2.232s-1.224 3.624-1.224 6.408v12.336h-7.152v-36.48z"/><path id="f" d="m149.418586 54.768c.8 0 1.568-.072 2.304-.216s1.472-.344 2.208-.6v5.328c-.768.352-1.72.64-2.856.864s-2.376.336-3.72.336c-1.568 0-2.968-.256-4.2-.768s-2.208-1.392-2.928-2.64-1.08-3.008-1.08-5.28v-12.624h-3.408v-3.024l3.936-2.4 2.064-5.52h4.56v5.568h7.344v5.376h-7.344v12.624c0 .992.288 1.736.864 2.232s1.328.744 2.256.744z"/><path id="g" d="m173.729684 33.312c2.816 0 5.072.76 6.768 2.28s2.544 3.96 2.544 7.32v17.088h-7.152v-15.312c0-1.888-.336-3.304-1.008-4.248s-1.744-1.416-3.216-1.416c-2.176 0-3.664.744-4.464 2.232s-1.2 3.624-1.2 6.408v12.336h-7.152v-26.208h5.472l.96 3.36h.384c.832-1.344 1.976-2.32 3.432-2.928s3-.912 4.632-.912z"/><path id="h" d="m193.624782 23.52c1.056 0 1.968.248 2.736.744s1.152 1.416 1.152 2.76c0 1.312-.384 2.224-1.152 2.736s-1.68.768-2.736.768c-1.088 0-2.008-.256-2.76-.768s-1.128-1.424-1.128-2.736c0-1.344.376-2.264 1.128-2.76s1.672-.744 2.76-.744zm3.552 10.272v26.208h-7.152v-26.208z"/><path id="i" d="m219.18388 33.312c2.816 0 5.072.76 6.768 2.28s2.544 3.96 2.544 7.32v17.088h-7.152v-15.312c0-1.888-.336-3.304-1.008-4.248s-1.744-1.416-3.216-1.416c-2.176 0-3.664.744-4.464 2.232s-1.2 3.624-1.2 6.408v12.336h-7.152v-26.208h5.472l.96 3.36h.384c.832-1.344 1.976-2.32 3.432-2.928s3-.912 4.632-.912z"/><path id="j" d="m243.974977 33.312c3.232 0 5.76 1.28 7.584 3.84h.192l.576-3.36h6.048v26.256c0 3.744-1.104 6.592-3.312 8.544s-5.472 2.928-9.792 2.928c-1.856 0-3.576-.112-5.16-.336s-3.128-.624-4.632-1.2v-5.712c3.2 1.344 6.608 2.016 10.224 2.016 3.68 0 5.52-1.984 5.52-5.952v-.528c0-.512.016-1.064.048-1.656s.08-1.112.144-1.56h-.192c-.896 1.376-1.968 2.368-3.216 2.976s-2.656.912-4.224.912c-3.104 0-5.528-1.192-7.272-3.576s-2.616-5.704-2.616-9.96c0-4.288.896-7.632 2.688-10.032s4.256-3.6 7.392-3.6zm2.256 5.808c-3.36 0-5.04 2.64-5.04 7.92 0 5.216 1.712 7.824 5.136 7.824 1.824 0 3.176-.52 4.056-1.56s1.32-2.856 1.32-5.448v-.864c0-2.816-.432-4.832-1.296-6.048s-2.256-1.824-4.176-1.824z"/><path id="k" d="m263.198075 50.064v-5.856h12.576v5.856z"/><path id="l" d="m295.093173 39.168h-6.192v20.832h-7.152v-20.832h-3.936v-3.456l3.936-1.92v-1.92c0-2.24.376-3.976 1.128-5.208s1.824-2.104 3.216-2.616 3.032-.768 4.92-.768c1.376 0 2.64.112 3.792.336s2.08.48 2.784.768l-1.824 5.232c-.544-.16-1.144-.312-1.8-.456s-1.384-.216-2.184-.216c-.992 0-1.72.304-2.184.912s-.696 1.376-.696 2.304v1.632h6.192z"/><path id="m" d="m309.564271 33.264c3.52 0 6.216.76 8.088 2.28s2.808 3.848 2.808 6.984v17.472h-4.992l-1.392-3.552h-.192c-1.12 1.408-2.304 2.432-3.552 3.072s-2.96.96-5.136.96c-2.336 0-4.272-.672-5.808-2.016s-2.304-3.44-2.304-6.288c0-2.784.976-4.832 2.928-6.144s4.88-2.048 8.784-2.208l4.56-.144v-1.152c0-1.376-.36-2.384-1.08-3.024s-1.72-.96-3-.96-2.528.184-3.744.552-2.432.824-3.648 1.368l-2.352-4.848c1.376-.704 2.928-1.272 4.656-1.704s3.52-.648 5.376-.648zm3.792 14.592-2.784.096c-2.304.064-3.904.48-4.8 1.248s-1.344 1.776-1.344 3.024c0 1.088.32 1.864.96 2.328s1.472.696 2.496.696c1.536 0 2.832-.456 3.888-1.368s1.584-2.2 1.584-3.864z"/><path id="n" d="m345.731368 52.224c0 2.656-.936 4.696-2.808 6.12s-4.664 2.136-8.376 2.136c-1.824 0-3.392-.12-4.704-.36s-2.624-.632-3.936-1.176v-5.904c1.408.64 2.928 1.168 4.56 1.584s3.072.624 4.32.624c1.376 0 2.368-.208 2.976-.624s.912-.96.912-1.632c0-.448-.12-.848-.36-1.2s-.76-.752-1.56-1.2-2.048-1.024-3.744-1.728c-1.664-.704-3.016-1.4-4.056-2.088s-1.816-1.52-2.328-2.496-.768-2.2-.768-3.672c0-2.432.944-4.256 2.832-5.472s4.4-1.824 7.536-1.824c1.632 0 3.184.16 4.656.48s2.992.848 4.56 1.584l-2.16 5.136c-1.28-.544-2.496-1-3.648-1.368s-2.32-.552-3.504-.552c-2.112 0-3.168.576-3.168 1.728 0 .416.136.792.408 1.128s.8.696 1.584 1.08 1.944.896 3.48 1.536c1.504.608 2.8 1.24 3.888 1.896s1.928 1.48 2.52 2.472.888 2.256.888 3.792z"/><path id="o" d="m361.978466 54.768c.8 0 1.568-.072 2.304-.216s1.472-.344 2.208-.6v5.328c-.768.352-1.72.64-2.856.864s-2.376.336-3.72.336c-1.568 0-2.968-.256-4.2-.768s-2.208-1.392-2.928-2.64-1.08-3.008-1.08-5.28v-12.624h-3.408v-3.024l3.936-2.4 2.064-5.52h4.56v5.568h7.344v5.376h-7.344v12.624c0 .992.288 1.736.864 2.232s1.328.744 2.256.744z"/><path id="p" d="m378.081564 54.432.336.528c-.448 1.696-1.048 3.552-1.8 5.568s-1.528 3.904-2.328 5.664h-5.136c.448-1.888.888-3.904 1.32-6.048s.776-4.048 1.032-5.712z"/><path id="q" d="m417.631759 50.496c0 3.04-1.096 5.464-3.288 7.272s-5.304 2.712-9.336 2.712c-3.616 0-6.848-.688-9.696-2.064v-6.768c1.632.704 3.32 1.352 5.064 1.944s3.48.888 5.208.888c1.792 0 3.064-.344 3.816-1.032s1.128-1.56 1.128-2.616c0-.864-.296-1.6-.888-2.208s-1.384-1.176-2.376-1.704-2.128-1.096-3.408-1.704c-.8-.384-1.664-.84-2.592-1.368s-1.816-1.184-2.664-1.968-1.544-1.736-2.088-2.856-.816-2.464-.816-4.032c0-3.072 1.04-5.464 3.12-7.176s4.912-2.568 8.496-2.568c1.792 0 3.488.208 5.088.624s3.296 1.008 5.088 1.776l-2.352 5.664c-1.568-.64-2.976-1.136-4.224-1.488s-2.528-.528-3.84-.528c-1.376 0-2.432.32-3.168.96s-1.104 1.472-1.104 2.496c0 1.216.544 2.176 1.632 2.88s2.704 1.568 4.848 2.592c1.76.832 3.256 1.696 4.488 2.592s2.184 1.952 2.856 3.168 1.008 2.72 1.008 4.512z"/><path id="r" d="m443.238857 60h-19.728v-34.272h19.728v5.952h-12.48v7.536h11.616v5.952h-11.616v8.832h12.48z"/><path id="s" d="m481.133955 42.816c0 3.552-.584 6.648-1.752 9.288s-2.96 4.696-5.376 6.168-5.48 2.208-9.192 2.208-6.776-.736-9.192-2.208-4.208-3.536-5.376-6.192-1.752-5.76-1.752-9.312.584-6.64 1.752-9.264 2.96-4.664 5.376-6.12 5.496-2.184 9.24-2.184c3.712 0 6.768.728 9.168 2.184s4.184 3.504 5.352 6.144 1.752 5.736 1.752 9.288zm-25.008 0c0 3.584.688 6.408 2.064 8.472s3.584 3.096 6.624 3.096c3.104 0 5.328-1.032 6.672-3.096s2.016-4.888 2.016-8.472-.672-6.408-2.016-8.472-3.552-3.096-6.624-3.096-5.296 1.032-6.672 3.096-2.064 4.888-2.064 8.472z"/><path id="t" d="m484.997053 50.064v-5.856h12.576v5.856z"/><path id="u" d="m526.20415 46.848c0 4.352-1.144 7.712-3.432 10.08s-5.4 3.552-9.336 3.552c-2.432 0-4.6-.528-6.504-1.584s-3.4-2.6-4.488-4.632-1.632-4.504-1.632-7.416c0-4.352 1.136-7.696 3.408-10.032s5.392-3.504 9.36-3.504c2.464 0 4.64.528 6.528 1.584s3.376 2.592 4.464 4.608 1.632 4.464 1.632 7.344zm-18.096 0c0 2.592.424 4.552 1.272 5.88s2.232 1.992 4.152 1.992c1.888 0 3.256-.664 4.104-1.992s1.272-3.288 1.272-5.88-.424-4.536-1.272-5.832-2.232-1.944-4.152-1.944c-1.888 0-3.256.648-4.104 1.944s-1.272 3.24-1.272 5.832z"/><path id="v" d="m546.339248 33.312c2.944 0 5.328 1.144 7.152 3.432s2.736 5.656 2.736 10.104c0 4.48-.944 7.872-2.832 10.176s-4.304 3.456-7.248 3.456c-1.888 0-3.392-.344-4.512-1.032s-2.032-1.464-2.736-2.328h-.384c.256 1.344.384 2.624.384 3.84v10.56h-7.152v-37.728h5.808l1.008 3.408h.336c.704-1.056 1.648-1.968 2.832-2.736s2.72-1.152 4.608-1.152zm-2.304 5.712c-1.856 0-3.168.584-3.936 1.752s-1.168 2.92-1.2 5.256v.768c0 2.528.376 4.472 1.128 5.832s2.12 2.04 4.104 2.04c1.632 0 2.84-.68 3.624-2.04s1.176-3.32 1.176-5.88c0-5.152-1.632-7.728-4.896-7.728z"/><path id="w" d="m572.810346 54.768c.8 0 1.568-.072 2.304-.216s1.472-.344 2.208-.6v5.328c-.768.352-1.72.64-2.856.864s-2.376.336-3.72.336c-1.568 0-2.968-.256-4.2-.768s-2.208-1.392-2.928-2.64-1.08-3.008-1.08-5.28v-12.624h-3.408v-3.024l3.936-2.4 2.064-5.52h4.56v5.568h7.344v5.376h-7.344v12.624c0 .992.288 1.736.864 2.232s1.328.744 2.256.744z"/><path id="x" d="m585.841444 23.52c1.056 0 1.968.248 2.736.744s1.152 1.416 1.152 2.76c0 1.312-.384 2.224-1.152 2.736s-1.68.768-2.736.768c-1.088 0-2.008-.256-2.76-.768s-1.128-1.424-1.128-2.736c0-1.344.376-2.264 1.128-2.76s1.672-.744 2.76-.744zm3.552 10.272v26.208h-7.152v-26.208z"/><path id="y" d="m627.288541 33.312c2.976 0 5.224.76 6.744 2.28s2.28 3.96 2.28 7.32v17.088h-7.152v-15.312c0-3.776-1.312-5.664-3.936-5.664-1.888 0-3.232.672-4.032 2.016s-1.2 3.28-1.2 5.808v13.152h-7.152v-15.312c0-3.776-1.312-5.664-3.936-5.664-1.984 0-3.352.744-4.104 2.232s-1.128 3.624-1.128 6.408v12.336h-7.152v-26.208h5.472l.96 3.36h.384c.8-1.344 1.896-2.32 3.288-2.928s2.84-.912 4.344-.912c1.92 0 3.544.312 4.872.936s2.36 1.592 3.096 2.904h.624c.8-1.344 1.912-2.32 3.336-2.928s2.888-.912 4.392-.912z"/><path id="z" d="m646.895639 23.52c1.056 0 1.968.248 2.736.744s1.152 1.416 1.152 2.76c0 1.312-.384 2.224-1.152 2.736s-1.68.768-2.736.768c-1.088 0-2.008-.256-2.76-.768s-1.128-1.424-1.128-2.736c0-1.344.376-2.264 1.128-2.76s1.672-.744 2.76-.744zm3.552 10.272v26.208h-7.152v-26.208z"/><path id="A" d="m675.862737 52.224c0 2.656-.936 4.696-2.808 6.12s-4.664 2.136-8.376 2.136c-1.824 0-3.392-.12-4.704-.36s-2.624-.632-3.936-1.176v-5.904c1.408.64 2.928 1.168 4.56 1.584s3.072.624 4.32.624c1.376 0 2.368-.208 2.976-.624s.912-.96.912-1.632c0-.448-.12-.848-.36-1.2s-.76-.752-1.56-1.2-2.048-1.024-3.744-1.728c-1.664-.704-3.016-1.4-4.056-2.088s-1.816-1.52-2.328-2.496-.768-2.2-.768-3.672c0-2.432.944-4.256 2.832-5.472s4.4-1.824 7.536-1.824c1.632 0 3.184.16 4.656.48s2.992.848 4.56 1.584l-2.16 5.136c-1.28-.544-2.496-1-3.648-1.368s-2.32-.552-3.504-.552c-2.112 0-3.168.576-3.168 1.728 0 .416.136.792.408 1.128s.8.696 1.584 1.08 1.944.896 3.48 1.536c1.504.608 2.8 1.24 3.888 1.896s1.928 1.48 2.52 2.472.888 2.256.888 3.792z"/><path id="B" d="m691.869835 33.312c3.616 0 6.48 1.032 8.592 3.096s3.168 5 3.168 8.808v3.456h-16.896c.064 2.016.664 3.6 1.8 4.752s2.712 1.728 4.728 1.728c1.664 0 3.192-.168 4.584-.504s2.824-.856 4.296-1.56v5.52c-1.312.64-2.672 1.112-4.08 1.416s-3.12.456-5.136.456c-2.624 0-4.944-.488-6.96-1.464s-3.6-2.448-4.752-4.416-1.728-4.472-1.728-7.512.52-5.584 1.56-7.632 2.488-3.584 4.344-4.608 4.016-1.536 6.48-1.536zm.048 5.088c-1.408 0-2.56.448-3.456 1.344s-1.424 2.288-1.584 4.176h10.032c-.032-1.568-.456-2.88-1.272-3.936s-2.056-1.584-3.72-1.584z"/><path id="C" d="m717.380932 60.48c-2.912 0-5.288-1.144-7.128-3.432s-2.76-5.656-2.76-10.104c0-4.48.928-7.872 2.784-10.176s4.288-3.456 7.296-3.456c1.888 0 3.44.368 4.656 1.104s2.176 1.648 2.88 2.736h.24c-.096-.512-.208-1.256-.336-2.232s-.192-1.976-.192-3v-8.4h7.152v36.48h-5.472l-1.392-3.408h-.288c-.704 1.088-1.648 2.008-2.832 2.76s-2.72 1.128-4.608 1.128zm2.496-5.712c1.952 0 3.328-.584 4.128-1.752s1.232-2.92 1.296-5.256v-.768c0-2.528-.392-4.472-1.176-5.832s-2.232-2.04-4.344-2.04c-1.568 0-2.8.68-3.696 2.04s-1.344 3.32-1.344 5.88.448 4.488 1.344 5.784 2.16 1.944 3.792 1.944z"/><path id="D" d="m745.77203 54.432.336.528c-.448 1.696-1.048 3.552-1.8 5.568s-1.528 3.904-2.328 5.664h-5.136c.448-1.888.888-3.904 1.32-6.048s.776-4.048 1.032-5.712z"/><path id="E" d="m807.210226 25.728-8.736 34.272h-8.256l-4.656-18c-.096-.352-.216-.88-.36-1.584s-.304-1.472-.48-2.304-.336-1.616-.48-2.352-.232-1.328-.264-1.776c-.032.448-.12 1.04-.264 1.776s-.296 1.512-.456 2.328-.32 1.584-.48 2.304-.288 1.272-.384 1.656l-4.608 17.952h-8.256l-8.736-34.272h7.152l4.368 18.72c.192.736.4 1.664.624 2.784s.432 2.24.624 3.36.336 2.064.432 2.832c.096-.8.24-1.752.432-2.856s.392-2.176.6-3.216.392-1.848.552-2.424l4.992-19.2h6.864l4.992 19.2c.16.576.344 1.384.552 2.424s.408 2.12.6 3.24.336 2.064.432 2.832c.096-.8.24-1.752.432-2.856s.408-2.208.648-3.312.44-2.04.6-2.808l4.368-18.72z"/><path id="F" d="m825.233323 31.296c-2.784 0-4.912 1.04-6.384 3.12s-2.208 4.928-2.208 8.544c0 3.648.68 6.472 2.04 8.472s3.544 3 6.552 3c1.376 0 2.768-.16 4.176-.48s2.928-.768 4.56-1.344v6.096c-1.504.608-2.992 1.056-4.464 1.344s-3.12.432-4.944.432c-3.552 0-6.464-.728-8.736-2.184s-3.952-3.504-5.04-6.144-1.632-5.72-1.632-9.24c0-3.456.624-6.512 1.872-9.168s3.064-4.736 5.448-6.24 5.304-2.256 8.76-2.256c1.696 0 3.4.216 5.112.648s3.352 1.016 4.92 1.752l-2.352 5.904c-1.28-.608-2.568-1.136-3.864-1.584s-2.568-.672-3.816-.672z"/><path id="G" d="m861.880421 60-2.496-8.16h-12.48l-2.496 8.16h-7.824l12.096-34.416h8.88l12.144 34.416zm-4.224-14.256-2.496-7.968c-.16-.544-.368-1.232-.624-2.064s-.512-1.68-.768-2.544-.464-1.616-.624-2.256c-.16.64-.376 1.432-.648 2.376s-.528 1.84-.768 2.688-.424 1.448-.552 1.8l-2.448 7.968z"/><path id="H" d="m885.711519 40.752h13.584v17.76c-1.792.608-3.664 1.088-5.616 1.44s-4.144.528-6.576.528c-5.12 0-9.056-1.504-11.808-4.512s-4.128-7.392-4.128-13.152c0-3.584.688-6.688 2.064-9.312s3.4-4.656 6.072-6.096 5.928-2.16 9.768-2.16c1.824 0 3.616.192 5.376.576s3.36.896 4.8 1.536l-2.4 5.808c-1.056-.544-2.256-.992-3.6-1.344s-2.752-.528-4.224-.528c-2.112 0-3.944.48-5.496 1.44s-2.752 2.32-3.6 4.08-1.272 3.808-1.272 6.144c0 2.24.304 4.224.912 5.952s1.568 3.08 2.88 4.056 3.024 1.464 5.136 1.464c1.024 0 1.888-.048 2.592-.144s1.376-.208 2.016-.336v-7.152h-6.48z"/><path id="I" d="m940.189714 60-2.496-8.16h-12.48l-2.496 8.16h-7.824l12.096-34.416h8.88l12.144 34.416zm-4.224-14.256-2.496-7.968c-.16-.544-.368-1.232-.624-2.064s-.512-1.68-.768-2.544-.464-1.616-.624-2.256c-.16.64-.376 1.432-.648 2.376s-.528 1.84-.768 2.688-.424 1.448-.552 1.8l-2.448 7.968z"/><path id="J" d="m972.948812 60-2.496-8.16h-12.48l-2.496 8.16h-7.824l12.096-34.416h8.88l12.144 34.416zm-4.224-14.256-2.496-7.968c-.16-.544-.368-1.232-.624-2.064s-.512-1.68-.768-2.544-.464-1.616-.624-2.256c-.16.64-.376 1.432-.648 2.376s-.528 1.84-.768 2.688-.424 1.448-.552 1.8l-2.448 7.968z"/><path id="K" d="m1005.70791 60-2.496-8.16h-12.48l-2.496 8.16h-7.824l12.096-34.416h8.88l12.144 34.416zm-4.224-14.256-2.496-7.968c-.16-.544-.368-1.232-.624-2.064s-.512-1.68-.768-2.544-.464-1.616-.624-2.256c-.16.64-.376 1.432-.648 2.376s-.528 1.84-.768 2.688-.424 1.448-.552 1.8l-2.448 7.968z"/><path id="L" d="m1014.61101 50.064v-5.856h12.576v5.856z"/><path id="M" d="m1042.66611 60.48c-3.904 0-6.92-1.072-9.048-3.216s-3.192-5.552-3.192-10.224c0-3.2.544-5.808 1.632-7.824s2.6-3.504 4.536-4.464 4.168-1.44 6.696-1.44c1.792 0 3.352.176 4.68.528s2.488.768 3.48 1.248l-2.112 5.52c-1.12-.448-2.168-.816-3.144-1.104s-1.944-.432-2.904-.432c-3.712 0-5.568 2.64-5.568 7.92 0 2.624.488 4.56 1.464 5.808s2.344 1.872 4.104 1.872c1.504 0 2.832-.2 3.984-.6s2.272-.952 3.36-1.656v6.096c-1.088.704-2.232 1.208-3.432 1.512s-2.712.456-4.536.456z"/><path id="N" d="m1080.1292 46.848c0 4.352-1.144 7.712-3.432 10.08s-5.4 3.552-9.336 3.552c-2.432 0-4.6-.528-6.504-1.584s-3.4-2.6-4.488-4.632-1.632-4.504-1.632-7.416c0-4.352 1.136-7.696 3.408-10.032s5.392-3.504 9.36-3.504c2.464 0 4.64.528 6.528 1.584s3.376 2.592 4.464 4.608 1.632 4.464 1.632 7.344zm-18.096 0c0 2.592.424 4.552 1.272 5.88s2.232 1.992 4.152 1.992c1.888 0 3.256-.664 4.104-1.992s1.272-3.288 1.272-5.88-.424-4.536-1.272-5.832-2.232-1.944-4.152-1.944c-1.888 0-3.256.648-4.104 1.944s-1.272 3.24-1.272 5.832z"/><path id="O" d="m1116.4403 33.312c2.976 0 5.224.76 6.744 2.28s2.28 3.96 2.28 7.32v17.088h-7.152v-15.312c0-3.776-1.312-5.664-3.936-5.664-1.888 0-3.232.672-4.032 2.016s-1.2 3.28-1.2 5.808v13.152h-7.152v-15.312c0-3.776-1.312-5.664-3.936-5.664-1.984 0-3.352.744-4.104 2.232s-1.128 3.624-1.128 6.408v12.336h-7.152v-26.208h5.472l.96 3.36h.384c.8-1.344 1.896-2.32 3.288-2.928s2.84-.912 4.344-.912c1.92 0 3.544.312 4.872.936s2.36 1.592 3.096 2.904h.624c.8-1.344 1.912-2.32 3.336-2.928s2.888-.912 4.392-.912z"/><path id="P" d="m1147.0394 33.312c2.944 0 5.328 1.144 7.152 3.432s2.736 5.656 2.736 10.104c0 4.48-.944 7.872-2.832 10.176s-4.304 3.456-7.248 3.456c-1.888 0-3.392-.344-4.512-1.032s-2.032-1.464-2.736-2.328h-.384c.256 1.344.384 2.624.384 3.84v10.56h-7.152v-37.728h5.808l1.008 3.408h.336c.704-1.056 1.648-1.968 2.832-2.736s2.72-1.152 4.608-1.152zm-2.304 5.712c-1.856 0-3.168.584-3.936 1.752s-1.168 2.92-1.2 5.256v.768c0 2.528.376 4.472 1.128 5.832s2.12 2.04 4.104 2.04c1.632 0 2.84-.68 3.624-2.04s1.176-3.32 1.176-5.88c0-5.152-1.632-7.728-4.896-7.728z"/><path id="Q" d="m1169.6225 60h-7.152v-36.48h7.152z"/><path id="R" d="m1180.34959 23.52c1.056 0 1.968.248 2.736.744s1.152 1.416 1.152 2.76c0 1.312-.384 2.224-1.152 2.736s-1.68.768-2.736.768c-1.088 0-2.008-.256-2.76-.768s-1.128-1.424-1.128-2.736c0-1.344.376-2.264 1.128-2.76s1.672-.744 2.76-.744zm3.552 10.272v26.208h-7.152v-26.208z"/><path id="S" d="m1201.78069 33.264c3.52 0 6.216.76 8.088 2.28s2.808 3.848 2.808 6.984v17.472h-4.992l-1.392-3.552h-.192c-1.12 1.408-2.304 2.432-3.552 3.072s-2.96.96-5.136.96c-2.336 0-4.272-.672-5.808-2.016s-2.304-3.44-2.304-6.288c0-2.784.976-4.832 2.928-6.144s4.88-2.048 8.784-2.208l4.56-.144v-1.152c0-1.376-.36-2.384-1.08-3.024s-1.72-.96-3-.96-2.528.184-3.744.552-2.432.824-3.648 1.368l-2.352-4.848c1.376-.704 2.928-1.272 4.656-1.704s3.52-.648 5.376-.648zm3.792 14.592-2.784.096c-2.304.064-3.904.48-4.8 1.248s-1.344 1.776-1.344 3.024c0 1.088.32 1.864.96 2.328s1.472.696 2.496.696c1.536 0 2.832-.456 3.888-1.368s1.584-2.2 1.584-3.864z"/><path id="T" d="m1234.53979 33.312c2.816 0 5.072.76 6.768 2.28s2.544 3.96 2.544 7.32v17.088h-7.152v-15.312c0-1.888-.336-3.304-1.008-4.248s-1.744-1.416-3.216-1.416c-2.176 0-3.664.744-4.464 2.232s-1.2 3.624-1.2 6.408v12.336h-7.152v-26.208h5.472l.96 3.36h.384c.832-1.344 1.976-2.32 3.432-2.928s3-.912 4.632-.912z"/><path id="U" d="m1261.87489 54.768c.8 0 1.568-.072 2.304-.216s1.472-.344 2.208-.6v5.328c-.768.352-1.72.64-2.856.864s-2.376.336-3.72.336c-1.568 0-2.968-.256-4.2-.768s-2.208-1.392-2.928-2.64-1.08-3.008-1.08-5.28v-12.624h-3.408v-3.024l3.936-2.4 2.064-5.52h4.56v5.568h7.344v5.376h-7.344v12.624c0 .992.288 1.736.864 2.232s1.328.744 2.256.744z"/><path id="V" d="m1301.71308 52.224c0 2.656-.936 4.696-2.808 6.12s-4.664 2.136-8.376 2.136c-1.824 0-3.392-.12-4.704-.36s-2.624-.632-3.936-1.176v-5.904c1.408.64 2.928 1.168 4.56 1.584s3.072.624 4.32.624c1.376 0 2.368-.208 2.976-.624s.912-.96.912-1.632c0-.448-.12-.848-.36-1.2s-.76-.752-1.56-1.2-2.048-1.024-3.744-1.728c-1.664-.704-3.016-1.4-4.056-2.088s-1.816-1.52-2.328-2.496-.768-2.2-.768-3.672c0-2.432.944-4.256 2.832-5.472s4.4-1.824 7.536-1.824c1.632 0 3.184.16 4.656.48s2.992.848 4.56 1.584l-2.16 5.136c-1.28-.544-2.496-1-3.648-1.368s-2.32-.552-3.504-.552c-2.112 0-3.168.576-3.168 1.728 0 .416.136.792.408 1.128s.8.696 1.584 1.08 1.944.896 3.48 1.536c1.504.608 2.8 1.24 3.888 1.896s1.928 1.48 2.52 2.472.888 2.256.888 3.792z"/><path id="W" d="m1317.96018 54.768c.8 0 1.568-.072 2.304-.216s1.472-.344 2.208-.6v5.328c-.768.352-1.72.64-2.856.864s-2.376.336-3.72.336c-1.568 0-2.968-.256-4.2-.768s-2.208-1.392-2.928-2.64-1.08-3.008-1.08-5.28v-12.624h-3.408v-3.024l3.936-2.4 2.064-5.52h4.56v5.568h7.344v5.376h-7.344v12.624c0 .992.288 1.736.864 2.232s1.328.744 2.256.744z"/><path id="X" d="m1338.14328 33.264c3.52 0 6.216.76 8.088 2.28s2.808 3.848 2.808 6.984v17.472h-4.992l-1.392-3.552h-.192c-1.12 1.408-2.304 2.432-3.552 3.072s-2.96.96-5.136.96c-2.336 0-4.272-.672-5.808-2.016s-2.304-3.44-2.304-6.288c0-2.784.976-4.832 2.928-6.144s4.88-2.048 8.784-2.208l4.56-.144v-1.152c0-1.376-.36-2.384-1.08-3.024s-1.72-.96-3-.96-2.528.184-3.744.552-2.432.824-3.648 1.368l-2.352-4.848c1.376-.704 2.928-1.272 4.656-1.704s3.52-.648 5.376-.648zm3.792 14.592-2.784.096c-2.304.064-3.904.48-4.8 1.248s-1.344 1.776-1.344 3.024c0 1.088.32 1.864.96 2.328s1.472.696 2.496.696c1.536 0 2.832-.456 3.888-1.368s1.584-2.2 1.584-3.864z"/><path id="Y" d="m1367.06238 54.768c.8 0 1.568-.072 2.304-.216s1.472-.344 2.208-.6v5.328c-.768.352-1.72.64-2.856.864s-2.376.336-3.72.336c-1.568 0-2.968-.256-4.2-.768s-2.208-1.392-2.928-2.64-1.08-3.008-1.08-5.28v-12.624h-3.408v-3.024l3.936-2.4 2.064-5.52h4.56v5.568h7.344v5.376h-7.344v12.624c0 .992.288 1.736.864 2.232s1.328.744 2.256.744z"/><path id="Z" d="m1380.09347 23.52c1.056 0 1.968.248 2.736.744s1.152 1.416 1.152 2.76c0 1.312-.384 2.224-1.152 2.736s-1.68.768-2.736.768c-1.088 0-2.008-.256-2.76-.768s-1.128-1.424-1.128-2.736c0-1.344.376-2.264 1.128-2.76s1.672-.744 2.76-.744zm3.552 10.272v26.208h-7.152v-26.208z"/><path id="aa" d="m1401.42857 60.48c-3.904 0-6.92-1.072-9.048-3.216s-3.192-5.552-3.192-10.224c0-3.2.544-5.808 1.632-7.824s2.6-3.504 4.536-4.464 4.168-1.44 6.696-1.44c1.792 0 3.352.176 4.68.528s2.488.768 3.48 1.248l-2.112 5.52c-1.12-.448-2.168-.816-3.144-1.104s-1.944-.432-2.904-.432c-3.712 0-5.568 2.64-5.568 7.92 0 2.624.488 4.56 1.464 5.808s2.344 1.872 4.104 1.872c1.504 0 2.832-.2 3.984-.6s2.272-.952 3.36-1.656v6.096c-1.088.704-2.232 1.208-3.432 1.512s-2.712.456-4.536.456z"/><path id="ab" d="m1445.49077 52.224c0 2.656-.936 4.696-2.808 6.12s-4.664 2.136-8.376 2.136c-1.824 0-3.392-.12-4.704-.36s-2.624-.632-3.936-1.176v-5.904c1.408.64 2.928 1.168 4.56 1.584s3.072.624 4.32.624c1.376 0 2.368-.208 2.976-.624s.912-.96.912-1.632c0-.448-.12-.848-.36-1.2s-.76-.752-1.56-1.2-2.048-1.024-3.744-1.728c-1.664-.704-3.016-1.4-4.056-2.088s-1.816-1.52-2.328-2.496-.768-2.2-.768-3.672c0-2.432.944-4.256 2.832-5.472s4.4-1.824 7.536-1.824c1.632 0 3.184.16 4.656.48s2.992.848 4.56 1.584l-2.16 5.136c-1.28-.544-2.496-1-3.648-1.368s-2.32-.552-3.504-.552c-2.112 0-3.168.576-3.168 1.728 0 .416.136.792.408 1.128s.8.696 1.584 1.08 1.944.896 3.48 1.536c1.504.608 2.8 1.24 3.888 1.896s1.928 1.48 2.52 2.472.888 2.256.888 3.792z"/><path id="ac" d="m1454.29786 23.52c1.056 0 1.968.248 2.736.744s1.152 1.416 1.152 2.76c0 1.312-.384 2.224-1.152 2.736s-1.68.768-2.736.768c-1.088 0-2.008-.256-2.76-.768s-1.128-1.424-1.128-2.736c0-1.344.376-2.264 1.128-2.76s1.672-.744 2.76-.744zm3.552 10.272v26.208h-7.152v-26.208z"/><path id="ad" d="m1476.01696 54.768c.8 0 1.568-.072 2.304-.216s1.472-.344 2.208-.6v5.328c-.768.352-1.72.64-2.856.864s-2.376.336-3.72.336c-1.568 0-2.968-.256-4.2-.768s-2.208-1.392-2.928-2.64-1.08-3.008-1.08-5.28v-12.624h-3.408v-3.024l3.936-2.4 2.064-5.52h4.56v5.568h7.344v5.376h-7.344v12.624c0 .992.288 1.736.864 2.232s1.328.744 2.256.744z"/><path id="ae" d="m1496.24806 33.312c3.616 0 6.48 1.032 8.592 3.096s3.168 5 3.168 8.808v3.456h-16.896c.064 2.016.664 3.6 1.8 4.752s2.712 1.728 4.728 1.728c1.664 0 3.192-.168 4.584-.504s2.824-.856 4.296-1.56v5.52c-1.312.64-2.672 1.112-4.08 1.416s-3.12.456-5.136.456c-2.624 0-4.944-.488-6.96-1.464s-3.6-2.448-4.752-4.416-1.728-4.472-1.728-7.512.52-5.584 1.56-7.632 2.488-3.584 4.344-4.608 4.016-1.536 6.48-1.536zm.048 5.088c-1.408 0-2.56.448-3.456 1.344s-1.424 2.288-1.584 4.176h10.032c-.032-1.568-.456-2.88-1.272-3.936s-2.056-1.584-3.72-1.584z"/><path id="af" d="m12.24 98.312c3.232 0 5.76 1.28 7.584 3.84h.192l.576-3.36h6.048v26.256c0 3.744-1.104 6.592-3.312 8.544s-5.472 2.928-9.792 2.928c-1.856 0-3.576-.112-5.16-.336s-3.128-.624-4.632-1.2v-5.712c3.2 1.344 6.608 2.016 10.224 2.016 3.68 0 5.52-1.984 5.52-5.952v-.528c0-.512.016-1.064.048-1.656s.08-1.112.144-1.56h-.192c-.896 1.376-1.968 2.368-3.216 2.976s-2.656.912-4.224.912c-3.104 0-5.528-1.192-7.272-3.576s-2.616-5.704-2.616-9.96c0-4.288.896-7.632 2.688-10.032s4.256-3.6 7.392-3.6zm2.256 5.808c-3.36 0-5.04 2.64-5.04 7.92 0 5.216 1.712 7.824 5.136 7.824 1.824 0 3.176-.52 4.056-1.56s1.32-2.856 1.32-5.448v-.864c0-2.816-.432-4.832-1.296-6.048s-2.256-1.824-4.176-1.824z"/><path id="ag" d="m44.5670977 98.312c3.616 0 6.48 1.032 8.592 3.096s3.168 5 3.168 8.808v3.456h-16.896c.064 2.016.664 3.6 1.8 4.752s2.712 1.728 4.728 1.728c1.664 0 3.192-.168 4.584-.504s2.824-.856 4.296-1.56v5.52c-1.312.64-2.672 1.112-4.08 1.416s-3.12.456-5.136.456c-2.624 0-4.944-.488-6.96-1.464s-3.6-2.448-4.752-4.416-1.728-4.472-1.728-7.512.52-5.584 1.56-7.632 2.488-3.584 4.344-4.608 4.016-1.536 6.48-1.536zm.048 5.088c-1.408 0-2.56.448-3.456 1.344s-1.424 2.288-1.584 4.176h10.032c-.032-1.568-.456-2.88-1.272-3.936s-2.056-1.584-3.72-1.584z"/><path id="ah" d="m76.6541955 98.312c2.816 0 5.072.76 6.768 2.28s2.544 3.96 2.544 7.32v17.088h-7.152v-15.312c0-1.888-.336-3.304-1.008-4.248s-1.744-1.416-3.216-1.416c-2.176 0-3.664.744-4.464 2.232s-1.2 3.624-1.2 6.408v12.336h-7.152v-26.208h5.472l.96 3.36h.384c.832-1.344 1.976-2.32 3.432-2.928s3-.912 4.632-.912z"/><path id="ai" d="m103.749293 98.312c3.616 0 6.48 1.032 8.592 3.096s3.168 5 3.168 8.808v3.456h-16.8959998c.064 2.016.664 3.6 1.7999998 4.752 1.136 1.152 2.712 1.728 4.728 1.728 1.664 0 3.192-.168 4.584-.504s2.824-.856 4.296-1.56v5.52c-1.312.64-2.672 1.112-4.08 1.416s-3.12.456-5.136.456c-2.624 0-4.9439998-.488-6.9599998-1.464s-3.6-2.448-4.752-4.416-1.728-4.472-1.728-7.512.52-5.584 1.56-7.632 2.488-3.584 4.344-4.608 4.0159998-1.536 6.4799998-1.536zm.048 5.088c-1.408 0-2.56.448-3.456 1.344-.8959998.896-1.4239998 2.288-1.5839998 4.176h10.0319998c-.032-1.568-.456-2.88-1.272-3.936s-2.056-1.584-3.72-1.584z"/><path id="aj" d="m135.596391 98.312c.352 0 .768.016 1.248.048s.864.08 1.152.144l-.528 6.72c-.256-.064-.592-.12-1.008-.168s-.784-.072-1.104-.072c-1.216 0-2.384.216-3.504.648s-2.024 1.128-2.712 2.088-1.032 2.272-1.032 3.936v13.344h-7.152v-26.208h5.424l1.056 4.416h.336c.768-1.344 1.824-2.496 3.168-3.456s2.896-1.44 4.656-1.44z"/><path id="ak" d="m152.179489 98.264c3.52 0 6.216.76 8.088 2.28s2.808 3.848 2.808 6.984v17.472h-4.992l-1.392-3.552h-.192c-1.12 1.408-2.304 2.432-3.552 3.072s-2.96.96-5.136.96c-2.336 0-4.272-.672-5.808-2.016s-2.304-3.44-2.304-6.288c0-2.784.976-4.832 2.928-6.144s4.88-2.048 8.784-2.208l4.56-.144v-1.152c0-1.376-.36-2.384-1.08-3.024s-1.72-.96-3-.96-2.528.184-3.744.552-2.432.824-3.648 1.368l-2.352-4.848c1.376-.704 2.928-1.272 4.656-1.704s3.52-.648 5.376-.648zm3.792 14.592-2.784.096c-2.304.064-3.904.48-4.8 1.248s-1.344 1.776-1.344 3.024c0 1.088.32 1.864.96 2.328s1.472.696 2.496.696c1.536 0 2.832-.456 3.888-1.368s1.584-2.2 1.584-3.864z"/><path id="al" d="m181.098586 119.768c.8 0 1.568-.072 2.304-.216s1.472-.344 2.208-.6v5.328c-.768.352-1.72.64-2.856.864s-2.376.336-3.72.336c-1.568 0-2.968-.256-4.2-.768s-2.208-1.392-2.928-2.64-1.08-3.008-1.08-5.28v-12.624h-3.408v-3.024l3.936-2.4 2.064-5.52h4.56v5.568h7.344v5.376h-7.344v12.624c0 .992.288 1.736.864 2.232s1.328.744 2.256.744z"/><path id="am" d="m214.337684 111.848c0 4.352-1.144 7.712-3.432 10.08s-5.4 3.552-9.336 3.552c-2.432 0-4.6-.528-6.504-1.584s-3.4-2.6-4.488-4.632-1.632-4.504-1.632-7.416c0-4.352 1.136-7.696 3.408-10.032s5.392-3.504 9.36-3.504c2.464 0 4.64.528 6.528 1.584s3.376 2.592 4.464 4.608 1.632 4.464 1.632 7.344zm-18.096 0c0 2.592.424 4.552 1.272 5.88s2.232 1.992 4.152 1.992c1.888 0 3.256-.664 4.104-1.992s1.272-3.288 1.272-5.88-.424-4.536-1.272-5.832-2.232-1.944-4.152-1.944c-1.888 0-3.256.648-4.104 1.944s-1.272 3.24-1.272 5.832z"/><path id="an" d="m234.520782 98.312c.352 0 .768.016 1.248.048s.864.08 1.152.144l-.528 6.72c-.256-.064-.592-.12-1.008-.168s-.784-.072-1.104-.072c-1.216 0-2.384.216-3.504.648s-2.024 1.128-2.712 2.088-1.032 2.272-1.032 3.936v13.344h-7.152v-26.208h5.424l1.056 4.416h.336c.768-1.344 1.824-2.496 3.168-3.456s2.896-1.44 4.656-1.44z"/><path id="ao" d="m260.582977 88.52v8.496c0 .992-.032 1.968-.096 2.928s-.128 1.712-.192 2.256h.288c.704-1.088 1.648-2.008 2.832-2.76s2.72-1.128 4.608-1.128c2.944 0 5.328 1.144 7.152 3.432s2.736 5.656 2.736 10.104c0 4.48-.928 7.872-2.784 10.176s-4.288 3.456-7.296 3.456c-1.92 0-3.432-.344-4.536-1.032s-2.008-1.464-2.712-2.328h-.48l-1.2 2.88h-5.472v-36.48zm5.136 15.504c-1.856 0-3.168.584-3.936 1.752s-1.168 2.92-1.2 5.256v.768c0 2.528.376 4.472 1.128 5.832s2.12 2.04 4.104 2.04c1.472 0 2.64-.68 3.504-2.04s1.296-3.32 1.296-5.88-.44-4.488-1.32-5.784-2.072-1.944-3.576-1.944z"/><path id="ap" d="m307.502075 98.792v26.208h-5.472l-.96-3.36h-.384c-.832 1.344-1.976 2.32-3.432 2.928s-3 .912-4.632.912c-2.816 0-5.072-.76-6.768-2.28s-2.544-3.96-2.544-7.32v-17.088h7.152v15.312c0 1.888.336 3.304 1.008 4.248s1.744 1.416 3.216 1.416c2.176 0 3.664-.744 4.464-2.232s1.2-3.624 1.2-6.408v-12.336z"/><path id="aq" d="m318.229173 88.52c1.056 0 1.968.248 2.736.744s1.152 1.416 1.152 2.76c0 1.312-.384 2.224-1.152 2.736s-1.68.768-2.736.768c-1.088 0-2.008-.256-2.76-.768s-1.128-1.424-1.128-2.736c0-1.344.376-2.264 1.128-2.76s1.672-.744 2.76-.744zm3.552 10.272v26.208h-7.152v-26.208z"/><path id="ar" d="m336.060271 125h-7.152v-36.48h7.152z"/><path id="as" d="m354.227368 119.768c.8 0 1.568-.072 2.304-.216s1.472-.344 2.208-.6v5.328c-.768.352-1.72.64-2.856.864s-2.376.336-3.72.336c-1.568 0-2.968-.256-4.2-.768s-2.208-1.392-2.928-2.64-1.08-3.008-1.08-5.28v-12.624h-3.408v-3.024l3.936-2.4 2.064-5.52h4.56v5.568h7.344v5.376h-7.344v12.624c0 .992.288 1.736.864 2.232s1.328.744 2.256.744z"/><path id="at" d="m379.377564 88.52c1.056 0 1.968.248 2.736.744s1.152 1.416 1.152 2.76c0 1.312-.384 2.224-1.152 2.736s-1.68.768-2.736.768c-1.088 0-2.008-.256-2.76-.768s-1.128-1.424-1.128-2.736c0-1.344.376-2.264 1.128-2.76s1.672-.744 2.76-.744zm3.552 10.272v26.208h-7.152v-26.208z"/><path id="au" d="m404.936662 98.312c2.816 0 5.072.76 6.768 2.28s2.544 3.96 2.544 7.32v17.088h-7.152v-15.312c0-1.888-.336-3.304-1.008-4.248s-1.744-1.416-3.216-1.416c-2.176 0-3.664.744-4.464 2.232s-1.2 3.624-1.2 6.408v12.336h-7.152v-26.208h5.472l.96 3.36h.384c.832-1.344 1.976-2.32 3.432-2.928s3-.912 4.632-.912z"/><path id="av" d="m443.910857 90.728c4.672 0 8.12.848 10.344 2.544s3.336 4.272 3.336 7.728c0 1.568-.296 2.936-.888 4.104s-1.376 2.16-2.352 2.976-2.024 1.48-3.144 1.992l10.08 14.928h-8.064l-8.16-13.152h-3.888v13.152h-7.248v-34.272zm-.528 5.952h-2.208v9.264h2.352c2.4 0 4.12-.4 5.16-1.2s1.56-1.984 1.56-3.552c0-1.632-.56-2.792-1.68-3.48s-2.848-1.032-5.184-1.032z"/><path id="aw" d="m488.717955 98.792v26.208h-5.472l-.96-3.36h-.384c-.832 1.344-1.976 2.32-3.432 2.928s-3 .912-4.632.912c-2.816 0-5.072-.76-6.768-2.28s-2.544-3.96-2.544-7.32v-17.088h7.152v15.312c0 1.888.336 3.304 1.008 4.248s1.744 1.416 3.216 1.416c2.176 0 3.664-.744 4.464-2.232s1.2-3.624 1.2-6.408v-12.336z"/><path id="ax" d="m514.133053 117.224c0 2.656-.936 4.696-2.808 6.12s-4.664 2.136-8.376 2.136c-1.824 0-3.392-.12-4.704-.36s-2.624-.632-3.936-1.176v-5.904c1.408.64 2.928 1.168 4.56 1.584s3.072.624 4.32.624c1.376 0 2.368-.208 2.976-.624s.912-.96.912-1.632c0-.448-.12-.848-.36-1.2s-.76-.752-1.56-1.2-2.048-1.024-3.744-1.728c-1.664-.704-3.016-1.4-4.056-2.088s-1.816-1.52-2.328-2.496-.768-2.2-.768-3.672c0-2.432.944-4.256 2.832-5.472s4.4-1.824 7.536-1.824c1.632 0 3.184.16 4.656.48s2.992.848 4.56 1.584l-2.16 5.136c-1.28-.544-2.496-1-3.648-1.368s-2.32-.552-3.504-.552c-2.112 0-3.168.576-3.168 1.728 0 .416.136.792.408 1.128s.8.696 1.584 1.08 1.944.896 3.48 1.536c1.504.608 2.8 1.24 3.888 1.896s1.928 1.48 2.52 2.472.888 2.256.888 3.792z"/><path id="ay" d="m530.38015 119.768c.8 0 1.568-.072 2.304-.216s1.472-.344 2.208-.6v5.328c-.768.352-1.72.64-2.856.864s-2.376.336-3.72.336c-1.568 0-2.968-.256-4.2-.768s-2.208-1.392-2.928-2.64-1.08-3.008-1.08-5.28v-12.624h-3.408v-3.024l3.936-2.4 2.064-5.52h4.56v5.568h7.344v5.376h-7.344v12.624c0 .992.288 1.736.864 2.232s1.328.744 2.256.744z"/><path id="az" d="m538.803248 121.64c0-1.472.4-2.504 1.2-3.096s1.776-.888 2.928-.888c1.12 0 2.08.296 2.88.888s1.2 1.624 1.2 3.096c0 1.408-.4 2.424-1.2 3.048s-1.76.936-2.88.936c-1.152 0-2.128-.312-2.928-.936s-1.2-1.64-1.2-3.048z"/><mask id="aA" fill="#fff"><path d="m0 0h359.641627v351.063468h-359.641627z" fill="#fff" fill-rule="evenodd"/></mask><mask id="aB" fill="#fff"><path d="m0 0h359.641773v360h-359.641773z" fill="#fff" fill-rule="evenodd"/></mask></defs><g fill="none" fill-rule="evenodd"><g fill-rule="nonzero"><g fill="#3fb9c9"><path d="m44.48 135.2c28.8 0 45.44-17.44 45.44-37.28 0-16.8-8.8-26.72-23.52-32.64l-14.88-5.92c-10.56-4.16-18.08-6.72-18.08-13.28 0-6.4 5.44-9.92 14.24-9.92 9.28 0 16.64 3.2 24.48 9.12l14.24-17.92c-10.4-10.4-24.96-15.68-38.72-15.68-25.28 0-43.2 16-43.2 36 0 17.28 11.68 27.68 24.16 32.64l15.2 6.4c10.24 4.32 16.8 6.56 16.8 13.44 0 6.4-4.96 10.4-15.52 10.4-9.44 0-20.32-4.8-28.96-12l-16.16 19.52c12.32 11.36 28.96 17.12 44.48 17.12z" transform="translate(432.6175 146.8508)"/><path d="m92.3969925 64.16h12.3199995v35.04c0 21.6 9.28 36 32.16 36 9.28 0 15.84-1.92 20.64-3.36l-4.48-20.48c-2.24.64-5.44 1.44-8.32 1.44-6.72 0-11.52-3.84-11.52-13.92v-34.72h21.44v-22.24h-21.44v-24h-23.52l-3.36 24-13.9199995 1.12z" transform="translate(432.6175 146.8508)"/><path d="m190.233985 135.2c10.24 0 18.72-4.64 26.24-11.2h.64l2.08 8.96h23.2v-51.68c0-28.48-13.28-41.6-36.8-41.6-14.24 0-27.2 4.8-39.2 12l9.92 18.72c9.12-5.12 16.64-8 23.84-8 9.28 0 13.12 4.32 13.76 11.68-35.52 3.84-50.56 14.24-50.56 33.44 0 15.2 10.24 27.68 26.88 27.68zm9.92-22.08c-5.92 0-9.92-2.56-9.92-7.84 0-6.4 5.92-11.52 23.68-13.92v14.56c-4.16 4.48-8 7.2-13.76 7.2z" transform="translate(432.6175 146.8508)"/><path d="m250.950977 64.16h12.32v35.04c0 21.6 9.28 36 32.16 36 9.28 0 15.84-1.92 20.64-3.36l-4.48-20.48c-2.24.64-5.44 1.44-8.32 1.44-6.72 0-11.52-3.84-11.52-13.92v-34.72h21.44v-22.24h-21.44v-24h-23.52l-3.36 24-13.92 1.12z" transform="translate(432.6175 146.8508)"/><path d="m329.58797 132.96h28.32v-91.04h-28.32zm14.24-103.52c9.44 0 16.16-6.24 16.16-14.56 0-8.8-6.72-14.88-16.16-14.88-9.6 0-16.32 6.08-16.32 14.88 0 8.32 6.72 14.56 16.32 14.56z" transform="translate(432.6175 146.8508)"/><path d="m419.904962 135.2c9.6 0 21.12-2.88 29.92-10.72l-10.88-18.72c-4.64 3.68-10.08 6.4-15.84 6.4-11.2 0-19.36-9.6-19.36-24.8 0-15.04 7.84-24.64 20.32-24.64 4 0 7.52 1.44 11.68 4.96l13.28-18.24c-6.88-5.92-15.52-9.76-26.56-9.76-25.44 0-47.84 17.6-47.84 47.68 0 30.24 19.68 47.84 45.28 47.84z" transform="translate(432.6175 146.8508)"/><path d="m539.098947 135.2c28.8 0 45.44-17.44 45.44-37.28 0-16.8-8.8-26.72-23.52-32.64l-14.88-5.92c-10.56-4.16-18.08-6.72-18.08-13.28 0-6.4 5.44-9.92 14.24-9.92 9.28 0 16.64 3.2 24.48 9.12l14.24-17.92c-10.4-10.4-24.96-15.68-38.72-15.68-25.28 0-43.2 16-43.2 36 0 17.28 11.68 27.68 24.16 32.64l15.2 6.4c10.24 4.32 16.8 6.56 16.8 13.44 0 6.4-4.96 10.4-15.52 10.4-9.44 0-20.32-4.8-28.96-12l-16.16 19.52c12.32 11.36 28.96 17.12 44.48 17.12z" transform="translate(432.6175 146.8508)"/><path d="m600.93594 132.96h28.32v-91.04h-28.32zm14.24-103.52c9.44 0 16.16-6.24 16.16-14.56 0-8.8-6.72-14.88-16.16-14.88-9.6 0-16.32 6.08-16.32 14.88 0 8.32 6.72 14.56 16.32 14.56z" transform="translate(432.6175 146.8508)"/><path d="m642.452932 64.16h12.32v35.04c0 21.6 9.28 36 32.16 36 9.28 0 15.84-1.92 20.64-3.36l-4.48-20.48c-2.24.64-5.44 1.44-8.32 1.44-6.72 0-11.52-3.84-11.52-13.92v-34.72h21.44v-22.24h-21.44v-24h-23.52l-3.36 24-13.92 1.12z" transform="translate(432.6175 146.8508)"/><path d="m758.689925 135.2c10.72 0 23.2-3.68 32.64-10.4l-9.44-17.12c-6.56 3.84-12.64 5.76-19.2 5.76-11.52 0-20.16-5.12-22.72-17.6h53.44c.64-2.08 1.28-7.2 1.28-12.16 0-24.96-12.8-44-39.04-44-22.08 0-43.2 18.24-43.2 47.68 0 30.24 20.16 47.84 46.24 47.84zm-19.2-57.92c1.92-10.88 8.8-15.84 16.64-15.84 10.4 0 14.4 6.72 14.4 15.84z" transform="translate(432.6175 146.8508)"/><path d="m902.84391 135.2c16.8 0 31.52-6.56 39.84-14.56v-55.68h-44.32v23.36h18.88v19.2c-2.56 1.92-7.2 3.04-11.36 3.04-22.08 0-32.64-13.76-32.64-37.44 0-23.2 12.64-36.96 30.24-36.96 9.92 0 16.16 4.16 21.92 9.28l15.2-18.24c-8.16-8.16-20.64-15.52-38.08-15.52-31.84 0-58.56 22.72-58.56 62.4 0 40.32 25.92 61.12 58.88 61.12z" transform="translate(432.6175 146.8508)"/><path d="m1004.3609 135.2c10.72 0 23.2-3.68 32.64-10.4l-9.44-17.12c-6.56 3.84-12.64 5.76-19.2 5.76-11.519998 0-20.159998-5.12-22.719998-17.6h53.439998c.64-2.08 1.28-7.2 1.28-12.16 0-24.96-12.8-44-39.04-44-22.079998 0-43.199998 18.24-43.199998 47.68 0 30.24 20.16 47.84 46.239998 47.84zm-19.199998-57.92c1.92-10.88 8.8-15.84 16.639998-15.84 10.4 0 14.4 6.72 14.4 15.84z" transform="translate(432.6175 146.8508)"/><path d="m1057.39789 41.92v91.04h28.32v-60.8c5.76-5.28 9.44-8.16 15.84-8.16 7.2 0 10.56 3.68 10.56 16.32v52.64h28.48v-56.48c0-22.56-8.48-36.8-28.32-36.8-12.32 0-21.6 6.24-29.12 13.6h-.64l-1.92-11.36z" transform="translate(432.6175 146.8508)"/><path d="m1202.59489 135.2c10.72 0 23.2-3.68 32.64-10.4l-9.44-17.12c-6.56 3.84-12.64 5.76-19.2 5.76-11.52 0-20.16-5.12-22.72-17.6h53.44c.64-2.08 1.28-7.2 1.28-12.16 0-24.96-12.8-44-39.04-44-22.08 0-43.2 18.24-43.2 47.68 0 30.24 20.16 47.84 46.24 47.84zm-19.2-57.92c1.92-10.88 8.8-15.84 16.64-15.84 10.4 0 14.4 6.72 14.4 15.84z" transform="translate(432.6175 146.8508)"/><path d="m1255.63188 132.96h28.32v-52c4.8-12 12.8-16.32 19.68-16.32 4 0 6.72.64 9.92 1.44l4.8-24.48c-2.56-1.12-5.6-1.92-11.04-1.92-9.12 0-19.2 5.92-25.92 18.08h-.64l-1.92-15.84h-23.2z" transform="translate(432.6175 146.8508)"/><path d="m1346.26887 135.2c10.24 0 18.72-4.64 26.24-11.2h.64l2.08 8.96h23.2v-51.68c0-28.48-13.28-41.6-36.8-41.6-14.24 0-27.2 4.8-39.2 12l9.92 18.72c9.12-5.12 16.64-8 23.84-8 9.28 0 13.12 4.32 13.76 11.68-35.52 3.84-50.56 14.24-50.56 33.44 0 15.2 10.24 27.68 26.88 27.68zm9.92-22.08c-5.92 0-9.92-2.56-9.92-7.84 0-6.4 5.92-11.52 23.68-13.92v14.56c-4.16 4.48-8 7.2-13.76 7.2z" transform="translate(432.6175 146.8508)"/><path d="m1406.98586 64.16h12.32v35.04c0 21.6 9.28 36 32.16 36 9.28 0 15.84-1.92 20.64-3.36l-4.48-20.48c-2.24.64-5.44 1.44-8.32 1.44-6.72 0-11.52-3.84-11.52-13.92v-34.72h21.44v-22.24h-21.44v-24h-23.52l-3.36 24-13.92 1.12z" transform="translate(432.6175 146.8508)"/><path d="m1521.62286 135.2c23.04 0 44.48-17.6 44.48-47.84 0-30.08-21.44-47.68-44.48-47.68-23.2 0-44.64 17.6-44.64 47.68 0 30.24 21.44 47.84 44.64 47.84zm0-23.04c-10.72 0-15.52-9.6-15.52-24.8 0-15.04 4.8-24.64 15.52-24.64 10.56 0 15.36 9.6 15.36 24.64 0 15.2-4.8 24.8-15.36 24.8z" transform="translate(432.6175 146.8508)"/><path d="m1582.81985 132.96h28.32v-52c4.8-12 12.8-16.32 19.68-16.32 4 0 6.72.64 9.92 1.44l4.8-24.48c-2.56-1.12-5.6-1.92-11.04-1.92-9.12 0-19.2 5.92-25.92 18.08h-.64l-1.92-15.84h-23.2z" transform="translate(432.6175 146.8508)"/></g><g><g transform="translate(433.0672 334.9242)"><use fill="#ff2b00" xlink:href="#a"/><use fill="#e2725b" xlink:href="#a"/></g><g transform="translate(433.0672 334.9242)"><use fill="#ff2b00" xlink:href="#b"/><use fill="#e2725b" xlink:href="#b"/></g><g transform="translate(433.0672 334.9242)"><use fill="#ff2b00" xlink:href="#c"/><use fill="#e2725b" xlink:href="#c"/></g><g transform="translate(433.0672 334.9242)"><use fill="#ff2b00" xlink:href="#d"/><use fill="#e2725b" xlink:href="#d"/></g><g transform="translate(433.0672 334.9242)"><use fill="#ff2b00" xlink:href="#e"/><use fill="#e2725b" xlink:href="#e"/></g><g transform="translate(433.0672 334.9242)"><use fill="#ff2b00" xlink:href="#f"/><use fill="#e2725b" xlink:href="#f"/></g><g transform="translate(433.0672 334.9242)"><use fill="#ff2b00" xlink:href="#g"/><use fill="#e2725b" xlink:href="#g"/></g><g transform="translate(433.0672 334.9242)"><use fill="#ff2b00" xlink:href="#h"/><use fill="#e2725b" xlink:href="#h"/></g><g transform="translate(433.0672 334.9242)"><use fill="#ff2b00" xlink:href="#i"/><use fill="#e2725b" xlink:href="#i"/></g><g transform="translate(433.0672 334.9242)"><use fill="#ff2b00" xlink:href="#j"/><use fill="#e2725b" xlink:href="#j"/></g><g transform="translate(433.0672 334.9242)"><use fill="#ff2b00" xlink:href="#k"/><use fill="#e2725b" xlink:href="#k"/></g><g transform="translate(433.0672 334.9242)"><use fill="#ff2b00" xlink:href="#l"/><use fill="#e2725b" xlink:href="#l"/></g><g transform="translate(433.0672 334.9242)"><use fill="#ff2b00" xlink:href="#m"/><use fill="#e2725b" xlink:href="#m"/></g><g transform="translate(433.0672 334.9242)"><use fill="#ff2b00" xlink:href="#n"/><use fill="#e2725b" xlink:href="#n"/></g><g transform="translate(433.0672 334.9242)"><use fill="#ff2b00" xlink:href="#o"/><use fill="#e2725b" xlink:href="#o"/></g><g transform="translate(433.0672 334.9242)"><use fill="#ff2b00" xlink:href="#p"/><use fill="#e2725b" xlink:href="#p"/></g><g transform="translate(433.0672 334.9242)"><use fill="#ff2b00" xlink:href="#q"/><use fill="#e2725b" xlink:href="#q"/></g><g transform="translate(433.0672 334.9242)"><use fill="#ff2b00" xlink:href="#r"/><use fill="#e2725b" xlink:href="#r"/></g><g transform="translate(433.0672 334.9242)"><use fill="#ff2b00" xlink:href="#s"/><use fill="#e2725b" xlink:href="#s"/></g><g transform="translate(433.0672 334.9242)"><use fill="#ff2b00" xlink:href="#t"/><use fill="#e2725b" xlink:href="#t"/></g><g transform="translate(433.0672 334.9242)"><use fill="#ff2b00" xlink:href="#u"/><use fill="#e2725b" xlink:href="#u"/></g><g transform="translate(433.0672 334.9242)"><use fill="#ff2b00" xlink:href="#v"/><use fill="#e2725b" xlink:href="#v"/></g><g transform="translate(433.0672 334.9242)"><use fill="#ff2b00" xlink:href="#w"/><use fill="#e2725b" xlink:href="#w"/></g><g transform="translate(433.0672 334.9242)"><use fill="#ff2b00" xlink:href="#x"/><use fill="#e2725b" xlink:href="#x"/></g><g transform="translate(433.0672 334.9242)"><use fill="#ff2b00" xlink:href="#y"/><use fill="#e2725b" xlink:href="#y"/></g><g transform="translate(433.0672 334.9242)"><use fill="#ff2b00" xlink:href="#z"/><use fill="#e2725b" xlink:href="#z"/></g><g transform="translate(433.0672 334.9242)"><use fill="#ff2b00" xlink:href="#A"/><use fill="#e2725b" xlink:href="#A"/></g><g transform="translate(433.0672 334.9242)"><use fill="#ff2b00" xlink:href="#B"/><use fill="#e2725b" xlink:href="#B"/></g><g transform="translate(433.0672 334.9242)"><use fill="#ff2b00" xlink:href="#C"/><use fill="#e2725b" xlink:href="#C"/></g><g transform="translate(433.0672 334.9242)"><use fill="#ff2b00" xlink:href="#D"/><use fill="#e2725b" xlink:href="#D"/></g><g transform="translate(433.0672 334.9242)"><use fill="#ff2b00" xlink:href="#E"/><use fill="#e2725b" xlink:href="#E"/></g><g transform="translate(433.0672 334.9242)"><use fill="#ff2b00" xlink:href="#F"/><use fill="#e2725b" xlink:href="#F"/></g><g transform="translate(433.0672 334.9242)"><use fill="#ff2b00" xlink:href="#G"/><use fill="#e2725b" xlink:href="#G"/></g><g transform="translate(433.0672 334.9242)"><use fill="#ff2b00" xlink:href="#H"/><use fill="#e2725b" xlink:href="#H"/></g><g transform="translate(433.0672 334.9242)"><use fill="#ff2b00" xlink:href="#I"/><use fill="#e2725b" xlink:href="#I"/></g><g transform="translate(433.0672 334.9242)"><use fill="#ff2b00" xlink:href="#J"/><use fill="#e2725b" xlink:href="#J"/></g><g transform="translate(433.0672 334.9242)"><use fill="#ff2b00" xlink:href="#K"/><use fill="#e2725b" xlink:href="#K"/></g><g transform="translate(433.0672 334.9242)"><use fill="#ff2b00" xlink:href="#L"/><use fill="#e2725b" xlink:href="#L"/></g><g transform="translate(433.0672 334.9242)"><use fill="#ff2b00" xlink:href="#M"/><use fill="#e2725b" xlink:href="#M"/></g><g transform="translate(433.0672 334.9242)"><use fill="#ff2b00" xlink:href="#N"/><use fill="#e2725b" xlink:href="#N"/></g><g transform="translate(433.0672 334.9242)"><use fill="#ff2b00" xlink:href="#O"/><use fill="#e2725b" xlink:href="#O"/></g><g transform="translate(433.0672 334.9242)"><use fill="#ff2b00" xlink:href="#P"/><use fill="#e2725b" xlink:href="#P"/></g><g transform="translate(433.0672 334.9242)"><use fill="#ff2b00" xlink:href="#Q"/><use fill="#e2725b" xlink:href="#Q"/></g><g transform="translate(433.0672 334.9242)"><use fill="#ff2b00" xlink:href="#R"/><use fill="#e2725b" xlink:href="#R"/></g><g transform="translate(433.0672 334.9242)"><use fill="#ff2b00" xlink:href="#S"/><use fill="#e2725b" xlink:href="#S"/></g><g transform="translate(433.0672 334.9242)"><use fill="#ff2b00" xlink:href="#T"/><use fill="#e2725b" xlink:href="#T"/></g><g transform="translate(433.0672 334.9242)"><use fill="#ff2b00" xlink:href="#U"/><use fill="#e2725b" xlink:href="#U"/></g><g transform="translate(433.0672 334.9242)"><use fill="#ff2b00" xlink:href="#V"/><use fill="#e2725b" xlink:href="#V"/></g><g transform="translate(433.0672 334.9242)"><use fill="#ff2b00" xlink:href="#W"/><use fill="#e2725b" xlink:href="#W"/></g><g transform="translate(433.0672 334.9242)"><use fill="#ff2b00" xlink:href="#X"/><use fill="#e2725b" xlink:href="#X"/></g><g transform="translate(433.0672 334.9242)"><use fill="#ff2b00" xlink:href="#Y"/><use fill="#e2725b" xlink:href="#Y"/></g><g transform="translate(433.0672 334.9242)"><use fill="#ff2b00" xlink:href="#Z"/><use fill="#e2725b" xlink:href="#Z"/></g><g transform="translate(433.0672 334.9242)"><use fill="#ff2b00" xlink:href="#aa"/><use fill="#e2725b" xlink:href="#aa"/></g><g transform="translate(433.0672 334.9242)"><use fill="#ff2b00" xlink:href="#ab"/><use fill="#e2725b" xlink:href="#ab"/></g><g transform="translate(433.0672 334.9242)"><use fill="#ff2b00" xlink:href="#ac"/><use fill="#e2725b" xlink:href="#ac"/></g><g transform="translate(433.0672 334.9242)"><use fill="#ff2b00" xlink:href="#ad"/><use fill="#e2725b" xlink:href="#ad"/></g><g transform="translate(433.0672 334.9242)"><use fill="#ff2b00" xlink:href="#ae"/><use fill="#e2725b" xlink:href="#ae"/></g><g transform="translate(433.0672 334.9242)"><use fill="#ff2b00" xlink:href="#af"/><use fill="#e2725b" xlink:href="#af"/></g><g transform="translate(433.0672 334.9242)"><use fill="#ff2b00" xlink:href="#ag"/><use fill="#e2725b" xlink:href="#ag"/></g><g transform="translate(433.0672 334.9242)"><use fill="#ff2b00" xlink:href="#ah"/><use fill="#e2725b" xlink:href="#ah"/></g><g transform="translate(433.0672 334.9242)"><use fill="#ff2b00" xlink:href="#ai"/><use fill="#e2725b" xlink:href="#ai"/></g><g transform="translate(433.0672 334.9242)"><use fill="#ff2b00" xlink:href="#aj"/><use fill="#e2725b" xlink:href="#aj"/></g><g transform="translate(433.0672 334.9242)"><use fill="#ff2b00" xlink:href="#ak"/><use fill="#e2725b" xlink:href="#ak"/></g><g transform="translate(433.0672 334.9242)"><use fill="#ff2b00" xlink:href="#al"/><use fill="#e2725b" xlink:href="#al"/></g><g transform="translate(433.0672 334.9242)"><use fill="#ff2b00" xlink:href="#am"/><use fill="#e2725b" xlink:href="#am"/></g><g transform="translate(433.0672 334.9242)"><use fill="#ff2b00" xlink:href="#an"/><use fill="#e2725b" xlink:href="#an"/></g><g transform="translate(433.0672 334.9242)"><use fill="#ff2b00" xlink:href="#ao"/><use fill="#e2725b" xlink:href="#ao"/></g><g transform="translate(433.0672 334.9242)"><use fill="#ff2b00" xlink:href="#ap"/><use fill="#e2725b" xlink:href="#ap"/></g><g transform="translate(433.0672 334.9242)"><use fill="#ff2b00" xlink:href="#aq"/><use fill="#e2725b" xlink:href="#aq"/></g><g transform="translate(433.0672 334.9242)"><use fill="#ff2b00" xlink:href="#ar"/><use fill="#e2725b" xlink:href="#ar"/></g><g transform="translate(433.0672 334.9242)"><use fill="#ff2b00" xlink:href="#as"/><use fill="#e2725b" xlink:href="#as"/></g><g transform="translate(433.0672 334.9242)"><use fill="#ff2b00" xlink:href="#at"/><use fill="#e2725b" xlink:href="#at"/></g><g transform="translate(433.0672 334.9242)"><use fill="#ff2b00" xlink:href="#au"/><use fill="#e2725b" xlink:href="#au"/></g><g transform="translate(433.0672 334.9242)"><use fill="#ff2b00" xlink:href="#av"/><use fill="#e2725b" xlink:href="#av"/></g><g transform="translate(433.0672 334.9242)"><use fill="#ff2b00" xlink:href="#aw"/><use fill="#e2725b" xlink:href="#aw"/></g><g transform="translate(433.0672 334.9242)"><use fill="#ff2b00" xlink:href="#ax"/><use fill="#e2725b" xlink:href="#ax"/></g><g transform="translate(433.0672 334.9242)"><use fill="#ff2b00" xlink:href="#ay"/><use fill="#e2725b" xlink:href="#ay"/></g><g transform="translate(433.0672 334.9242)"><use fill="#ff2b00" xlink:href="#az"/><use fill="#e2725b" xlink:href="#az"/></g></g></g><g fill="#e2725b"><path d="m176.372751 347.818014c0-.13574-.116803-.245905-.260721-.245905-.143919 0-.260722.110165-.260722.245905s.116803.245905.260722.245905c.143918 0 .260721-.110165.260721-.245905m-.594445-1.229525c0-.23361-.200756-.422957-.448442-.422957-.247685 0-.44844.189347-.44844.422957s.200755.422957.44844.422957c.247686 0 .448442-.189347.448442-.422957m34.735941.064918c-.173641-.640336-.450006-1.24182-.79833-1.365755-.443226-.156888-1.255114-.259184-1.530957.058033.96467.431809.437491 1.424282.806673 1.61658.329551.171641 1.618038.041312 1.522614-.308858m-22.091464.279349c1.098159-.724436 1.686347-.69296 2.882017-1.265919-1.2426-.914275-2.576973-.925586-3.470726-.283282l1.536171.414595c.374918.101313-1.409461.836077-.947462 1.134606m-11.461323.058525c1.444398-.5164 2.134268-.500662 2.897661.334923.635118-.300004 1.134661-1.733631.170511-2.087242-1.283271-.470662-2.70994-.312791-3.682431.0841.630424.602959 1.292657.068361 1.810451.838044-.613218.394431-1.334374.088034-1.196192.830175m-25.692551-5.778767c-.36501-1.053457-.760785-2.020356-1.617516-1.593464-.430191.213937-1.669662.670336-.70447 1.413953.492764.379185 1.92204.615254 2.321986.179511m41.891186-33.185863c-3.2804-4.353994-8.659087-6.798782-14.747979-6.329103-7.515562.579844-14.358983 7.13272-14.414777 14.349048-.05788 7.498627 5.80262 13.373298 12.738858 14.793645 7.40293 1.51625 14.549831-1.978552 17.875075-8.411427.217441-.421481-.580367-1.105588-.18042-1.367723 3.250156-2.128062 1.765607-9.004058-1.270757-13.03444m-150.7278603-31.766992c0-.172625-.1480899-.312299-.3311165-.312299-.1830265 0-.3311164.139674-.3311164.312299s.1480899.3123.3311164.3123c.1830266 0 .3311165-.139675.3311165-.3123m128.6457823 11.889999c3.058264 5.179251 9.194608 6.864684 14.040381 4.086941 4.634587-2.656757 6.32302-8.323884 3.168809-12.891816-2.890359-4.185303-8.534461-5.51073-13.177391-3.140207-4.226819 2.158062-6.610336 7.577809-4.031799 11.945082m-134.1209363-12.627714c0-.172625-.1480899-.312299-.3311165-.312299-.1830265 0-.3311164.139674-.3311164.312299 0 .172626.1480899.312299.3311164.312299.1830266 0 .3311165-.139673.3311165-.312299m17.2295274-16.961543c6.5691418-4.14104 8.7456459-12.782634 4.4145384-19.067965-4.4171456-6.410252-12.8593116-8.54815-19.7783419-5.225482-6.9513597 3.337423-9.6847653 11.070644-7.0373979 18.094674 2.0185067 5.354827 12.9250135 12.172297 22.4012014 6.198773m270.7974659-2.107897c4.785284-5.103021 5.487146-11.704095 1.769256-17.274335-4.124095-6.179592-12.720607-8.188637-19.469647-4.952035-6.732354 3.228732-10.157715 11.001298-7.291862 17.766144 1.939768 4.579243 6.229161 7.624039 10.4638 8.444378 5.569014 1.079523 10.937272-.154428 14.528453-3.984152m-32.229885-27.736117c-2.078474-3.978743-7.110401-5.733521-11.358599-4.759737-3.928032.900995-7.266833 4.319075-7.435259 8.487657-.167905 4.148417 2.564458 7.604366 5.934546 9.040943 4.049528 1.725761 8.455723.677714 11.176614-2.032159 2.745399-2.733971 3.628723-7.011243 1.682698-10.736704m-212.1867248 12.682304c4.4035881-2.14921 6.29747-6.563696 5.2524977-10.696867-.9902207-3.914808-4.4171456-6.388612-9.3046331-7.113049-2.5733223-.381643-6.2322895 1.310183-8.1293 3.461359-3.0718221 3.483983-2.6155593 8.562905.2690647 11.822621 2.7526989 3.109715 7.6438364 4.609735 11.9123707 2.525936m-7.9640025-120.228363c-5.5486775 1.857074-7.702238 7.72781-5.571621 12.544597 1.997649 4.516291 7.6605226 6.909438 12.9333566 4.894493 4.5860932-1.752811 7.2856048-7.109605 5.5262553-11.77639-1.7890717-4.746951-7.4931392-7.468135-12.8879909-5.6627m204.8354173 15.863331c3.933768 3.108731 9.642007 3.127911 13.414127-.363939 3.500448-3.241029 4.055265-8.695202.824402-12.51804-3.110409-3.680707-8.499003-4.544325-13.139327-2.283474-4.405674 2.146259-6.970653 10.526209-1.099202 15.165453m50.830808-18.218609c2.115495-5.965656.242993-11.861474-4.184582-15.68874-4.556371-3.937922-11.37007-4.7066212-17.043372-2.067077-5.257191 2.445771-8.078199 7.501086-8.112614 12.670501-.034936 5.200399 2.679175 10.070302 7.635494 12.712305 8.227852 4.385961 18.624388 1.060342 21.705074-7.626989m-267.8075096-1.880682c1.671747-6.451072-1.6175169-12.992145-7.7533395-15.884971-5.8949158-2.7792189-13.2154573-1.9190428-18.1921115 3.077747-4.156424 4.173992-5.3557435 11.140972-2.0784727 16.673834 3.2517199 5.489092 9.034004 8.329786 15.7178633 7.413544 5.9538389-.816405 10.6760288-4.988921 12.3060604-11.280154m111.4407626 140.583888c.294615 3.1466 1.588316 5.704504 3.954626 6.852388 2.63433 1.278707 5.732225 1.613629 8.25236-.045246 2.54725-1.67658 3.816443-4.411044 4.116795-7.369773 1.099201-10.835066 5.762468-20.910286 14.727642-27.893987 9.93558-7.739615 22.864764-10.008334 35.455011-7.76273 8.781104 1.566415 14.341775 6.358612 19.75592 7.206 3.812794.596566 7.433695-1.495593 8.640314-4.379076 1.403204-3.355128.153827-7.286164-3.296042-8.975532l-12.648128-6.195331c-1.194104-.584762-2.310514-1.118867-3.427967-1.736581-9.105963-5.033675-13.567953-14.299867-13.696228-24.013607-.143918-10.886706 5.565363-20.68602 15.695963-25.906583l12.748765-6.570581c3.663661-1.888059 6.312592-5.471386 5.272835-9.584885-.776951-3.075289-4.26332-5.179743-7.560406-4.951544-3.39981.235577-6.078985 1.681007-8.72166 3.438244-18.342808 12.195905-43.567103 8.000273-56.017082-9.589311-3.980176-5.623355-6.510741-11.67557-6.88983-18.528942l-.511535-9.252913c-.229957-4.16268-3.2804-7.2782964-7.553627-7.5423986-3.859723-.2390198-7.749168 2.4398693-8.12565 6.4166456l-1.225391 12.943947c-1.137268 12.01541-9.199302 22.013415-19.243863 27.382997-12.03126 6.430908-26.131085 7.281247-37.374444 1.122802l-10.273996-5.62729c-2.320422-1.271328-5.2853484-1.234443-7.60525-.052132-1.9616695 1.000342-3.9181241 2.984303-4.0891575 5.586962-.2216134 3.367423 1.9345542 6.270086 4.9338961 7.859616l12.6830634 6.722059c16.609531 8.802415 21.200318 27.928414 10.916936 42.62173-3.508791 5.013511-8.3895 8.001748-13.892812 10.568997l-9.764025 4.554652c-3.3513151 1.563463-5.5278196 5.220071-4.2419406 8.704053 1.6748753 4.539407 7.2329396 6.352218 11.6766776 4.349568 9.503825-4.283665 12.497431-6.618779 23.523869-7.337805 23.858115-1.555595 41.675308 14.257571 43.804361 36.985587m17.111159-178.4768647c1.500714-3.7397232.715942-7.7597781-2.162425-10.3240754-4.454689-3.968415-11.494695-3.261684-15.004008 1.3451003-3.391987 4.4533395-1.906396 10.9265427 3.426926 13.6157597 4.882273 2.4620009 11.521288.8901761 13.739507-4.6367846m5.720754-30.7386167c1.034022-2.7797101 1.21757-4.9077719.727413-7.7789587-1.053315-6.1717236-6.962309-10.6663753-13.330174-11.531469-6.612943-.8980451-13.388577 2.0636347-16.447363 7.8581401-4.427053 8.3863441.848389 18.1295919 10.219766 20.4529024 7.967131 1.9756007 16.044809-1.5147748 18.830358-9.0006148m-50.698361 295.4730524c-17.802072-20.613232-5.965833-42.538121 2.301128-64.468421 3.809665-10.106696 3.238685-20.244867-4.901044-28.149729-8.350914-8.109455-21.113237-9.806691-31.505079-4.019071-4.392116 2.446263-7.65948 5.580076-11.0123597 9.247995-7.2470179 7.927977-14.4194697 15.929234-23.2078739 22.161942l-6.3762079 4.522193c-1.2848361-.341316-3.1036301-.813453-4.069343-.960505.0902096-1.198049-.3415454-1.859534-1.3051725-2.450689-1.0663513-.654108-1.8944032-1.185262-3.4743762-.463285-.3665746-.638369-.1574759-1.04608-.2028415-1.749368-1.4855917-.17656-2.3136435-1.231001-3.5338208-1.916584-1.5570295-.874438-1.2931792 2.210195-3.2110474 2.447247-.550644.067869-.808237-.693452-1.1586468-1.318052-.781122-.177543-1.3708743.320661-2.397596.307382.4463554 1.113949 1.7108552 1.49707 2.8606375 2.036094-1.5700655.869519-2.3522304-.967882-3.4988841-.83952l-.6382465 2.319868c-.1319251.479515-1.3182084.804601-2.2719281.218855 1.0486223-1.073129 1.8975319-1.501496 2.8298724-2.886433-3.8847521-1.079523-3.3633089 2.367573-5.502269 1.303296-.9943923-.494268.6966481-2.761021-1.024636-1.817729-.2309993.126395-.8525596.382628-.909397.773125-.0370225.254757.7430567.462793.8019797.830175.0651804.405252-.3504098 1.042637-.7075984 1.081983-.5954883.06541-1.5132283.492793-2.0091209-.385088.3144303-.161805.8337878-.350168.8989682-.662467.1439183-.688535-1.1695972-2.501346-1.3359376-2.558888-.5396937-.185904-.8520382.39394-1.2201771.754436-.0495371.048689 3.3361938 4.689408-3.9129101-1.420838-.5683731 1.005751 1.3489737 2.208718 1.0898163 2.687249-.2445568.451482-.2920081 1.061818-.7540069 1.321002-.0255507-1.288543-.4854636-2.532822-1.5127068-2.79053-1.3667027-.3423-2.7125476-.140166-3.1484742 1.45379-.9860491-.519843-1.9350759-1.261001-2.3866457-2.019371.5110144-1.05395.2216134-1.900354-.5595086-3.406277-.3869109.414596-.9302547.818863-1.9246469.724436.1423539-.455907 1.3010008-.574926 1.0564439-1.125753-.0954241-.215413-.9229545-.471646-1.0908593-.224757-2.2119621 3.255291-2.6875184 1.168049-5.0241055 3.462342-.1121103-1.221164-1.6785257-1.518709-1.8959676-2.292818-.5683732-2.025274-1.9903489-4.702195-4.0437923-4.809902.7347135-.613779 1.37296-.038361 1.6983406-.688041-.9276475-.262627-1.4397048-.425909-1.6128239-1.350511-.9907422-.618697-.9516339-.159838-.6549327 1.104605-1.2123556-1.38592-2.6682251-2.73348-4.55272088-2.695119-.35718861 1.212312-.03806536 2.106914.21431317 1.815271.17364058-.200167.42132617-1.032801.99960671-1.055916.5365651 2.498395 3.430575 6.511073.5751518 6.104838-.500064-.070821-.8374378-.574926-1.31768702-1.113458-.26385026-.295578-1.33593755.180986-1.6899975-.323611-4.64553778-6.617796-7.40345105-14.00429-7.68711617-21.839315-.71333434-19.701417 13.13776229-36.949193 33.60023769-41.078922 6.6843809-1.349035 13.2191075-2.193472 20.108937-2.489051 1.4355332-.061967 2.4586048-.233609 3.8472082-.452464 9.1555002-1.441004 18.2724138-2.118718 26.9768657-4.912198 9.0788483-2.913975 14.7756151-9.356194 14.0607167-18.100576-.4004686-4.895968-3.4467398-9.261765-8.3045049-12.280495-5.5930001-3.475622-11.7392515-5.764014-18.4481401-7.147475l-38.3844794-7.91519c-22.1868883-4.574816-36.0572783-24.513778-33.20759102-45.839151 2.53682134-18.9828823 18.03724292-34.4616183 38.87932902-36.9954234 13.8782117-1.6869083 27.0383961 2.2898674 37.23939 11.2865476 5.0470491 4.4518641 9.7457742 9.2209454 13.586725 14.6706921.6982125.9905058 1.1617755 1.4070688 1.9309043 2.2156042 9.366163 9.8470195 18.63951 24.3883655 34.881423 23.3791715 9.545019-.592631 17.828145-6.769273 21.004777-15.198896 3.714762-9.8573478-1.338023-24.3126271-4.592351-33.8522656-2.517527-7.3786254-5.105972-14.3623273-7.050433-21.8348884-5.731183-22.0266944 7.535376-43.73076139 30.218678-50.21429258 26.119092-7.46518396 53.367629 7.85961559 57.810326 33.53652378.584016 3.3762756.886975 7.3102638.434883 10.5021106-1.186283 8.3676553-3.939503 15.9184142-6.574877 23.8685228-4.413496 13.3142803-12.982894 33.2040604-2.036758 45.0335664 5.628458 6.083689 13.74733 9.651771 22.271884 7.860599 7.313241-1.536414 8.89895-2.083307 14.629611-7.289608 12.735208-11.568355 23.083249-28.9110506 36.812328-37.4400196 12.671071-7.8714191 29.67012-9.0901242 43.234945-3.2066012 20.070871 8.7060206 30.729171 29.6374538 25.090283 49.8277298-4.136608 14.813809-16.143882 26.3079-32.126638 29.671389l-41.364528 8.705529c-6.463811 1.360346-12.323789 3.824806-17.316609 7.69781-8.093841 6.278446-8.573569 16.934002-1.047579 23.918195 3.769513 3.498245 8.972996 5.237285 14.295888 6.368448 10.239581 2.176259 20.343065 3.321685 30.835546 4.531046 15.218842 1.754777 23.204745 2.904138 34.956511 12.247052.886454.704764 1.229042 1.255591 1.97627 2.046914 16.860867 17.854178 13.998665 44.431099-5.426138 59.751964-1.190455.938865-2.585316-.498696-3.071301-1.298871-.403597 1.030834-1.09451 1.712974-1.162818 2.487575.974056.036886 1.034022-.580828 1.261371-.706239.524572-.289184 1.064787.053115 1.425626.777551-1.555987-.235085-1.574759.847389-2.307387 1.309198-15.26525 9.617837-34.729162 9.573083-50.244184.210987-6.046656-3.648738-11.111956-7.993388-15.836231-13.078703l-15.093696-16.247435c-4.020849-4.32842-9.148721-7.63781-15.223535-8.818645-11.523375-2.240195-23.404979 3.633984-28.357126 13.41756-1.998171 3.946775-2.903917 7.87437-2.44609 12.333611 1.553379 15.147256 10.341783 27.925956 12.494301 44.212243 1.859467 14.068225-3.898831 27.839889-15.808595 36.568041l-1.609695-4.949084c-2.010685-.144101-4.017199-.541974-5.543463-1.520676.520922.532138-5.474111 2.805284-4.442696 2.742332-.811887.049673-.785815-.561155-.923476-1.32592-.117847-.653616 1.102331-.005902 1.834437-.68755-1.231127-.873946-2.688561-.29066-3.641238.810994-.912004-.244429-1.695734-.608368-2.72037-1.103129.871854 2.885449 3.35966 1.724777 2.209356 4.231041-.297223.647222-.912526.549844-1.813059.480007-.811887-.063444-.525615 1.041654-1.224348 1.694777-.206492-1.218214-1.010036-1.893468-2.257328-2.200849 1.782293-2.74135-.547515.012295-2.454433-2.479215-.237257-.310332-.603831-.232626-.956328-.317709-.451569-.109182-.327987.238527-.627295.713124-.617911.853291-2.194233.191806-3.188104.455417-.100118.810994.714377 1.561496-.098032 1.192639-.154347-.07033-.507885-.408203-.837959-.19574.195541.667385.550644 1.222639 1.701991 1.408544-.021901.70673-1.537736.972799-2.228127.564597-.495371-.292627-.897925-1.053457-.800937-2.013962.084474-.48099-.576716-.389514-.819187.070821-.312867 1.41592-3.052529 2.698561-3.855551 1.779368-.909919-4.355961-6.001812-1.149852-7.80027-2.747742 1.017857-.292627 2.719848-.070329 3.039492-1.218705.106896-.384596-.893753-.763781-1.189411-.675256-.295137.088526-.582452 1.028867-.998564 1.024441-1.157083-.012787-2.100373-1.066245-3.525478-.199675.281579.54345 1.011079.537056 1.41624 1.08149.538651.724928-.277929 1.114441-.714899.369349-1.312472-1.828057-4.024498 1.338215-6.896086-.234101.002085-.845421.749835-2.036586.028158-2.646922-1.236342-1.044604-1.859988-2.094127-2.404896-1.38297-.128276.167708-.774865-.170657-.594968-.434759.212749-.313284.954241-.024099 1.415198-.498203-1.78438-1.846748-4.64971-.894111-6.204132 1.068703-.757136-.676731-2.143131-1.357888-3.594308-.397875-.549601-.585746-.171034-.6846.434362-1.259033-.989178-.606894-1.436577.010327-2.631724 1.886582" mask="url(#aA)" transform="translate(45.5 125.3033)"/><path d="m185.38986 350.112357c-.015643.949193-.41559 1.734613-1.100766 1.837402-.15904-.403776.106896-.901488.132446-1.251657.017208-.24197-.516228-.346234-.669012-.781486.149655-.593123 1.64724-.38312 1.637332.195741" transform="translate(45.5 125.3033)"/><path d="m184.013824 348.639337c-.463042.417055-.881761.558696-1.059573.550335-.169469-.007869-.375439-.108198-.598617-.347218-.090209-.096395 1.153433-1.42674 1.600831-1.253132.269065.104756.593402.567057.057359 1.050015" transform="translate(45.5 125.3033)"/><path d="m25.7340058 275.336975c-.7905079 1.102637-1.7593494 1.215262-2.0899445.766731.1277536-.748043 1.662361-1.323952 2.0899445-.766731" transform="translate(45.5 125.3033)"/><path d="m33.3769557 280.618866c-.7654786-.524269-1.1711615-.428366-1.823487-.467219.4958926-1.047063-.1877196-1.553136-.6700545-2.466919 1.7656067.199675 1.9971276 1.892976 2.4935415 2.934138" transform="translate(45.5 125.3033)"/><path d="m23.5177156 277.475118c.4500055-.44558.9026182-.3182 1.1038954.003443.2190061.349677.0406725.792306-.7383636.779519-.3498885-.005902-1.1664686.010328-.3655318-.782962" transform="translate(45.5 125.3033)"/><path d="m46.0599674 280.191237c0 .300497-.2581144.543943-.5767162.543943-.3180804 0-.5767162-.243446-.5767162-.543943 0-.300495.2586358-.543941.5767162-.543941.3186018 0 .5767162.243446.5767162.543941" transform="translate(45.5 125.3033)"/><path d="m36.0790746 280.969084c-.3092159.338858-1.2514638.498204-1.7291058-.285742.4390552-.80706.5975739-.137214 1.7291058.285742" transform="translate(45.5 125.3033)"/><path d="m26.3577562 276.707747c.5449082.277873.3159946.540007-.2841865.603943-1.2113127-.079181-1.057487-.671321.2841865-.603943" transform="translate(45.5 125.3033)"/><path d="m155.585364 344.621249c0 .172625-.14809.3123-.331116.3123-.182505 0-.331116-.139675-.331116-.3123 0-.172626.148611-.312299.331116-.312299.183026 0 .331116.139673.331116.312299" transform="translate(45.5 125.3033)"/><path d="m43.9261695 280.440044c0 .13574-.1168033.245905-.2607216.245905s-.2607216-.110165-.2607216-.245905c0-.135739.1168033-.245905.2607216-.245905s.2607216.110166.2607216.245905" transform="translate(45.5 125.3033)"/><path d="m204.009243 345.850774c0 .13574-.116804.245905-.260722.245905-.143919 0-.260722-.110165-.260722-.245905s.116803-.245905.260722-.245905c.143918 0 .260722.110165.260722.245905" transform="translate(45.5 125.3033)"/><path d="m154.472136 344.375344c0 .135739-.116803.245905-.260723.245905-.143918 0-.260721-.110166-.260721-.245905s.116803-.245905.260721-.245905c.14392 0 .260723.110166.260723.245905" transform="translate(45.5 125.3033)"/><path d="m185.758729 347.326204c0 .13574-.116803.245905-.260721.245905-.143919 0-.260722-.110165-.260722-.245905s.116803-.245905.260722-.245905c.143918 0 .260721.110165.260721.245905" transform="translate(45.5 125.3033)"/><path d="m183.151513 351.260684c0 .135739-.116803.245904-.260721.245904s-.260722-.110165-.260722-.245904.116804-.245905.260722-.245905.260721.110166.260721.245905" transform="translate(45.5 125.3033)"/><path d="m183.577739 12.1819888c0 .1357396.116803.245905.260721.245905.143919 0 .260722-.1101654.260722-.245905s-.116803-.245905-.260722-.245905c-.143918 0-.260721.1101654-.260721.245905m.594445 1.229525c0 .2336098.200756.4229566.448442.4229566.247685 0 .44844-.1893468.44844-.4229566s-.200755-.4229566-.44844-.4229566c-.247686 0-.448442.1893468-.448442.4229566m-34.735941-.0649189c.173641.6403366.450006 1.2418202.79833 1.3657563.443227.1568874 1.255114.2591839 1.530957-.0580335-.96467-.4318092-.437491-1.4242818-.806672-1.6165795-.329552-.1716417-1.618039-.041312-1.522615.3088567m22.091465-.2793481c-1.09816.7244361-1.686348.6929603-2.882018 1.2659189 1.2426.9142748 2.576973.9255864 3.470727.2832826l-1.536172-.4145958c-.374918-.1013129 1.409461-.836077.947463-1.1346057m11.461322-.0585254c-1.444398.5164005-2.134268.5006626-2.897661-.3349226-.635117.3000041-1.13466 1.7336302-.170511 2.0872416 1.283272.4706622 2.70994.3127912 3.682432-.0840995-.630425-.602959-1.292658-.0683616-1.810451-.8380442.613217-.3944316 1.334373-.088034 1.196191-.8301753m25.692551 5.7787674c.36501 1.0534571.760786 2.0203555 1.617517 1.5934644.43019-.2139372 1.669661-.670337.70447-1.4139537-.492765-.3791854-1.92204-.6152543-2.321987-.1795107m-41.891186 33.1858633c3.2804 4.3539939 8.659087 6.7987814 14.74798 6.3291028 7.515561-.579844 14.358982-7.1327204 14.414776-14.3490485.05788-7.498627-5.80262-13.3732974-12.738858-14.7936447-7.40293-1.5162502-14.549831 1.9785517-17.875074 8.4114264-.217442.4214812.579845 1.1055889.180419 1.3677236-3.250156 2.1280619-1.765607 9.0040575 1.270757 13.0344404m150.72786 31.7669913c0 .1726253.14809.3122993.331117.3122993.183026 0 .331117-.139674.331117-.3122993s-.148091-.3122993-.331117-.3122993c-.183027 0-.331117.139674-.331117.3122993m-128.645782-11.8899985c-3.058264-5.179251-9.194608-6.8646839-14.04038-4.0869411-4.634588 2.6567576-6.32302 8.3238843-3.16881 12.8918155 2.890359 4.1853031 8.534461 5.510731 13.177391 3.1402069 4.226819-2.1580624 6.610337-7.5778085 4.031799-11.9450813m134.120936 12.6277135c0 .1726253.14809.3122994.331117.3122994.183026 0 .331117-.1396741.331117-.3122994s-.148091-.3122994-.331117-.3122994c-.183027 0-.331117.1396741-.331117.3122994m-17.229527 16.9615426c-6.569142 4.141041-8.745646 12.782635-4.414538 19.067966 4.417146 6.410251 12.859311 8.54815 19.778342 5.225482 6.95136-3.337423 9.684765-11.070644 7.037398-18.094674-2.018507-5.354827-12.925014-12.1722976-22.401202-6.198774m-270.797465 2.107898c-4.7852845 5.103021-5.4871471 11.704094-1.7692568 17.274335 4.1240945 6.179592 12.7206077 8.188636 19.4696474 4.952034 6.7323537-3.228732 10.1577142-11.001298 7.2918622-17.766144-1.9397688-4.579243-6.2291608-7.624039-10.4638013-8.4443776-5.5690138-1.0795232-10.9372719.1544286-14.5284515 3.9841526m32.229885 27.736117c2.0784727 3.978742 7.1103999 5.733521 11.3585979 4.759737 3.9280319-.900996 7.2668329-4.319076 7.4352591-8.487657.1679047-4.148417-2.5644578-7.604366-5.9345454-9.040943-4.0495282-1.725761-8.4557235-.677714-11.1766143 2.032158-2.7453986 2.733973-3.6287235 7.011245-1.6826973 10.736705m212.186724-12.682304c-4.403588 2.149209-6.297992 6.563696-5.252498 10.696867.990221 3.914807 4.417146 6.388611 9.304634 7.113048 2.573322.381644 6.232289-1.310182 8.1293-3.461359 3.071822-3.483982 2.615558-8.562903-.269587-11.822621-2.752177-3.109714-7.643315-4.609735-11.911849-2.525935m7.964003 120.228363c5.548677-1.857074 7.702237-7.72781 5.57162-12.544597-1.997649-4.516783-7.660522-6.909439-12.933356-4.894493-4.586094 1.752811-7.285605 7.109605-5.526256 11.77639 1.789073 4.74695 7.49314 7.468135 12.887992 5.6627m-204.8354178-15.863331c-3.9337677-3.108732-9.6420069-3.128403-13.4141272.363939-3.5004485 3.241028-4.055264 8.695201-.8244017 12.51804 3.1104088 3.680706 8.4990032 4.544324 13.1393266 2.283474 4.4056739-2.146259 6.9706531-10.526209 1.0992023-15.165453m-50.830808 18.21861c-2.1154951 5.965655-.2429925 11.861473 4.184582 15.688738 4.556371 3.937923 11.3700698 4.706622 17.0428507 2.067077 5.2577121-2.44577 8.07872-7.501085 8.1131353-12.6705.0349367-5.200399-2.6791754-10.070302-7.6354933-12.712305-8.2278528-4.385962-18.624388-1.060342-21.7050747 7.62699m267.8075098 1.880681c-1.671747 6.451072 1.616995 12.992145 7.753339 15.884971 5.894916 2.779218 13.215457 1.919042 18.192112-3.077747 4.156423-4.173992 5.355743-11.140972 2.078472-16.673835-3.25172-5.489091-9.034004-8.329785-15.717863-7.413543-5.953839.816405-10.676029 4.98892-12.30606 11.280154m-111.440763-140.583888c-.294615-3.1466002-1.588316-5.7045038-3.954625-6.8528805-2.634331-1.2782142-5.732226-1.6131368-8.252361.0457383-2.547249 1.6765803-3.816443 4.4110432-4.116794 7.3697732-1.099202 10.835066-5.762469 20.910286-14.727642 27.893987-9.935581 7.739615-22.864765 10.008334-35.455534 7.762729-8.780582-1.566414-14.341253-6.358611-19.755398-7.206-3.8127926-.596565-7.4336944 1.495594-8.6403144 4.379076-1.4032036 3.355128-.1538257 7.286165 3.2960425 8.975533l12.6481279 6.19533c1.194105.584762 2.310514 1.118868 3.427968 1.736581 9.105963 5.033676 13.567952 14.299868 13.696227 24.013607.143918 10.886707-5.565363 20.686021-15.695963 25.906584l-12.7487651 6.570581c-3.6636606 1.888058-6.3125919 5.471386-5.272834 9.584885.7769504 3.075288 4.2633202 5.179743 7.5604051 4.951543 3.39981-.235577 6.078985-1.681006 8.72166-3.438244 18.342809-12.195904 43.567104-8.000273 56.017083 9.589312 3.980175 5.623356 6.51074 11.67557 6.889829 18.528941l.511535 9.252914c.229957 4.16268 3.2804 7.278296 7.553628 7.542398 3.859722.23902 7.749167-2.439869 8.125649-6.416645l1.225392-12.943948c1.137268-12.01541 9.199302-22.013415 19.243862-27.382997 12.031261-6.430907 26.131085-7.281246 37.374444-1.122802l10.273996 5.62729c2.320423 1.27133 5.285349 1.234444 7.60525.052133 1.96167-1.000342 3.918125-2.984304 4.089158-5.586962.221613-3.367424-1.934555-6.270086-4.933897-7.859616l-12.683063-6.722059c-16.609531-8.802415-21.200317-27.928414-10.916935-42.62173 3.508791-5.013511 8.389499-8.001748 13.892811-10.568997l9.764025-4.554652c3.351316-1.563464 5.52782-5.220071 4.24194-8.704053-1.674875-4.539407-7.232939-6.352219-11.676677-4.349568-9.503825 4.283665-12.497431 6.618779-23.523869 7.337805-23.858114 1.555595-41.675308-14.257572-43.804361-36.985587m-17.111159 178.476865c-1.500714 3.739723-.715942 7.759778 2.162425 10.324075 4.454689 3.968415 11.494695 3.261684 15.004008-1.3451 3.391987-4.45334 1.906396-10.926543-3.426926-13.61576-4.882273-2.462001-11.521288-.890176-13.739507 4.636785m-5.720754 30.738616c-1.034022 2.77971-1.21757 4.907772-.727413 7.778958 1.053315 6.171725 6.962309 10.666376 13.330174 11.53147 6.612943.898045 13.388577-2.063635 16.447363-7.85814 4.427053-8.386344-.848388-18.129592-10.219766-20.452902-7.967131-1.975601-16.044808 1.514774-18.830358 9.000614m50.698361-295.4730528c17.802072 20.6132324 5.965311 42.5381221-2.301128 64.4684217-3.809665 10.1066954-3.238685 20.2448671 4.901044 28.1497281 8.350914 8.109456 21.113237 9.806692 31.505079 4.019072 4.392116-2.446263 7.65948-5.580076 11.01236-9.247995 7.247018-7.9279773 14.418948-15.9292342 23.207874-22.1619423l6.376208-4.5221929c1.284836.3413161 3.10363.8134537 4.069342.9605049-.090209 1.1980491.341546 1.8595336 1.305173 2.4506892 1.066351.6541073 1.894403 1.1852621 3.474376.463285.366575.6383694.157477 1.0460799.202842 1.7493682 1.485592.1765598 2.313644 1.2310004 3.53382 1.9165835 1.55703.8744382 1.29318-2.210194 3.211048-2.4472465.550644-.0678697.808237.6934521 1.158647 1.3180508.781121.1770516 1.370874-.3206601 2.397596-.3073813-.446355-1.1139496-1.710856-1.4970695-2.860638-2.0360933 1.570066-.8695201 2.352231.967882 3.498884.8395196l.638247-2.3198677c.131925-.4795148 1.318209-.8046012 2.271928-.2188554-1.048622 1.0731293-1.897532 1.5014959-2.829872 2.8864328 3.884752 1.079523 3.363308-2.3675734 5.502269-1.3032965.994392.494269-.696648 2.7610213 1.024636 1.8177298.230999-.1263953.852559-.3826282.909397-.7731253.037022-.2547576-.743057-.4627933-.80198-.8301753-.065181-.4052515.35041-1.0426372.707599-1.081982.595487-.0654108 1.513228-.4927937 2.00912.3850872-.31443.1618055-.833788.3501687-.898968.6624681-.143919.688534 1.169597 2.5013457 1.335937 2.5588874.539694.1859041.852039-.3939398 1.219657-.7544366.050058-.0486891-3.335673-4.6894083 3.913431 1.4208391.568373-1.0057515-1.348974-2.2087187-1.089816-2.6872498.244557-.4514815.292007-1.0618178.754006-1.3210017.025551 1.2885422.485464 2.5328216 1.513228 2.7905299 1.366182.3422998 2.711506.1401659 3.147953-1.4537902.98605.5198431 1.935076 1.2610008 2.386647 2.0193717-.511015 1.0539489-.221614 1.9003539.559508 3.4062761.386911-.4145958.930255-.8188636 1.924647-.7244361-.142354.4559078-1.301001.5749259-1.056444 1.1257531.095424.2154127.922954.4716457 1.090859.2247571 2.211963-3.2552903 2.687518-1.1680487 5.024105-3.4623423.112111 1.2211642 1.678527 1.5187093 1.895968 2.2928181.568373 2.0252736 1.990349 4.7021954 4.043792 4.8099018-.734713.6137789-1.37296.0383612-1.698341.6880422.927648.2626266 1.439705.4259075 1.612825 1.3505103.990742.618697.951634.1598383.654933-1.1046053 1.212355 1.3859206 2.668224 2.73348 4.55272 2.6951188.357189-1.2123116.038066-2.106914-.214313-1.8152707-.17364.2001667-.421326 1.032801-.999606 1.0559161-.536566-2.4983948-3.431097-6.5110726-.575152-6.1048375.500064.0708206.837438.5749259 1.317686 1.112966.263851.2960696 1.335938-.1804943 1.689998.3241028 4.645538 6.6177954 7.403452 14.0042891 7.687116 21.8393141.713335 19.701418-13.137762 36.949194-33.600237 41.078923-6.684381 1.349035-13.219108 2.193472-20.108937 2.48905-1.436055.061476-2.458605.233609-3.847209.452465-9.1555 1.441003-18.272413 2.118717-26.976866 4.912198-9.078848 2.913974-14.775614 9.356194-14.060716 18.100575.399947 4.895969 3.44674 9.261766 8.304504 12.280496 5.593001 3.475622 11.739252 5.764013 18.448141 7.147475l38.384479 7.914698c22.186889 4.575309 36.057278 24.513778 33.207591 45.839642-2.536821 18.982883-18.037243 34.461619-38.879329 36.995424-13.878211 1.686908-27.038396-2.289867-37.239389-11.286548-5.047049-4.451863-9.745775-9.220945-13.586725-14.670692-.698213-.990505-1.161776-1.407068-1.930904-2.215604-9.366164-9.847019-18.639511-24.388366-34.881424-23.379172-9.545019.592631-17.828144 6.769273-21.004777 15.198897-3.714762 9.857347 1.338023 24.312627 4.592351 33.852265 2.517528 7.378626 5.105972 14.362327 7.050433 21.834889 5.731184 22.026694-7.535376 43.730761-30.218678 50.214292-26.119091 7.465184-53.367629-7.859615-57.810326-33.536523-.584016-3.376276-.886974-7.310264-.434883-10.502111 1.186283-8.367655 3.939503-15.918414 6.574877-23.868523 4.413496-13.314281 12.982894-33.20406 2.036758-45.033566-5.628458-6.083689-13.74733-9.651771-22.272405-7.860599-7.31272 1.536415-8.898428 2.083307-14.62909 7.289608-12.7352084 11.568354-23.0832491 28.91105-36.8123279 37.440019-12.6710707 7.87142-29.6701201 9.090124-43.2349444 3.206601-20.0708716-8.70602-30.72917133-29.637454-25.09028418-49.82773 4.13660918-14.813808 16.14388258-26.3079 32.12663918-29.671389l41.3645275-8.705528c6.4638103-1.360346 12.3237894-3.824806 17.3166083-7.69781 8.0938415-6.278447 8.5730475-16.934002 1.0475797-23.918195-3.7695133-3.498245-8.9729954-5.237286-14.2958879-6.368449-10.2395808-2.176259-20.343065-3.321684-30.8355457-4.531045-15.2188423-1.754778-23.2047455-2.904138-34.9565116-12.247052-.8864535-.704765-1.2290417-1.255592-1.9762699-2.046914-16.86086696-17.854178-13.99866504-44.4310985 5.4261383-59.7519636 1.190455-.9388652 2.5853156.4986954 3.0713007 1.2988703.403597-1.0308338 1.0945094-1.7129742 1.1628184-2.487575-.974056-.0368858-1.0340219.5808276-1.2613712.7062391-.5245718.2891844-1.0647871-.0531154-1.4256258-.7775516 1.5559866.2350852 1.5747586-.8473886 2.3073863-1.3091982 15.2652507-9.6178363 34.728641-9.5730815 50.2441844-.2109864 6.0466557 3.6487384 11.1119553 7.9933878 15.836231 13.0787032l15.0936958 16.2474352c4.020849 4.32842 9.148721 7.637809 15.223536 8.818645 11.523374 2.240194 23.404978-3.634476 28.357125-13.41756 1.998171-3.9467753 2.903917-7.8743703 2.446091-12.3336115-1.55338-15.1472561-10.341784-27.9259553-12.494301-44.2122433-1.859467-14.068225 3.89883-27.8398886 15.808594-36.56804059l1.609695 4.94908399c2.010685.1441003 4.017199.5419746 5.543463 1.5206765-.520922-.5321384 5.474111-2.8052842 4.442696-2.7423325.811888-.0496728.785816.5611552.923477 1.3259197.117846.6536155-1.102332.0059018-1.834438.6875504 1.231127.8739464 2.688561.2906597 3.641238-.8109947.912004.2444296 1.695734.608369 2.72037 1.1031298-.871854-2.8854492-3.35966-1.7247776-2.209356-4.2310414.297223-.6472219.912526-.5498435 1.813059-.4800065.811887.0634435.525615-1.04165359 1.224349-1.69477727.206491 1.21821337 1.010035 1.89346847 2.257327 2.20084977-1.782293 2.7413489.547516-.0122953 2.454433 2.4792142.237257.3103321.603832.2326261.956328.3177092.451569.1091818.327987-.2385278.627295-.7131245.617911-.8532903 2.194233-.1918059 3.188104-.455416.100118-.8109947-.714377-1.5614968.098032-1.1926393.154347.0703289.507885.4082023.837959.1957404-.195541-.6673862-.550644-1.2226396-1.70199-1.4085438.0219-.70673099 1.537735-.9728002 2.228126-.5645979.495371.292627.897926 1.053457.800937 2.0134701-.084474.481482.576716.3895135.819188-.0703288.312866-1.415921 3.052528-2.69856146 3.85555-1.77936857.909919 4.35596117 6.001812 1.14985177 7.80027 2.74774247-1.017857.2926269-2.719847.0703288-3.039492 1.2187052-.106896.3845954.893753.7637809 1.189412.6752551.295136-.0885258.582451-1.0288665.998564-1.0244402 1.157082.012787 2.100373 1.066244 3.525477.1996748-.281579-.54345-1.011078-.5370565-1.41624-1.0814902-.538651-.7249279.277929-1.1144414.714899-.3693493 1.312472 1.8280578 4.024499-1.338215 6.896087.2341016-.002086.8454214-.749836 2.0365852-.028159 2.6469214 1.236343 1.0446044 1.859988 2.094127 2.404897 1.3829697.128275-.1677072.774864.1706581.594967.43476-.212749.313283-.954241.0240987-1.415197.4982036 1.784379 1.8467465 4.649709.8941106 6.204131-1.0687032.757136.6767306 2.143132 1.3578874 3.594308.3978743.549601.5857457.171034.6845995-.434361 1.2590336.989178.6068935 1.436576-.010328 2.631723-1.8865831" mask="url(#aB)" transform="translate(45.5 125.3033)"/><path d="m174.560632 9.88764331c.015643-.9491933.41559-1.7346139 1.100767-1.83740219.159039.40377601-.106896.90148771-.132447 1.25165646-.017208.24197049.516229.34623422.669011.78148602-.149654.5931229-1.647238.38312-1.637331-.19574029" transform="translate(45.5 125.3033)"/><path d="m175.936616 11.3606634c.463041-.4170549.88176-.5586961 1.059573-.5503354.169469.0078689.375439.1081982.598616.3467261.090211.0968865-1.153432 1.4272326-1.60083 1.2536237-.269065-.1047556-.593403-.567057-.057359-1.0500144" transform="translate(45.5 125.3033)"/><path d="m334.216486 84.6629763c.790508-1.102638 1.75935-1.2152625 2.089945-.7667318-.127754.748043-1.662361 1.3239525-2.089945.7667318" transform="translate(45.5 125.3033)"/><path d="m326.573536 79.3811336c.765479.5242695 1.171162.4283665 1.823487.4677113-.495892 1.0465717.18772 1.5526442.670055 2.4664271-1.765607-.1996748-1.997128-1.8929766-2.493542-2.9341384" transform="translate(45.5 125.3033)"/><path d="m336.432776 82.5248323c-.450005.4455798-.902617.318201-1.103894-.0034426-.219007-.349677-.040674-.7923059.738363-.7795189.349889.0059017 1.166469-.0103281.365531.7829615" transform="translate(45.5 125.3033)"/><path d="m313.890473 79.8087625c0-.300496.258114-.543942.576716-.543942.31808 0 .576716.243446.576716.543942 0 .3004958-.258636.5439418-.576716.5439418-.318602 0-.576716-.243446-.576716-.5439418" transform="translate(45.5 125.3033)"/><path d="m323.871365 79.0309157c.309216-.3388571 1.251464-.4982035 1.729106.2857416-.439055.8070602-.597574.1372151-1.729106-.2857416" transform="translate(45.5 125.3033)"/><path d="m333.592736 83.2922526c-.544908-.2778726-.315995-.5400074.284187-.6039427 1.211313.0791815 1.057486.6713207-.284187.6039427" transform="translate(45.5 125.3033)"/><path d="m204.365128 15.3787511c0-.1726253.148089-.3122993.331116-.3122993.182505 0 .331116.139674.331116.3122993s-.148611.3122993-.331116.3122993c-.183027 0-.331116-.139674-.331116-.3122993" transform="translate(45.5 125.3033)"/><path d="m316.02427 79.5599557c0-.1357395.116803-.245905.260722-.245905.143918 0 .260722.1101655.260722.245905 0 .1357396-.116804.2459051-.260722.2459051-.143919 0-.260722-.1101655-.260722-.2459051" transform="translate(45.5 125.3033)"/><path d="m155.941249 14.1492261c0-.1357396.116803-.245905.260722-.245905s.260722.1101654.260722.245905c0 .1357395-.116803.2459049-.260722.2459049s-.260722-.1101654-.260722-.2459049" transform="translate(45.5 125.3033)"/><path d="m205.478357 15.6246561c0-.1357396.116803-.245905.260721-.245905s.260722.1101654.260722.245905-.116804.245905-.260722.245905-.260721-.1101654-.260721-.245905" transform="translate(45.5 125.3033)"/><path d="m174.191763 12.673796c0-.1357394.116803-.2459049.260722-.2459049.143918 0 .260721.1101655.260721.2459049 0 .1357396-.116803.2459051-.260721.2459051-.143919 0-.260722-.1101655-.260722-.2459051" transform="translate(45.5 125.3033)"/><path d="m176.798979 8.73931612c0-.13573957.116803-.24590501.260721-.24590501.143919 0 .260722.11016544.260722.24590501 0 .13573956-.116803.245905-.260722.245905-.143918 0-.260721-.11016544-.260721-.245905" transform="translate(45.5 125.3033)"/></g><path d="m1 .5h2126v627h-2126z"/></g></svg>